<?xml version="1.0" encoding="UTF-8" standalone="no"?>
<!DOCTYPE svg PUBLIC "-//W3C//DTD SVG 1.1//EN"
 "http://www.w3.org/Graphics/SVG/1.1/DTD/svg11.dtd">
<!-- Generated by graphviz version 2.43.0 (0)
 -->
<!-- Title: G Pages: 1 -->
<svg width="525pt" height="988pt"
 viewBox="0.00 0.00 525.00 988.00" xmlns="http://www.w3.org/2000/svg" xmlns:xlink="http://www.w3.org/1999/xlink">
<g id="graph0" class="graph" transform="scale(1 1) rotate(0) translate(4 984)">
<title>G</title>
<polygon fill="white" stroke="transparent" points="-4,4 -4,-984 521,-984 521,4 -4,4"/>
<text text-anchor="middle" x="258.5" y="-963.2" font-family="Helvetica,sans-Serif" font-size="16.00">qwen3_235b_a22b_decode_kv2048</text>
<g id="clust3" class="cluster">
<title>cluster_legend</title>
<path fill="#f8f8f8" stroke="#cccccc" d="M377,-373C377,-373 497,-373 497,-373 503,-373 509,-379 509,-385 509,-385 509,-934 509,-934 509,-940 503,-946 497,-946 497,-946 377,-946 377,-946 371,-946 365,-940 365,-934 365,-934 365,-385 365,-385 365,-379 371,-373 377,-373"/>
<text text-anchor="middle" x="437" y="-933.2" font-family="Helvetica,sans-Serif" font-size="11.00">Legend</text>
</g>
<!-- layer0_k_proj -->
<g id="node1" class="node">
<title>layer0_k_proj</title>
<path fill="#4a90d9" stroke="black" stroke-width="1.5" d="M99,-848C99,-848 69,-848 69,-848 63,-848 57,-842 57,-836 57,-836 57,-824 57,-824 57,-818 63,-812 69,-812 69,-812 99,-812 99,-812 105,-812 111,-818 111,-824 111,-824 111,-836 111,-836 111,-842 105,-848 99,-848"/>
<text text-anchor="middle" x="84" y="-827.5" font-family="Helvetica,sans-Serif" font-size="10.00" fill="white">k_proj</text>
</g>
<!-- layer0_attn_qk -->
<g id="node7" class="node">
<title>layer0_attn_qk</title>
<path fill="#e8963e" stroke="black" stroke-width="1.5" d="M150.88,-764.48C150.88,-764.48 128.87,-755.52 128.87,-755.52 123.31,-753.26 123.31,-748.74 128.87,-746.48 128.87,-746.48 150.88,-737.52 150.88,-737.52 156.44,-735.26 167.56,-735.26 173.12,-737.52 173.12,-737.52 195.13,-746.48 195.13,-746.48 200.69,-748.74 200.69,-753.26 195.13,-755.52 195.13,-755.52 173.12,-764.48 173.12,-764.48 167.56,-766.74 156.44,-766.74 150.88,-764.48"/>
<text text-anchor="middle" x="162" y="-748.5" font-family="Helvetica,sans-Serif" font-size="10.00" fill="white">attn_qk</text>
</g>
<!-- layer0_k_proj&#45;&gt;layer0_attn_qk -->
<g id="edge5" class="edge">
<title>layer0_k_proj&#45;&gt;layer0_attn_qk</title>
<path fill="none" stroke="#555555" d="M101.31,-811.91C113.35,-800.02 129.44,-784.14 142.03,-771.72"/>
<polygon fill="#555555" stroke="#555555" points="144.69,-774.01 149.34,-764.49 139.77,-769.03 144.69,-774.01"/>
</g>
<!-- layer0_q_proj -->
<g id="node2" class="node">
<title>layer0_q_proj</title>
<path fill="#4a90d9" stroke="black" stroke-width="1.5" d="M182,-848C182,-848 152,-848 152,-848 146,-848 140,-842 140,-836 140,-836 140,-824 140,-824 140,-818 146,-812 152,-812 152,-812 182,-812 182,-812 188,-812 194,-818 194,-824 194,-824 194,-836 194,-836 194,-842 188,-848 182,-848"/>
<text text-anchor="middle" x="167" y="-827.5" font-family="Helvetica,sans-Serif" font-size="10.00" fill="white">q_proj</text>
</g>
<!-- layer0_q_proj&#45;&gt;layer0_attn_qk -->
<g id="edge4" class="edge">
<title>layer0_q_proj&#45;&gt;layer0_attn_qk</title>
<path fill="none" stroke="#555555" d="M165.89,-811.91C165.26,-802.17 164.45,-789.76 163.74,-778.76"/>
<polygon fill="#555555" stroke="#555555" points="167.23,-778.53 163.09,-768.78 160.24,-778.98 167.23,-778.53"/>
</g>
<!-- layer0_v_proj -->
<g id="node3" class="node">
<title>layer0_v_proj</title>
<path fill="#4a90d9" stroke="black" stroke-width="1.5" d="M265,-848C265,-848 235,-848 235,-848 229,-848 223,-842 223,-836 223,-836 223,-824 223,-824 223,-818 229,-812 235,-812 235,-812 265,-812 265,-812 271,-812 277,-818 277,-824 277,-824 277,-836 277,-836 277,-842 271,-848 265,-848"/>
<text text-anchor="middle" x="250" y="-827.5" font-family="Helvetica,sans-Serif" font-size="10.00" fill="white">v_proj</text>
</g>
<!-- layer0_attn_v -->
<g id="node8" class="node">
<title>layer0_attn_v</title>
<path fill="#d4722c" stroke="black" stroke-width="1.5" d="M227.09,-660C227.09,-660 209.65,-652 209.65,-652 204.2,-649.5 204.2,-644.5 209.65,-642 209.65,-642 227.09,-634 227.09,-634 232.55,-631.5 243.45,-631.5 248.91,-634 248.91,-634 266.35,-642 266.35,-642 271.8,-644.5 271.8,-649.5 266.35,-652 266.35,-652 248.91,-660 248.91,-660 243.45,-662.5 232.55,-662.5 227.09,-660"/>
<text text-anchor="middle" x="238" y="-644.5" font-family="Helvetica,sans-Serif" font-size="10.00" fill="white">attn_v</text>
</g>
<!-- layer0_v_proj&#45;&gt;layer0_attn_v -->
<g id="edge7" class="edge">
<title>layer0_v_proj&#45;&gt;layer0_attn_v</title>
<path fill="none" stroke="#555555" d="M248.87,-811.97C246.78,-780.41 242.28,-712.63 239.78,-674.84"/>
<polygon fill="#555555" stroke="#555555" points="243.25,-674.34 239.1,-664.59 236.27,-674.8 243.25,-674.34"/>
</g>
<!-- layer0_expert_repr_gate_proj -->
<g id="node4" class="node">
<title>layer0_expert_repr_gate_proj</title>
<path fill="#4a90d9" stroke="black" stroke-width="1.5" d="M112,-338C112,-338 12,-338 12,-338 6,-338 0,-332 0,-326 0,-326 0,-314 0,-314 0,-308 6,-302 12,-302 12,-302 112,-302 112,-302 118,-302 124,-308 124,-314 124,-314 124,-326 124,-326 124,-332 118,-338 112,-338"/>
<text text-anchor="middle" x="62" y="-317.5" font-family="Helvetica,sans-Serif" font-size="10.00" fill="white">expert_repr_gate_proj</text>
</g>
<!-- layer0_expert_repr_down_proj -->
<g id="node12" class="node">
<title>layer0_expert_repr_down_proj</title>
<path fill="#4a90d9" stroke="black" stroke-width="1.5" d="M255,-259C255,-259 151,-259 151,-259 145,-259 139,-253 139,-247 139,-247 139,-235 139,-235 139,-229 145,-223 151,-223 151,-223 255,-223 255,-223 261,-223 267,-229 267,-235 267,-235 267,-247 267,-247 267,-253 261,-259 255,-259"/>
<text text-anchor="middle" x="203" y="-238.5" font-family="Helvetica,sans-Serif" font-size="10.00" fill="white">expert_repr_down_proj</text>
</g>
<!-- layer0_expert_repr_gate_proj&#45;&gt;layer0_expert_repr_down_proj -->
<g id="edge14" class="edge">
<title>layer0_expert_repr_gate_proj&#45;&gt;layer0_expert_repr_down_proj</title>
<path fill="none" stroke="#555555" d="M93.29,-301.91C113.83,-290.7 140.87,-275.93 162.97,-263.86"/>
<polygon fill="#555555" stroke="#555555" points="164.7,-266.91 171.8,-259.04 161.34,-260.76 164.7,-266.91"/>
</g>
<!-- layer0_expert_repr_up_proj -->
<g id="node5" class="node">
<title>layer0_expert_repr_up_proj</title>
<path fill="#4a90d9" stroke="black" stroke-width="1.5" d="M255,-338C255,-338 165,-338 165,-338 159,-338 153,-332 153,-326 153,-326 153,-314 153,-314 153,-308 159,-302 165,-302 165,-302 255,-302 255,-302 261,-302 267,-308 267,-314 267,-314 267,-326 267,-326 267,-332 261,-338 255,-338"/>
<text text-anchor="middle" x="210" y="-317.5" font-family="Helvetica,sans-Serif" font-size="10.00" fill="white">expert_repr_up_proj</text>
</g>
<!-- layer0_expert_repr_up_proj&#45;&gt;layer0_expert_repr_down_proj -->
<g id="edge15" class="edge">
<title>layer0_expert_repr_up_proj&#45;&gt;layer0_expert_repr_down_proj</title>
<path fill="none" stroke="#555555" d="M208.45,-301.91C207.58,-292.34 206.47,-280.18 205.48,-269.32"/>
<polygon fill="#555555" stroke="#555555" points="208.94,-268.68 204.55,-259.04 201.97,-269.32 208.94,-268.68"/>
</g>
<!-- layer0_input -->
<g id="node6" class="node">
<title>layer0_input</title>
<ellipse fill="#e8e8e8" stroke="black" stroke-width="1.5" cx="208" cy="-909" rx="27" ry="18"/>
<text text-anchor="middle" x="208" y="-906.5" font-family="Helvetica,sans-Serif" font-size="10.00">input</text>
</g>
<!-- layer0_input&#45;&gt;layer0_k_proj -->
<g id="edge2" class="edge">
<title>layer0_input&#45;&gt;layer0_k_proj</title>
<path fill="none" stroke="#555555" d="M188.9,-896.14C170.54,-884.74 142.36,-867.24 119.82,-853.24"/>
<polygon fill="#555555" stroke="#555555" points="121.52,-850.18 111.18,-847.88 117.83,-856.13 121.52,-850.18"/>
</g>
<!-- layer0_input&#45;&gt;layer0_q_proj -->
<g id="edge1" class="edge">
<title>layer0_input&#45;&gt;layer0_q_proj</title>
<path fill="none" stroke="#555555" d="M199.3,-891.67C193.98,-881.67 187.04,-868.64 180.96,-857.22"/>
<polygon fill="#555555" stroke="#555555" points="183.9,-855.29 176.11,-848.11 177.72,-858.58 183.9,-855.29"/>
</g>
<!-- layer0_input&#45;&gt;layer0_v_proj -->
<g id="edge3" class="edge">
<title>layer0_input&#45;&gt;layer0_v_proj</title>
<path fill="none" stroke="#555555" d="M216.91,-891.67C222.36,-881.67 229.47,-868.64 235.7,-857.22"/>
<polygon fill="#555555" stroke="#555555" points="238.95,-858.56 240.67,-848.11 232.81,-855.21 238.95,-858.56"/>
</g>
<!-- layer0_attn_residual_add -->
<g id="node10" class="node">
<title>layer0_attn_residual_add</title>
<ellipse fill="#e85454" stroke="black" stroke-width="1.5" cx="279" cy="-471" rx="11" ry="11"/>
<text text-anchor="middle" x="279" y="-467.3" font-family="Helvetica,sans-Serif" font-size="14.00">attn_residual_add</text>
</g>
<!-- layer0_input&#45;&gt;layer0_attn_residual_add -->
<g id="edge10" class="edge">
<title>layer0_input&#45;&gt;layer0_attn_residual_add</title>
<path fill="none" stroke="#e85454" stroke-width="2" stroke-dasharray="5,2" d="M229.41,-897.6C248.22,-887.42 275,-870.22 291,-848 317.11,-811.72 321,-796.7 321,-752 321,-752 321,-752 321,-646 321,-588.21 298.83,-522.55 286.71,-490.96"/>
<polygon fill="#e85454" stroke="#e85454" stroke-width="2" points="289.95,-489.64 283.03,-481.61 283.43,-492.2 289.95,-489.64"/>
</g>
<!-- layer0_attn_qk&#45;&gt;layer0_attn_v -->
<g id="edge6" class="edge">
<title>layer0_attn_qk&#45;&gt;layer0_attn_v</title>
<path fill="none" stroke="#555555" d="M171.94,-736.67C184.82,-719.37 207.43,-689.02 222.56,-668.72"/>
<polygon fill="#555555" stroke="#555555" points="225.37,-670.81 228.54,-660.7 219.76,-666.62 225.37,-670.81"/>
</g>
<!-- layer0_o_proj -->
<g id="node9" class="node">
<title>layer0_o_proj</title>
<path fill="#4a90d9" stroke="black" stroke-width="1.5" d="M259,-561C259,-561 229,-561 229,-561 223,-561 217,-555 217,-549 217,-549 217,-537 217,-537 217,-531 223,-525 229,-525 229,-525 259,-525 259,-525 265,-525 271,-531 271,-537 271,-537 271,-549 271,-549 271,-555 265,-561 259,-561"/>
<text text-anchor="middle" x="244" y="-540.5" font-family="Helvetica,sans-Serif" font-size="10.00" fill="white">o_proj</text>
</g>
<!-- layer0_attn_v&#45;&gt;layer0_o_proj -->
<g id="edge8" class="edge">
<title>layer0_attn_v&#45;&gt;layer0_o_proj</title>
<path fill="none" stroke="#555555" d="M238.99,-629.16C239.91,-613.45 241.31,-589.75 242.39,-571.34"/>
<polygon fill="#555555" stroke="#555555" points="245.89,-571.4 242.99,-561.21 238.91,-570.99 245.89,-571.4"/>
</g>
<!-- layer0_o_proj&#45;&gt;layer0_attn_residual_add -->
<g id="edge9" class="edge">
<title>layer0_o_proj&#45;&gt;layer0_attn_residual_add</title>
<path fill="none" stroke="#555555" d="M252.65,-524.7C257.87,-514.27 264.51,-500.99 269.82,-490.37"/>
<polygon fill="#555555" stroke="#555555" points="273.07,-491.69 274.41,-481.18 266.8,-488.56 273.07,-491.69"/>
</g>
<!-- layer0_router -->
<g id="node11" class="node">
<title>layer0_router</title>
<path fill="#4a90d9" stroke="black" stroke-width="1.5" d="M225,-417C225,-417 195,-417 195,-417 189,-417 183,-411 183,-405 183,-405 183,-393 183,-393 183,-387 189,-381 195,-381 195,-381 225,-381 225,-381 231,-381 237,-387 237,-393 237,-393 237,-405 237,-405 237,-411 231,-417 225,-417"/>
<text text-anchor="middle" x="210" y="-396.5" font-family="Helvetica,sans-Serif" font-size="10.00" fill="white">router</text>
</g>
<!-- layer0_attn_residual_add&#45;&gt;layer0_router -->
<g id="edge11" class="edge">
<title>layer0_attn_residual_add&#45;&gt;layer0_router</title>
<path fill="none" stroke="#555555" d="M271.62,-462.51C262.7,-453.46 247.25,-437.79 234.06,-424.4"/>
<polygon fill="#555555" stroke="#555555" points="236.52,-421.92 227.01,-417.26 231.54,-426.84 236.52,-421.92"/>
</g>
<!-- layer0_mlp_residual_add -->
<g id="node14" class="node">
<title>layer0_mlp_residual_add</title>
<ellipse fill="#e85454" stroke="black" stroke-width="1.5" cx="257" cy="-90" rx="11" ry="11"/>
<text text-anchor="middle" x="257" y="-86.3" font-family="Helvetica,sans-Serif" font-size="14.00">mlp_residual_add</text>
</g>
<!-- layer0_attn_residual_add&#45;&gt;layer0_mlp_residual_add -->
<g id="edge18" class="edge">
<title>layer0_attn_residual_add&#45;&gt;layer0_mlp_residual_add</title>
<path fill="none" stroke="#e85454" stroke-width="2" stroke-dasharray="5,2" d="M282.55,-460.39C290.88,-436.93 311,-374.71 311,-321 311,-321 311,-321 311,-240 311,-189.76 283.53,-135.4 267.78,-108.34"/>
<polygon fill="#e85454" stroke="#e85454" stroke-width="2" points="270.72,-106.44 262.58,-99.67 264.72,-110.04 270.72,-106.44"/>
</g>
<!-- layer0_router&#45;&gt;layer0_expert_repr_gate_proj -->
<g id="edge12" class="edge">
<title>layer0_router&#45;&gt;layer0_expert_repr_gate_proj</title>
<path fill="none" stroke="#555555" d="M182.85,-383.88C160.78,-372.39 129.26,-355.99 103.94,-342.82"/>
<polygon fill="#555555" stroke="#555555" points="105.41,-339.64 94.92,-338.13 102.18,-345.85 105.41,-339.64"/>
</g>
<!-- layer0_router&#45;&gt;layer0_expert_repr_up_proj -->
<g id="edge13" class="edge">
<title>layer0_router&#45;&gt;layer0_expert_repr_up_proj</title>
<path fill="none" stroke="#555555" d="M210,-380.91C210,-371.34 210,-359.18 210,-348.32"/>
<polygon fill="#555555" stroke="#555555" points="213.5,-348.04 210,-338.04 206.5,-348.04 213.5,-348.04"/>
</g>
<!-- layer0_moe_combine -->
<g id="node13" class="node">
<title>layer0_moe_combine</title>
<path fill="#9b59b6" stroke="black" stroke-width="1.5" d="M254.68,-168C254.68,-168 244.94,-174 244.94,-174 240.07,-177 229.49,-180 223.77,-180 223.77,-180 188.23,-180 188.23,-180 182.51,-180 171.93,-177 167.06,-174 167.06,-174 157.32,-168 157.32,-168 152.45,-165 152.45,-159 157.32,-156 157.32,-156 167.06,-150 167.06,-150 171.93,-147 182.51,-144 188.23,-144 188.23,-144 223.77,-144 223.77,-144 229.49,-144 240.07,-147 244.94,-150 244.94,-150 254.68,-156 254.68,-156 259.55,-159 259.55,-165 254.68,-168"/>
<text text-anchor="middle" x="206" y="-159.5" font-family="Helvetica,sans-Serif" font-size="10.00" fill="white">moe_combine</text>
</g>
<!-- layer0_expert_repr_down_proj&#45;&gt;layer0_moe_combine -->
<g id="edge16" class="edge">
<title>layer0_expert_repr_down_proj&#45;&gt;layer0_moe_combine</title>
<path fill="none" stroke="#555555" d="M203.67,-222.91C204.04,-213.34 204.51,-201.18 204.94,-190.32"/>
<polygon fill="#555555" stroke="#555555" points="208.44,-190.17 205.34,-180.04 201.45,-189.9 208.44,-190.17"/>
</g>
<!-- layer0_moe_combine&#45;&gt;layer0_mlp_residual_add -->
<g id="edge17" class="edge">
<title>layer0_moe_combine&#45;&gt;layer0_mlp_residual_add</title>
<path fill="none" stroke="#555555" d="M218.61,-143.7C226.63,-132.69 236.95,-118.51 244.88,-107.64"/>
<polygon fill="#555555" stroke="#555555" points="247.81,-109.56 250.87,-99.42 242.15,-105.44 247.81,-109.56"/>
</g>
<!-- lm_head -->
<g id="node15" class="node">
<title>lm_head</title>
<path fill="#4a90d9" stroke="black" stroke-width="1.5" d="M212.5,-36C212.5,-36 177.5,-36 177.5,-36 171.5,-36 165.5,-30 165.5,-24 165.5,-24 165.5,-12 165.5,-12 165.5,-6 171.5,0 177.5,0 177.5,0 212.5,0 212.5,0 218.5,0 224.5,-6 224.5,-12 224.5,-12 224.5,-24 224.5,-24 224.5,-30 218.5,-36 212.5,-36"/>
<text text-anchor="middle" x="195" y="-15.5" font-family="Helvetica,sans-Serif" font-size="10.00" fill="white">lm_head</text>
</g>
<!-- layer0_mlp_residual_add&#45;&gt;lm_head -->
<g id="edge19" class="edge">
<title>layer0_mlp_residual_add&#45;&gt;lm_head</title>
<path fill="none" stroke="#555555" d="M250.13,-81.24C242.19,-72.28 228.73,-57.08 217.1,-43.95"/>
<polygon fill="#555555" stroke="#555555" points="219.41,-41.28 210.16,-36.11 214.17,-45.92 219.41,-41.28"/>
</g>
<!-- repeat_note -->
<g id="node16" class="node">
<title>repeat_note</title>
<polygon fill="#ffffcc" stroke="black" stroke-width="1.5" points="378.5,-36 253.5,-36 253.5,0 384.5,0 384.5,-30 378.5,-36"/>
<polyline fill="none" stroke="black" stroke-width="1.5" points="378.5,-36 378.5,-30 "/>
<polyline fill="none" stroke="black" stroke-width="1.5" points="384.5,-30 378.5,-30 "/>
<text text-anchor="middle" x="319" y="-15.2" font-family="Helvetica,sans-Serif" font-size="11.00" fill="#666666">Repeated x94 layers</text>
</g>
<!-- layer0_mlp_residual_add&#45;&gt;repeat_note -->
<g id="edge20" class="edge">
<title>layer0_mlp_residual_add&#45;&gt;repeat_note</title>
<path fill="none" stroke="#999999" stroke-dasharray="1,5" d="M263.87,-81.24C273.46,-70.42 291.09,-50.51 303.84,-36.11"/>
</g>
<!-- leg_linear -->
<g id="node17" class="node">
<title>leg_linear</title>
<path fill="#4a90d9" stroke="black" stroke-width="1.5" d="M474,-918C474,-918 400,-918 400,-918 397,-918 394,-915 394,-912 394,-912 394,-906 394,-906 394,-903 397,-900 400,-900 400,-900 474,-900 474,-900 477,-900 480,-903 480,-906 480,-906 480,-912 480,-912 480,-915 477,-918 474,-918"/>
<text text-anchor="middle" x="437" y="-906.8" font-family="Helvetica,sans-Serif" font-size="9.00" fill="white">linear</text>
</g>
<!-- leg_attn_qk -->
<g id="node18" class="node">
<title>leg_attn_qk</title>
<path fill="#e8963e" stroke="black" stroke-width="1.5" d="M425.71,-843.94C425.71,-843.94 398.29,-834.06 398.29,-834.06 392.65,-832.03 392.65,-827.97 398.29,-825.94 398.29,-825.94 425.71,-816.06 425.71,-816.06 431.35,-814.03 442.65,-814.03 448.29,-816.06 448.29,-816.06 475.71,-825.94 475.71,-825.94 481.35,-827.97 481.35,-832.03 475.71,-834.06 475.71,-834.06 448.29,-843.94 448.29,-843.94 442.65,-845.97 431.35,-845.97 425.71,-843.94"/>
<text text-anchor="middle" x="437" y="-827.8" font-family="Helvetica,sans-Serif" font-size="9.00" fill="white">attn qk</text>
</g>
<!-- leg_linear&#45;&gt;leg_attn_qk -->
<!-- leg_attn_v -->
<g id="node19" class="node">
<title>leg_attn_v</title>
<path fill="#d4722c" stroke="black" stroke-width="1.5" d="M425.89,-764.46C425.89,-764.46 404.11,-755.54 404.11,-755.54 398.55,-753.27 398.55,-748.73 404.11,-746.46 404.11,-746.46 425.89,-737.54 425.89,-737.54 431.45,-735.27 442.55,-735.27 448.11,-737.54 448.11,-737.54 469.89,-746.46 469.89,-746.46 475.45,-748.73 475.45,-753.27 469.89,-755.54 469.89,-755.54 448.11,-764.46 448.11,-764.46 442.55,-766.73 431.45,-766.73 425.89,-764.46"/>
<text text-anchor="middle" x="437" y="-748.8" font-family="Helvetica,sans-Serif" font-size="9.00" fill="white">attn v</text>
</g>
<!-- leg_attn_qk&#45;&gt;leg_attn_v -->
<!-- leg_residual_add -->
<g id="node20" class="node">
<title>leg_residual_add</title>
<ellipse fill="#e85454" stroke="black" stroke-width="1.5" cx="437" cy="-647" rx="43" ry="43"/>
<text text-anchor="middle" x="437" y="-644.8" font-family="Helvetica,sans-Serif" font-size="9.00" fill="white">residual add</text>
</g>
<!-- leg_attn_v&#45;&gt;leg_residual_add -->
<!-- leg_moe_combine -->
<g id="node21" class="node">
<title>leg_moe_combine</title>
<path fill="#9b59b6" stroke="black" stroke-width="1.5" d="M490.23,-547.97C490.23,-547.97 479.58,-552.93 479.58,-552.93 474.26,-555.41 463.06,-557.9 457.19,-557.9 457.19,-557.9 416.81,-557.9 416.81,-557.9 410.94,-557.9 399.74,-555.41 394.42,-552.93 394.42,-552.93 383.77,-547.97 383.77,-547.97 378.45,-545.48 378.45,-540.52 383.77,-538.03 383.77,-538.03 394.42,-533.07 394.42,-533.07 399.74,-530.59 410.94,-528.1 416.81,-528.1 416.81,-528.1 457.19,-528.1 457.19,-528.1 463.06,-528.1 474.26,-530.59 479.58,-533.07 479.58,-533.07 490.23,-538.03 490.23,-538.03 495.55,-540.52 495.55,-545.48 490.23,-547.97"/>
<text text-anchor="middle" x="437" y="-540.8" font-family="Helvetica,sans-Serif" font-size="9.00" fill="white">moe combine</text>
</g>
<!-- leg_residual_add&#45;&gt;leg_moe_combine -->
<!-- leg_skip_src -->
<g id="node22" class="node">
<title>leg_skip_src</title>
<ellipse fill="black" stroke="black" stroke-width="1.5" cx="437" cy="-471" rx="3.6" ry="3.6"/>
</g>
<!-- leg_moe_combine&#45;&gt;leg_skip_src -->
<!-- leg_skip_dst -->
<g id="node23" class="node">
<title>leg_skip_dst</title>
<path fill="lightgrey" stroke="transparent" stroke-width="1.5" d="M456.5,-417C456.5,-417 417.5,-417 417.5,-417 411.5,-417 405.5,-411 405.5,-405 405.5,-405 405.5,-393 405.5,-393 405.5,-387 411.5,-381 417.5,-381 417.5,-381 456.5,-381 456.5,-381 462.5,-381 468.5,-387 468.5,-393 468.5,-393 468.5,-405 468.5,-405 468.5,-411 462.5,-417 456.5,-417"/>
<text text-anchor="middle" x="437" y="-396.8" font-family="Helvetica,sans-Serif" font-size="9.00">skip conn.</text>
</g>
<!-- leg_skip_src&#45;&gt;leg_skip_dst -->
<g id="edge25" class="edge">
<title>leg_skip_src&#45;&gt;leg_skip_dst</title>
<path fill="none" stroke="#e85454" stroke-width="2" stroke-dasharray="5,2" d="M437,-467.34C437,-460.77 437,-443.15 437,-427.59"/>
<polygon fill="#e85454" stroke="#e85454" stroke-width="2" points="440.5,-427.3 437,-417.3 433.5,-427.3 440.5,-427.3"/>
</g>
</g>
</svg>
