<?xml version="1.0" encoding="UTF-8" standalone="no"?>
<!DOCTYPE svg PUBLIC "-//W3C//DTD SVG 1.1//EN"
 "http://www.w3.org/Graphics/SVG/1.1/DTD/svg11.dtd">
<!-- Generated by graphviz version 2.43.0 (0)
 -->
<!-- Title: G Pages: 1 -->
<svg width="588pt" height="1518pt"
 viewBox="0.00 0.00 587.50 1518.00" xmlns="http://www.w3.org/2000/svg" xmlns:xlink="http://www.w3.org/1999/xlink">
<g id="graph0" class="graph" transform="scale(1 1) rotate(0) translate(4 1514)">
<title>G</title>
<polygon fill="white" stroke="transparent" points="-4,4 -4,-1514 583.5,-1514 583.5,4 -4,4"/>
<text text-anchor="middle" x="289.75" y="-1493.2" font-family="Helvetica,sans-Serif" font-size="16.00">llama3.1_70b_decode_kv2048</text>
<g id="clust3" class="cluster">
<title>cluster_legend</title>
<path fill="#f8f8f8" stroke="#cccccc" d="M411.5,-370C411.5,-370 559.5,-370 559.5,-370 565.5,-370 571.5,-376 571.5,-382 571.5,-382 571.5,-1464 571.5,-1464 571.5,-1470 565.5,-1476 559.5,-1476 559.5,-1476 411.5,-1476 411.5,-1476 405.5,-1476 399.5,-1470 399.5,-1464 399.5,-1464 399.5,-382 399.5,-382 399.5,-376 405.5,-370 411.5,-370"/>
<text text-anchor="middle" x="485.5" y="-1463.2" font-family="Helvetica,sans-Serif" font-size="11.00">Legend</text>
</g>
<!-- layer0_k_proj -->
<g id="node1" class="node">
<title>layer0_k_proj</title>
<path fill="#4a90d9" stroke="black" stroke-width="1.5" d="M59,-1368C59,-1368 12,-1368 12,-1368 6,-1368 0,-1362 0,-1356 0,-1356 0,-1344 0,-1344 0,-1338 6,-1332 12,-1332 12,-1332 59,-1332 59,-1332 65,-1332 71,-1338 71,-1344 71,-1344 71,-1356 71,-1356 71,-1362 65,-1368 59,-1368"/>
<text text-anchor="middle" x="35.5" y="-1353" font-family="Helvetica,sans-Serif" font-size="10.00" fill="white">k_proj</text>
<text text-anchor="middle" x="35.5" y="-1342" font-family="Helvetica,sans-Serif" font-size="10.00" fill="white">8192x1024</text>
</g>
<!-- layer0_attn_qk -->
<g id="node7" class="node">
<title>layer0_attn_qk</title>
<path fill="#e8963e" stroke="black" stroke-width="1.5" d="M76.06,-1264.09C76.06,-1264.09 43.94,-1245.91 43.94,-1245.91 38.72,-1242.96 38.72,-1237.04 43.94,-1234.09 43.94,-1234.09 76.06,-1215.91 76.06,-1215.91 81.28,-1212.96 91.72,-1212.96 96.94,-1215.91 96.94,-1215.91 129.06,-1234.09 129.06,-1234.09 134.28,-1237.04 134.28,-1242.96 129.06,-1245.91 129.06,-1245.91 96.94,-1264.09 96.94,-1264.09 91.72,-1267.04 81.28,-1267.04 76.06,-1264.09"/>
<text text-anchor="middle" x="86.5" y="-1243" font-family="Helvetica,sans-Serif" font-size="10.00" fill="white">attn_qk</text>
<text text-anchor="middle" x="86.5" y="-1232" font-family="Helvetica,sans-Serif" font-size="10.00" fill="white">1x2048</text>
</g>
<!-- layer0_k_proj&#45;&gt;layer0_attn_qk -->
<g id="edge5" class="edge">
<title>layer0_k_proj&#45;&gt;layer0_attn_qk</title>
<path fill="none" stroke="#555555" d="M30.73,-1331.84C28.38,-1320.14 27.09,-1304.56 32.5,-1292 37.28,-1280.92 45.78,-1271.12 54.64,-1263.15"/>
<polygon fill="#555555" stroke="#555555" points="57.01,-1265.73 62.44,-1256.64 52.52,-1260.36 57.01,-1265.73"/>
<text text-anchor="middle" x="69" y="-1303.6" font-family="Helvetica,sans-Serif" font-size="8.00">key</text>
<text text-anchor="middle" x="69" y="-1294.6" font-family="Helvetica,sans-Serif" font-size="8.00">[1x64x2048x128]</text>
</g>
<!-- layer0_q_proj -->
<g id="node2" class="node">
<title>layer0_q_proj</title>
<path fill="#4a90d9" stroke="black" stroke-width="1.5" d="M161,-1368C161,-1368 114,-1368 114,-1368 108,-1368 102,-1362 102,-1356 102,-1356 102,-1344 102,-1344 102,-1338 108,-1332 114,-1332 114,-1332 161,-1332 161,-1332 167,-1332 173,-1338 173,-1344 173,-1344 173,-1356 173,-1356 173,-1362 167,-1368 161,-1368"/>
<text text-anchor="middle" x="137.5" y="-1353" font-family="Helvetica,sans-Serif" font-size="10.00" fill="white">q_proj</text>
<text text-anchor="middle" x="137.5" y="-1342" font-family="Helvetica,sans-Serif" font-size="10.00" fill="white">8192x8192</text>
</g>
<!-- layer0_q_proj&#45;&gt;layer0_attn_qk -->
<g id="edge4" class="edge">
<title>layer0_q_proj&#45;&gt;layer0_attn_qk</title>
<path fill="none" stroke="#555555" d="M129.31,-1331.65C121.89,-1315.94 110.77,-1292.39 101.72,-1273.23"/>
<polygon fill="#555555" stroke="#555555" points="104.78,-1271.51 97.34,-1263.96 98.45,-1274.49 104.78,-1271.51"/>
<text text-anchor="middle" x="147" y="-1303.6" font-family="Helvetica,sans-Serif" font-size="8.00">query</text>
<text text-anchor="middle" x="147" y="-1294.6" font-family="Helvetica,sans-Serif" font-size="8.00">[1x64x1x128]</text>
</g>
<!-- layer0_v_proj -->
<g id="node3" class="node">
<title>layer0_v_proj</title>
<path fill="#4a90d9" stroke="black" stroke-width="1.5" d="M261,-1368C261,-1368 214,-1368 214,-1368 208,-1368 202,-1362 202,-1356 202,-1356 202,-1344 202,-1344 202,-1338 208,-1332 214,-1332 214,-1332 261,-1332 261,-1332 267,-1332 273,-1338 273,-1344 273,-1344 273,-1356 273,-1356 273,-1362 267,-1368 261,-1368"/>
<text text-anchor="middle" x="237.5" y="-1353" font-family="Helvetica,sans-Serif" font-size="10.00" fill="white">v_proj</text>
<text text-anchor="middle" x="237.5" y="-1342" font-family="Helvetica,sans-Serif" font-size="10.00" fill="white">8192x1024</text>
</g>
<!-- layer0_attn_v -->
<g id="node12" class="node">
<title>layer0_attn_v</title>
<path fill="#d4722c" stroke="black" stroke-width="1.5" d="M217.06,-641.09C217.06,-641.09 184.94,-622.91 184.94,-622.91 179.72,-619.96 179.72,-614.04 184.94,-611.09 184.94,-611.09 217.06,-592.91 217.06,-592.91 222.28,-589.96 232.72,-589.96 237.94,-592.91 237.94,-592.91 270.06,-611.09 270.06,-611.09 275.28,-614.04 275.28,-619.96 270.06,-622.91 270.06,-622.91 237.94,-641.09 237.94,-641.09 232.72,-644.04 222.28,-644.04 217.06,-641.09"/>
<text text-anchor="middle" x="227.5" y="-620" font-family="Helvetica,sans-Serif" font-size="10.00" fill="white">attn_v</text>
<text text-anchor="middle" x="227.5" y="-609" font-family="Helvetica,sans-Serif" font-size="10.00" fill="white">1x2048</text>
</g>
<!-- layer0_v_proj&#45;&gt;layer0_attn_v -->
<g id="edge11" class="edge">
<title>layer0_v_proj&#45;&gt;layer0_attn_v</title>
<path fill="none" stroke="#555555" d="M234.92,-1331.84C231.96,-1310.57 227.5,-1273.2 227.5,-1241 227.5,-1241 227.5,-1241 227.5,-751 227.5,-719.4 227.5,-683.59 227.5,-657.09"/>
<polygon fill="#555555" stroke="#555555" points="231,-657.06 227.5,-647.06 224,-657.06 231,-657.06"/>
<text text-anchor="middle" x="264" y="-998.6" font-family="Helvetica,sans-Serif" font-size="8.00">value</text>
<text text-anchor="middle" x="264" y="-989.6" font-family="Helvetica,sans-Serif" font-size="8.00">[1x64x2048x128]</text>
</g>
<!-- layer0_gate_proj -->
<g id="node4" class="node">
<title>layer0_gate_proj</title>
<path fill="#4a90d9" stroke="black" stroke-width="1.5" d="M225,-316C225,-316 172,-316 172,-316 166,-316 160,-310 160,-304 160,-304 160,-292 160,-292 160,-286 166,-280 172,-280 172,-280 225,-280 225,-280 231,-280 237,-286 237,-292 237,-292 237,-304 237,-304 237,-310 231,-316 225,-316"/>
<text text-anchor="middle" x="198.5" y="-301" font-family="Helvetica,sans-Serif" font-size="10.00" fill="white">gate_proj</text>
<text text-anchor="middle" x="198.5" y="-290" font-family="Helvetica,sans-Serif" font-size="10.00" fill="white">8192x28672</text>
</g>
<!-- layer0_down_proj -->
<g id="node15" class="node">
<title>layer0_down_proj</title>
<path fill="#4a90d9" stroke="black" stroke-width="1.5" d="M328,-218C328,-218 275,-218 275,-218 269,-218 263,-212 263,-206 263,-206 263,-194 263,-194 263,-188 269,-182 275,-182 275,-182 328,-182 328,-182 334,-182 340,-188 340,-194 340,-194 340,-206 340,-206 340,-212 334,-218 328,-218"/>
<text text-anchor="middle" x="301.5" y="-203" font-family="Helvetica,sans-Serif" font-size="10.00" fill="white">down_proj</text>
<text text-anchor="middle" x="301.5" y="-192" font-family="Helvetica,sans-Serif" font-size="10.00" fill="white">28672x8192</text>
</g>
<!-- layer0_gate_proj&#45;&gt;layer0_down_proj -->
<g id="edge17" class="edge">
<title>layer0_gate_proj&#45;&gt;layer0_down_proj</title>
<path fill="none" stroke="#555555" d="M208.65,-280C216.39,-267.93 227.85,-251.84 240.5,-240 246.77,-234.14 254.03,-228.62 261.31,-223.7"/>
<polygon fill="#555555" stroke="#555555" points="263.32,-226.57 269.81,-218.19 259.52,-220.69 263.32,-226.57"/>
<text text-anchor="middle" x="266.5" y="-251.6" font-family="Helvetica,sans-Serif" font-size="8.00">gate_output</text>
<text text-anchor="middle" x="266.5" y="-242.6" font-family="Helvetica,sans-Serif" font-size="8.00">[1x1x28672]</text>
</g>
<!-- layer0_up_proj -->
<g id="node5" class="node">
<title>layer0_up_proj</title>
<path fill="#4a90d9" stroke="black" stroke-width="1.5" d="M331,-316C331,-316 278,-316 278,-316 272,-316 266,-310 266,-304 266,-304 266,-292 266,-292 266,-286 272,-280 278,-280 278,-280 331,-280 331,-280 337,-280 343,-286 343,-292 343,-292 343,-304 343,-304 343,-310 337,-316 331,-316"/>
<text text-anchor="middle" x="304.5" y="-301" font-family="Helvetica,sans-Serif" font-size="10.00" fill="white">up_proj</text>
<text text-anchor="middle" x="304.5" y="-290" font-family="Helvetica,sans-Serif" font-size="10.00" fill="white">8192x28672</text>
</g>
<!-- layer0_up_proj&#45;&gt;layer0_down_proj -->
<g id="edge18" class="edge">
<title>layer0_up_proj&#45;&gt;layer0_down_proj</title>
<path fill="none" stroke="#555555" d="M301.84,-279.96C300.9,-273.15 299.96,-265.22 299.5,-258 298.88,-248.31 299.03,-237.67 299.45,-228.24"/>
<polygon fill="#555555" stroke="#555555" points="302.95,-228.4 300.01,-218.22 295.96,-228.01 302.95,-228.4"/>
<text text-anchor="middle" x="325.5" y="-251.6" font-family="Helvetica,sans-Serif" font-size="8.00">up_output</text>
<text text-anchor="middle" x="325.5" y="-242.6" font-family="Helvetica,sans-Serif" font-size="8.00">[1x1x28672]</text>
</g>
<!-- layer0_input -->
<g id="node6" class="node">
<title>layer0_input</title>
<ellipse fill="#e8e8e8" stroke="black" stroke-width="1.5" cx="182.5" cy="-1439" rx="27" ry="18"/>
<text text-anchor="middle" x="182.5" y="-1436.5" font-family="Helvetica,sans-Serif" font-size="10.00">input</text>
</g>
<!-- layer0_input&#45;&gt;layer0_k_proj -->
<g id="edge2" class="edge">
<title>layer0_input&#45;&gt;layer0_k_proj</title>
<path fill="none" stroke="#555555" d="M159.02,-1429.98C140.3,-1423.08 113.78,-1412.18 92.5,-1399 81.33,-1392.08 70.05,-1383.1 60.51,-1374.78"/>
<polygon fill="#555555" stroke="#555555" points="62.73,-1372.07 52.94,-1368 58.06,-1377.28 62.73,-1372.07"/>
<text text-anchor="middle" x="116" y="-1392.6" font-family="Helvetica,sans-Serif" font-size="8.00">[1x1x8192]</text>
</g>
<!-- layer0_input&#45;&gt;layer0_q_proj -->
<g id="edge1" class="edge">
<title>layer0_input&#45;&gt;layer0_q_proj</title>
<path fill="none" stroke="#555555" d="M167.56,-1423.62C161.16,-1416.72 154.11,-1408 149.5,-1399 146.18,-1392.53 143.75,-1385.09 141.97,-1378.03"/>
<polygon fill="#555555" stroke="#555555" points="145.36,-1377.14 139.82,-1368.11 138.52,-1378.63 145.36,-1377.14"/>
<text text-anchor="middle" x="173" y="-1392.6" font-family="Helvetica,sans-Serif" font-size="8.00">[1x1x8192]</text>
</g>
<!-- layer0_input&#45;&gt;layer0_v_proj -->
<g id="edge3" class="edge">
<title>layer0_input&#45;&gt;layer0_v_proj</title>
<path fill="none" stroke="#555555" d="M192.59,-1422.04C200.6,-1409.37 211.96,-1391.39 221.25,-1376.7"/>
<polygon fill="#555555" stroke="#555555" points="224.34,-1378.37 226.72,-1368.05 218.42,-1374.63 224.34,-1378.37"/>
<text text-anchor="middle" x="236" y="-1392.6" font-family="Helvetica,sans-Serif" font-size="8.00">[1x1x8192]</text>
</g>
<!-- layer0_attn_residual_add -->
<g id="node14" class="node">
<title>layer0_attn_residual_add</title>
<ellipse fill="#e85454" stroke="black" stroke-width="1.5" cx="304.5" cy="-396" rx="11" ry="11"/>
<text text-anchor="middle" x="304.5" y="-392.3" font-family="Helvetica,sans-Serif" font-size="14.00">+</text>
</g>
<!-- layer0_input&#45;&gt;layer0_attn_residual_add -->
<g id="edge14" class="edge">
<title>layer0_input&#45;&gt;layer0_attn_residual_add</title>
<path fill="none" stroke="#e85454" stroke-width="2" stroke-dasharray="5,2" d="M209.25,-1435.73C255.26,-1430.2 344.5,-1411.66 344.5,-1351 344.5,-1351 344.5,-1351 344.5,-493 344.5,-463.48 328.18,-432.51 316.39,-413.98"/>
<polygon fill="#e85454" stroke="#e85454" stroke-width="2" points="319.2,-411.89 310.75,-405.5 313.38,-415.76 319.2,-411.89"/>
<text text-anchor="middle" x="368" y="-937.6" font-family="Helvetica,sans-Serif" font-size="8.00">residual</text>
<text text-anchor="middle" x="368" y="-928.6" font-family="Helvetica,sans-Serif" font-size="8.00">[1x1x8192]</text>
</g>
<!-- layer0_softmax_max -->
<g id="node8" class="node">
<title>layer0_softmax_max</title>
<path fill="#f5c842" stroke="black" stroke-width="1.5" d="M160.6,-1148C160.6,-1148 47.63,-1148 47.63,-1148 41.63,-1148 32.6,-1142.83 29.56,-1137.65 29.56,-1137.65 6.48,-1098.35 6.48,-1098.35 3.44,-1093.17 6.4,-1088 12.4,-1088 12.4,-1088 125.37,-1088 125.37,-1088 131.37,-1088 140.4,-1093.17 143.44,-1098.35 143.44,-1098.35 166.52,-1137.65 166.52,-1137.65 169.56,-1142.83 166.6,-1148 160.6,-1148"/>
<text text-anchor="middle" x="86.5" y="-1121" font-family="Helvetica,sans-Serif" font-size="10.00" fill="white">softmax_max</text>
<text text-anchor="middle" x="86.5" y="-1110" font-family="Helvetica,sans-Serif" font-size="10.00" fill="white">1x2048</text>
</g>
<!-- layer0_attn_qk&#45;&gt;layer0_softmax_max -->
<g id="edge6" class="edge">
<title>layer0_attn_qk&#45;&gt;layer0_softmax_max</title>
<path fill="none" stroke="#555555" d="M86.5,-1209.95C86.5,-1194.44 86.5,-1175.13 86.5,-1158.3"/>
<polygon fill="#555555" stroke="#555555" points="90,-1158.2 86.5,-1148.2 83,-1158.2 90,-1158.2"/>
<text text-anchor="middle" x="117.5" y="-1181.6" font-family="Helvetica,sans-Serif" font-size="8.00">scores</text>
<text text-anchor="middle" x="117.5" y="-1172.6" font-family="Helvetica,sans-Serif" font-size="8.00">[1x64x1x2048]</text>
</g>
<!-- layer0_softmax_exp -->
<g id="node9" class="node">
<title>layer0_softmax_exp</title>
<path fill="#f0b429" stroke="black" stroke-width="1.5" d="M157.38,-1026C157.38,-1026 49.54,-1026 49.54,-1026 43.54,-1026 34.58,-1020.78 31.63,-1015.55 31.63,-1015.55 9.52,-976.45 9.52,-976.45 6.57,-971.22 9.62,-966 15.62,-966 15.62,-966 123.46,-966 123.46,-966 129.46,-966 138.42,-971.22 141.37,-976.45 141.37,-976.45 163.48,-1015.55 163.48,-1015.55 166.43,-1020.78 163.38,-1026 157.38,-1026"/>
<text text-anchor="middle" x="86.5" y="-999" font-family="Helvetica,sans-Serif" font-size="10.00" fill="white">softmax_exp</text>
<text text-anchor="middle" x="86.5" y="-988" font-family="Helvetica,sans-Serif" font-size="10.00" fill="white">1x2048</text>
</g>
<!-- layer0_softmax_max&#45;&gt;layer0_softmax_exp -->
<g id="edge7" class="edge">
<title>layer0_softmax_max&#45;&gt;layer0_softmax_exp</title>
<path fill="none" stroke="#555555" d="M86.5,-1087.95C86.5,-1072.44 86.5,-1053.13 86.5,-1036.3"/>
<polygon fill="#555555" stroke="#555555" points="90,-1036.2 86.5,-1026.2 83,-1036.2 90,-1036.2"/>
<text text-anchor="middle" x="117.5" y="-1059.6" font-family="Helvetica,sans-Serif" font-size="8.00">scores_max</text>
<text text-anchor="middle" x="117.5" y="-1050.6" font-family="Helvetica,sans-Serif" font-size="8.00">[1x64x1x2048]</text>
</g>
<!-- layer0_softmax_sum -->
<g id="node10" class="node">
<title>layer0_softmax_sum</title>
<path fill="#e8963e" stroke="black" stroke-width="1.5" d="M168.6,-904C168.6,-904 55.63,-904 55.63,-904 49.63,-904 40.6,-898.83 37.56,-893.65 37.56,-893.65 14.48,-854.35 14.48,-854.35 11.44,-849.17 14.4,-844 20.4,-844 20.4,-844 133.37,-844 133.37,-844 139.37,-844 148.4,-849.17 151.44,-854.35 151.44,-854.35 174.52,-893.65 174.52,-893.65 177.56,-898.83 174.6,-904 168.6,-904"/>
<text text-anchor="middle" x="94.5" y="-877" font-family="Helvetica,sans-Serif" font-size="10.00" fill="white">softmax_sum</text>
<text text-anchor="middle" x="94.5" y="-866" font-family="Helvetica,sans-Serif" font-size="10.00" fill="white">1x2048</text>
</g>
<!-- layer0_softmax_exp&#45;&gt;layer0_softmax_sum -->
<g id="edge8" class="edge">
<title>layer0_softmax_exp&#45;&gt;layer0_softmax_sum</title>
<path fill="none" stroke="#555555" d="M88.44,-965.95C89.47,-950.44 90.76,-931.13 91.88,-914.3"/>
<polygon fill="#555555" stroke="#555555" points="95.38,-914.41 92.55,-904.2 88.4,-913.94 95.38,-914.41"/>
<text text-anchor="middle" x="122.5" y="-937.6" font-family="Helvetica,sans-Serif" font-size="8.00">scores_exp</text>
<text text-anchor="middle" x="122.5" y="-928.6" font-family="Helvetica,sans-Serif" font-size="8.00">[1x64x1x2048]</text>
</g>
<!-- layer0_softmax_div -->
<g id="node11" class="node">
<title>layer0_softmax_div</title>
<path fill="#d4832c" stroke="black" stroke-width="1.5" d="M170.16,-782C170.16,-782 67.44,-782 67.44,-782 61.44,-782 52.57,-776.73 49.71,-771.46 49.71,-771.46 28.57,-732.54 28.57,-732.54 25.7,-727.27 28.84,-722 34.84,-722 34.84,-722 137.56,-722 137.56,-722 143.56,-722 152.43,-727.27 155.29,-732.54 155.29,-732.54 176.43,-771.46 176.43,-771.46 179.3,-776.73 176.16,-782 170.16,-782"/>
<text text-anchor="middle" x="102.5" y="-755" font-family="Helvetica,sans-Serif" font-size="10.00" fill="white">softmax_div</text>
<text text-anchor="middle" x="102.5" y="-744" font-family="Helvetica,sans-Serif" font-size="10.00" fill="white">1x2048</text>
</g>
<!-- layer0_softmax_sum&#45;&gt;layer0_softmax_div -->
<g id="edge9" class="edge">
<title>layer0_softmax_sum&#45;&gt;layer0_softmax_div</title>
<path fill="none" stroke="#555555" d="M96.44,-843.95C97.47,-828.44 98.76,-809.13 99.88,-792.3"/>
<polygon fill="#555555" stroke="#555555" points="103.38,-792.41 100.55,-782.2 96.4,-791.94 103.38,-792.41"/>
<text text-anchor="middle" x="130.5" y="-815.6" font-family="Helvetica,sans-Serif" font-size="8.00">scores_sum</text>
<text text-anchor="middle" x="130.5" y="-806.6" font-family="Helvetica,sans-Serif" font-size="8.00">[1x64x1x2048]</text>
</g>
<!-- layer0_softmax_div&#45;&gt;layer0_attn_v -->
<g id="edge10" class="edge">
<title>layer0_softmax_div&#45;&gt;layer0_attn_v</title>
<path fill="none" stroke="#555555" d="M116.59,-721.81C123.64,-708.84 132.93,-693.86 143.5,-682 158.25,-665.45 177.81,-650.25 194.34,-638.83"/>
<polygon fill="#555555" stroke="#555555" points="196.34,-641.7 202.67,-633.21 192.42,-635.9 196.34,-641.7"/>
<text text-anchor="middle" x="174.5" y="-693.6" font-family="Helvetica,sans-Serif" font-size="8.00">attn_weights</text>
<text text-anchor="middle" x="174.5" y="-684.6" font-family="Helvetica,sans-Serif" font-size="8.00">[1x64x1x2048]</text>
</g>
<!-- layer0_o_proj -->
<g id="node13" class="node">
<title>layer0_o_proj</title>
<path fill="#4a90d9" stroke="black" stroke-width="1.5" d="M279,-512C279,-512 232,-512 232,-512 226,-512 220,-506 220,-500 220,-500 220,-488 220,-488 220,-482 226,-476 232,-476 232,-476 279,-476 279,-476 285,-476 291,-482 291,-488 291,-488 291,-500 291,-500 291,-506 285,-512 279,-512"/>
<text text-anchor="middle" x="255.5" y="-497" font-family="Helvetica,sans-Serif" font-size="10.00" fill="white">o_proj</text>
<text text-anchor="middle" x="255.5" y="-486" font-family="Helvetica,sans-Serif" font-size="10.00" fill="white">8192x8192</text>
</g>
<!-- layer0_attn_v&#45;&gt;layer0_o_proj -->
<g id="edge12" class="edge">
<title>layer0_attn_v&#45;&gt;layer0_o_proj</title>
<path fill="none" stroke="#555555" d="M233.44,-590.34C238.09,-570.25 244.53,-542.4 249.26,-521.98"/>
<polygon fill="#555555" stroke="#555555" points="252.71,-522.6 251.55,-512.06 245.89,-521.02 252.71,-522.6"/>
<text text-anchor="middle" x="270.5" y="-545.6" font-family="Helvetica,sans-Serif" font-size="8.00">attn_output</text>
<text text-anchor="middle" x="270.5" y="-536.6" font-family="Helvetica,sans-Serif" font-size="8.00">[1x1x8192]</text>
</g>
<!-- layer0_o_proj&#45;&gt;layer0_attn_residual_add -->
<g id="edge13" class="edge">
<title>layer0_o_proj&#45;&gt;layer0_attn_residual_add</title>
<path fill="none" stroke="#555555" d="M256.23,-475.95C257.33,-464.15 260.01,-448.42 266.5,-436 271.77,-425.91 280.5,-416.68 288.25,-409.74"/>
<polygon fill="#555555" stroke="#555555" points="290.67,-412.28 296.09,-403.17 286.18,-406.91 290.67,-412.28"/>
<text text-anchor="middle" x="294.5" y="-447.6" font-family="Helvetica,sans-Serif" font-size="8.00">o_proj_output</text>
<text text-anchor="middle" x="294.5" y="-438.6" font-family="Helvetica,sans-Serif" font-size="8.00">[1x1x8192]</text>
</g>
<!-- layer0_attn_residual_add&#45;&gt;layer0_gate_proj -->
<g id="edge15" class="edge">
<title>layer0_attn_residual_add&#45;&gt;layer0_gate_proj</title>
<path fill="none" stroke="#555555" d="M295.67,-389.44C284.62,-382.29 265.34,-369.24 250.5,-356 239.43,-346.12 228.2,-334.12 219.03,-323.69"/>
<polygon fill="#555555" stroke="#555555" points="221.64,-321.35 212.45,-316.07 216.34,-325.92 221.64,-321.35"/>
<text text-anchor="middle" x="274" y="-349.6" font-family="Helvetica,sans-Serif" font-size="8.00">post_attn</text>
<text text-anchor="middle" x="274" y="-340.6" font-family="Helvetica,sans-Serif" font-size="8.00">[1x1x8192]</text>
</g>
<!-- layer0_attn_residual_add&#45;&gt;layer0_up_proj -->
<g id="edge16" class="edge">
<title>layer0_attn_residual_add&#45;&gt;layer0_up_proj</title>
<path fill="none" stroke="#555555" d="M304.5,-384.73C304.5,-370.93 304.5,-345.91 304.5,-326.44"/>
<polygon fill="#555555" stroke="#555555" points="308,-326.31 304.5,-316.31 301,-326.31 308,-326.31"/>
<text text-anchor="middle" x="328" y="-349.6" font-family="Helvetica,sans-Serif" font-size="8.00">post_attn</text>
<text text-anchor="middle" x="328" y="-340.6" font-family="Helvetica,sans-Serif" font-size="8.00">[1x1x8192]</text>
</g>
<!-- layer0_mlp_residual_add -->
<g id="node16" class="node">
<title>layer0_mlp_residual_add</title>
<ellipse fill="#e85454" stroke="black" stroke-width="1.5" cx="344.5" cy="-109" rx="11" ry="11"/>
<text text-anchor="middle" x="344.5" y="-105.3" font-family="Helvetica,sans-Serif" font-size="14.00">+</text>
</g>
<!-- layer0_attn_residual_add&#45;&gt;layer0_mlp_residual_add -->
<g id="edge20" class="edge">
<title>layer0_attn_residual_add&#45;&gt;layer0_mlp_residual_add</title>
<path fill="none" stroke="#e85454" stroke-width="2" stroke-dasharray="5,2" d="M314.61,-391C327.39,-385.34 348.89,-373.68 358.5,-356 400.18,-279.38 366.28,-247.2 368.5,-160 368.7,-152 371.03,-149.59 368.5,-142 366.42,-135.75 362.59,-129.74 358.59,-124.65"/>
<polygon fill="#e85454" stroke="#e85454" stroke-width="2" points="361.19,-122.31 351.98,-117.07 355.91,-126.91 361.19,-122.31"/>
<text text-anchor="middle" x="402" y="-251.6" font-family="Helvetica,sans-Serif" font-size="8.00">residual</text>
<text text-anchor="middle" x="402" y="-242.6" font-family="Helvetica,sans-Serif" font-size="8.00">[1x1x8192]</text>
</g>
<!-- layer0_down_proj&#45;&gt;layer0_mlp_residual_add -->
<g id="edge19" class="edge">
<title>layer0_down_proj&#45;&gt;layer0_mlp_residual_add</title>
<path fill="none" stroke="#555555" d="M297.63,-181.87C295.86,-170.04 295.33,-154.29 301.5,-142 306.58,-131.88 316.55,-124.15 325.62,-118.82"/>
<polygon fill="#555555" stroke="#555555" points="327.27,-121.91 334.49,-114.14 324.01,-115.71 327.27,-121.91"/>
<text text-anchor="middle" x="333.5" y="-153.6" font-family="Helvetica,sans-Serif" font-size="8.00">down_proj_ou...</text>
<text text-anchor="middle" x="333.5" y="-144.6" font-family="Helvetica,sans-Serif" font-size="8.00">[1x1x8192]</text>
</g>
<!-- lm_head -->
<g id="node17" class="node">
<title>lm_head</title>
<path fill="#4a90d9" stroke="black" stroke-width="1.5" d="M306,-36C306,-36 247,-36 247,-36 241,-36 235,-30 235,-24 235,-24 235,-12 235,-12 235,-6 241,0 247,0 247,0 306,0 306,0 312,0 318,-6 318,-12 318,-12 318,-24 318,-24 318,-30 312,-36 306,-36"/>
<text text-anchor="middle" x="276.5" y="-21" font-family="Helvetica,sans-Serif" font-size="10.00" fill="white">lm_head</text>
<text text-anchor="middle" x="276.5" y="-10" font-family="Helvetica,sans-Serif" font-size="10.00" fill="white">8192x128256</text>
</g>
<!-- layer0_mlp_residual_add&#45;&gt;lm_head -->
<g id="edge21" class="edge">
<title>layer0_mlp_residual_add&#45;&gt;lm_head</title>
<path fill="none" stroke="#555555" d="M338.22,-99.79C328.7,-87.32 310.2,-63.11 295.93,-44.42"/>
<polygon fill="#555555" stroke="#555555" points="298.56,-42.11 289.71,-36.29 293,-46.36 298.56,-42.11"/>
<text text-anchor="middle" x="345" y="-69.6" font-family="Helvetica,sans-Serif" font-size="8.00">final_hidden</text>
<text text-anchor="middle" x="345" y="-60.6" font-family="Helvetica,sans-Serif" font-size="8.00">[1x1x8192]</text>
</g>
<!-- repeat_note -->
<g id="node18" class="node">
<title>repeat_note</title>
<polygon fill="#ffffcc" stroke="black" stroke-width="1.5" points="472,-36 347,-36 347,0 478,0 478,-30 472,-36"/>
<polyline fill="none" stroke="black" stroke-width="1.5" points="472,-36 472,-30 "/>
<polyline fill="none" stroke="black" stroke-width="1.5" points="478,-30 472,-30 "/>
<text text-anchor="middle" x="412.5" y="-15.2" font-family="Helvetica,sans-Serif" font-size="11.00" fill="#666666">Repeated x80 layers</text>
</g>
<!-- layer0_mlp_residual_add&#45;&gt;repeat_note -->
<g id="edge22" class="edge">
<title>layer0_mlp_residual_add&#45;&gt;repeat_note</title>
<path fill="none" stroke="#999999" stroke-dasharray="1,5" d="M352.66,-101.13C359.7,-94.97 369.91,-85.46 377.5,-76 387.52,-63.5 396.91,-47.91 403.44,-36.2"/>
</g>
<!-- leg_linear -->
<g id="node19" class="node">
<title>leg_linear</title>
<path fill="#4a90d9" stroke="black" stroke-width="1.5" d="M522.5,-1448C522.5,-1448 448.5,-1448 448.5,-1448 445.5,-1448 442.5,-1445 442.5,-1442 442.5,-1442 442.5,-1436 442.5,-1436 442.5,-1433 445.5,-1430 448.5,-1430 448.5,-1430 522.5,-1430 522.5,-1430 525.5,-1430 528.5,-1433 528.5,-1436 528.5,-1436 528.5,-1442 528.5,-1442 528.5,-1445 525.5,-1448 522.5,-1448"/>
<text text-anchor="middle" x="485.5" y="-1436.8" font-family="Helvetica,sans-Serif" font-size="9.00" fill="white">linear</text>
</g>
<!-- leg_attn_qk -->
<g id="node20" class="node">
<title>leg_attn_qk</title>
<path fill="#e8963e" stroke="black" stroke-width="1.5" d="M474.21,-1363.94C474.21,-1363.94 446.79,-1354.06 446.79,-1354.06 441.15,-1352.03 441.15,-1347.97 446.79,-1345.94 446.79,-1345.94 474.21,-1336.06 474.21,-1336.06 479.85,-1334.03 491.15,-1334.03 496.79,-1336.06 496.79,-1336.06 524.21,-1345.94 524.21,-1345.94 529.85,-1347.97 529.85,-1352.03 524.21,-1354.06 524.21,-1354.06 496.79,-1363.94 496.79,-1363.94 491.15,-1365.97 479.85,-1365.97 474.21,-1363.94"/>
<text text-anchor="middle" x="485.5" y="-1347.8" font-family="Helvetica,sans-Serif" font-size="9.00" fill="white">attn qk</text>
</g>
<!-- leg_linear&#45;&gt;leg_attn_qk -->
<!-- leg_softmax_max -->
<g id="node21" class="node">
<title>leg_softmax_max</title>
<path fill="#f5c842" stroke="black" stroke-width="1.5" d="M551.01,-1258C551.01,-1258 451.71,-1258 451.71,-1258 445.71,-1258 435.74,-1253.5 431.77,-1249 431.77,-1249 415.92,-1231 415.92,-1231 411.95,-1226.5 413.99,-1222 419.99,-1222 419.99,-1222 519.29,-1222 519.29,-1222 525.29,-1222 535.26,-1226.5 539.23,-1231 539.23,-1231 555.08,-1249 555.08,-1249 559.05,-1253.5 557.01,-1258 551.01,-1258"/>
<text text-anchor="middle" x="485.5" y="-1237.8" font-family="Helvetica,sans-Serif" font-size="9.00" fill="white">softmax max</text>
</g>
<!-- leg_attn_qk&#45;&gt;leg_softmax_max -->
<!-- leg_softmax_exp -->
<g id="node22" class="node">
<title>leg_softmax_exp</title>
<path fill="#f0b429" stroke="black" stroke-width="1.5" d="M548.29,-1136C548.29,-1136 453.31,-1136 453.31,-1136 447.31,-1136 437.43,-1131.43 433.54,-1126.86 433.54,-1126.86 418.48,-1109.14 418.48,-1109.14 414.59,-1104.57 416.71,-1100 422.71,-1100 422.71,-1100 517.69,-1100 517.69,-1100 523.69,-1100 533.57,-1104.57 537.46,-1109.14 537.46,-1109.14 552.52,-1126.86 552.52,-1126.86 556.41,-1131.43 554.29,-1136 548.29,-1136"/>
<text text-anchor="middle" x="485.5" y="-1115.8" font-family="Helvetica,sans-Serif" font-size="9.00" fill="white">softmax exp</text>
</g>
<!-- leg_softmax_max&#45;&gt;leg_softmax_exp -->
<!-- leg_softmax_sum -->
<g id="node23" class="node">
<title>leg_softmax_sum</title>
<path fill="#e8963e" stroke="black" stroke-width="1.5" d="M551.01,-1014C551.01,-1014 451.71,-1014 451.71,-1014 445.71,-1014 435.74,-1009.5 431.77,-1005 431.77,-1005 415.92,-987 415.92,-987 411.95,-982.5 413.99,-978 419.99,-978 419.99,-978 519.29,-978 519.29,-978 525.29,-978 535.26,-982.5 539.23,-987 539.23,-987 555.08,-1005 555.08,-1005 559.05,-1009.5 557.01,-1014 551.01,-1014"/>
<text text-anchor="middle" x="485.5" y="-993.8" font-family="Helvetica,sans-Serif" font-size="9.00" fill="white">softmax sum</text>
</g>
<!-- leg_softmax_exp&#45;&gt;leg_softmax_sum -->
<!-- leg_softmax_div -->
<g id="node24" class="node">
<title>leg_softmax_div</title>
<path fill="#d4832c" stroke="black" stroke-width="1.5" d="M545.07,-892C545.07,-892 455.22,-892 455.22,-892 449.22,-892 439.43,-887.35 435.64,-882.69 435.64,-882.69 421.5,-865.31 421.5,-865.31 417.71,-860.65 419.93,-856 425.93,-856 425.93,-856 515.78,-856 515.78,-856 521.78,-856 531.57,-860.65 535.36,-865.31 535.36,-865.31 549.5,-882.69 549.5,-882.69 553.29,-887.35 551.07,-892 545.07,-892"/>
<text text-anchor="middle" x="485.5" y="-871.8" font-family="Helvetica,sans-Serif" font-size="9.00" fill="white">softmax div</text>
</g>
<!-- leg_softmax_sum&#45;&gt;leg_softmax_div -->
<!-- leg_attn_v -->
<g id="node25" class="node">
<title>leg_attn_v</title>
<path fill="#d4722c" stroke="black" stroke-width="1.5" d="M474.39,-765.46C474.39,-765.46 452.61,-756.54 452.61,-756.54 447.05,-754.27 447.05,-749.73 452.61,-747.46 452.61,-747.46 474.39,-738.54 474.39,-738.54 479.95,-736.27 491.05,-736.27 496.61,-738.54 496.61,-738.54 518.39,-747.46 518.39,-747.46 523.95,-749.73 523.95,-754.27 518.39,-756.54 518.39,-756.54 496.61,-765.46 496.61,-765.46 491.05,-767.73 479.95,-767.73 474.39,-765.46"/>
<text text-anchor="middle" x="485.5" y="-749.8" font-family="Helvetica,sans-Serif" font-size="9.00" fill="white">attn v</text>
</g>
<!-- leg_softmax_div&#45;&gt;leg_attn_v -->
<!-- leg_residual_add -->
<g id="node26" class="node">
<title>leg_residual_add</title>
<ellipse fill="#e85454" stroke="black" stroke-width="1.5" cx="485.5" cy="-617" rx="43" ry="43"/>
<text text-anchor="middle" x="485.5" y="-614.8" font-family="Helvetica,sans-Serif" font-size="9.00" fill="white">residual add</text>
</g>
<!-- leg_attn_v&#45;&gt;leg_residual_add -->
<!-- leg_skip_src -->
<g id="node27" class="node">
<title>leg_skip_src</title>
<ellipse fill="black" stroke="black" stroke-width="1.5" cx="485.5" cy="-494" rx="3.6" ry="3.6"/>
</g>
<!-- leg_residual_add&#45;&gt;leg_skip_src -->
<!-- leg_skip_dst -->
<g id="node28" class="node">
<title>leg_skip_dst</title>
<path fill="lightgrey" stroke="transparent" stroke-width="1.5" d="M505,-414C505,-414 466,-414 466,-414 460,-414 454,-408 454,-402 454,-402 454,-390 454,-390 454,-384 460,-378 466,-378 466,-378 505,-378 505,-378 511,-378 517,-384 517,-390 517,-390 517,-402 517,-402 517,-408 511,-414 505,-414"/>
<text text-anchor="middle" x="485.5" y="-393.8" font-family="Helvetica,sans-Serif" font-size="9.00">skip conn.</text>
</g>
<!-- leg_skip_src&#45;&gt;leg_skip_dst -->
<g id="edge30" class="edge">
<title>leg_skip_src&#45;&gt;leg_skip_dst</title>
<path fill="none" stroke="#e85454" stroke-width="2" stroke-dasharray="5,2" d="M485.5,-490.23C485.5,-480.69 485.5,-448.44 485.5,-424.53"/>
<polygon fill="#e85454" stroke="#e85454" stroke-width="2" points="489,-424.24 485.5,-414.24 482,-424.24 489,-424.24"/>
</g>
</g>
</svg>
