<?xml version="1.0" encoding="UTF-8" standalone="no"?>
<!DOCTYPE svg PUBLIC "-//W3C//DTD SVG 1.1//EN"
 "http://www.w3.org/Graphics/SVG/1.1/DTD/svg11.dtd">
<!-- Generated by graphviz version 2.43.0 (0)
 -->
<!-- Title: G Pages: 1 -->
<svg width="345pt" height="5382pt"
 viewBox="0.00 0.00 344.50 5382.11" xmlns="http://www.w3.org/2000/svg" xmlns:xlink="http://www.w3.org/1999/xlink">
<g id="graph0" class="graph" transform="scale(1 1) rotate(0) translate(4 5378.11)">
<title>G</title>
<polygon fill="white" stroke="transparent" points="-4,4 -4,-5378.11 340.5,-5378.11 340.5,4 -4,4"/>
<text text-anchor="middle" x="168.25" y="-5357.31" font-family="Helvetica,sans-Serif" font-size="16.00">mobilenet_v3_small_1</text>
<g id="clust1" class="cluster">
<title>cluster_legend</title>
<path fill="#f8f8f8" stroke="#cccccc" d="M224.5,-4615C224.5,-4615 316.5,-4615 316.5,-4615 322.5,-4615 328.5,-4621 328.5,-4627 328.5,-4627 328.5,-5328.11 328.5,-5328.11 328.5,-5334.11 322.5,-5340.11 316.5,-5340.11 316.5,-5340.11 224.5,-5340.11 224.5,-5340.11 218.5,-5340.11 212.5,-5334.11 212.5,-5328.11 212.5,-5328.11 212.5,-4627 212.5,-4627 212.5,-4621 218.5,-4615 224.5,-4615"/>
<text text-anchor="middle" x="270.5" y="-5327.31" font-family="Helvetica,sans-Serif" font-size="11.00">Legend</text>
</g>
<!-- stem_conv -->
<g id="node1" class="node">
<title>stem_conv</title>
<path fill="#50b86c" stroke="black" stroke-width="1.5" d="M153.5,-5321.11C153.5,-5321.11 107.5,-5321.11 107.5,-5321.11 101.5,-5321.11 95.5,-5315.11 95.5,-5309.11 95.5,-5309.11 95.5,-5297.11 95.5,-5297.11 95.5,-5291.11 101.5,-5285.11 107.5,-5285.11 107.5,-5285.11 153.5,-5285.11 153.5,-5285.11 159.5,-5285.11 165.5,-5291.11 165.5,-5297.11 165.5,-5297.11 165.5,-5309.11 165.5,-5309.11 165.5,-5315.11 159.5,-5321.11 153.5,-5321.11"/>
<text text-anchor="middle" x="130.5" y="-5300.61" font-family="Helvetica,sans-Serif" font-size="10.00" fill="white">stem_conv</text>
</g>
<!-- block0_depthwise -->
<g id="node2" class="node">
<title>block0_depthwise</title>
<path fill="#2d8a4e" stroke="black" stroke-width="1.5" d="M157.5,-5242.11C157.5,-5242.11 103.5,-5242.11 103.5,-5242.11 97.5,-5242.11 91.5,-5236.11 91.5,-5230.11 91.5,-5230.11 91.5,-5218.11 91.5,-5218.11 91.5,-5212.11 97.5,-5206.11 103.5,-5206.11 103.5,-5206.11 157.5,-5206.11 157.5,-5206.11 163.5,-5206.11 169.5,-5212.11 169.5,-5218.11 169.5,-5218.11 169.5,-5230.11 169.5,-5230.11 169.5,-5236.11 163.5,-5242.11 157.5,-5242.11"/>
<text text-anchor="middle" x="130.5" y="-5221.61" font-family="Helvetica,sans-Serif" font-size="10.00" fill="white">0_depthwise</text>
</g>
<!-- stem_conv&#45;&gt;block0_depthwise -->
<g id="edge1" class="edge">
<title>stem_conv&#45;&gt;block0_depthwise</title>
<path fill="none" stroke="#555555" d="M130.5,-5285.02C130.5,-5275.45 130.5,-5263.29 130.5,-5252.43"/>
<polygon fill="#555555" stroke="#555555" points="134,-5252.15 130.5,-5242.15 127,-5252.15 134,-5252.15"/>
</g>
<!-- block0_se_fc1 -->
<g id="node3" class="node">
<title>block0_se_fc1</title>
<path fill="#7bc67b" stroke="black" stroke-width="1.5" d="M120,-5163.11C120,-5163.11 85,-5163.11 85,-5163.11 79,-5163.11 73,-5157.11 73,-5151.11 73,-5151.11 73,-5139.11 73,-5139.11 73,-5133.11 79,-5127.11 85,-5127.11 85,-5127.11 120,-5127.11 120,-5127.11 126,-5127.11 132,-5133.11 132,-5139.11 132,-5139.11 132,-5151.11 132,-5151.11 132,-5157.11 126,-5163.11 120,-5163.11"/>
<text text-anchor="middle" x="102.5" y="-5142.61" font-family="Helvetica,sans-Serif" font-size="10.00" fill="white">0_se_fc1</text>
</g>
<!-- block0_depthwise&#45;&gt;block0_se_fc1 -->
<g id="edge2" class="edge">
<title>block0_depthwise&#45;&gt;block0_se_fc1</title>
<path fill="none" stroke="#555555" d="M124.29,-5206.02C120.73,-5196.25 116.2,-5183.78 112.19,-5172.75"/>
<polygon fill="#555555" stroke="#555555" points="115.4,-5171.35 108.7,-5163.15 108.82,-5173.74 115.4,-5171.35"/>
</g>
<!-- block0_se_mul -->
<g id="node5" class="node">
<title>block0_se_mul</title>
<ellipse fill="#c75050" stroke="black" stroke-width="1.5" cx="132.5" cy="-4962.11" rx="11" ry="11"/>
<text text-anchor="middle" x="132.5" y="-4958.41" font-family="Helvetica,sans-Serif" font-size="14.00">0_se_mul</text>
</g>
<!-- block0_depthwise&#45;&gt;block0_se_mul -->
<g id="edge4" class="edge">
<title>block0_depthwise&#45;&gt;block0_se_mul</title>
<path fill="none" stroke="#555555" d="M136.33,-5206.02C140.07,-5194.14 144.57,-5177.86 146.5,-5163.11 153.14,-5112.43 150.67,-5099.05 146.5,-5048.11 144.66,-5025.61 140.12,-5000.09 136.71,-4982.94"/>
<polygon fill="#555555" stroke="#555555" points="140.11,-4982.08 134.67,-4972.99 133.25,-4983.49 140.11,-4982.08"/>
</g>
<!-- block0_se_fc2 -->
<g id="node4" class="node">
<title>block0_se_fc2</title>
<path fill="#7bc67b" stroke="black" stroke-width="1.5" d="M120,-5084.11C120,-5084.11 85,-5084.11 85,-5084.11 79,-5084.11 73,-5078.11 73,-5072.11 73,-5072.11 73,-5060.11 73,-5060.11 73,-5054.11 79,-5048.11 85,-5048.11 85,-5048.11 120,-5048.11 120,-5048.11 126,-5048.11 132,-5054.11 132,-5060.11 132,-5060.11 132,-5072.11 132,-5072.11 132,-5078.11 126,-5084.11 120,-5084.11"/>
<text text-anchor="middle" x="102.5" y="-5063.61" font-family="Helvetica,sans-Serif" font-size="10.00" fill="white">0_se_fc2</text>
</g>
<!-- block0_se_fc1&#45;&gt;block0_se_fc2 -->
<g id="edge3" class="edge">
<title>block0_se_fc1&#45;&gt;block0_se_fc2</title>
<path fill="none" stroke="#555555" d="M102.5,-5127.02C102.5,-5117.45 102.5,-5105.29 102.5,-5094.43"/>
<polygon fill="#555555" stroke="#555555" points="106,-5094.15 102.5,-5084.15 99,-5094.15 106,-5094.15"/>
</g>
<!-- block0_se_fc2&#45;&gt;block0_se_mul -->
<g id="edge5" class="edge">
<title>block0_se_fc2&#45;&gt;block0_se_mul</title>
<path fill="none" stroke="#555555" d="M107.59,-5047.8C112.92,-5029.66 121.29,-5001.23 126.83,-4982.38"/>
<polygon fill="#555555" stroke="#555555" points="130.19,-4983.37 129.65,-4972.79 123.47,-4981.39 130.19,-4983.37"/>
</g>
<!-- block0_project -->
<g id="node6" class="node">
<title>block0_project</title>
<path fill="#7bc67b" stroke="black" stroke-width="1.5" d="M151.5,-4846.55C151.5,-4846.55 113.5,-4846.55 113.5,-4846.55 107.5,-4846.55 101.5,-4840.55 101.5,-4834.55 101.5,-4834.55 101.5,-4822.55 101.5,-4822.55 101.5,-4816.55 107.5,-4810.55 113.5,-4810.55 113.5,-4810.55 151.5,-4810.55 151.5,-4810.55 157.5,-4810.55 163.5,-4816.55 163.5,-4822.55 163.5,-4822.55 163.5,-4834.55 163.5,-4834.55 163.5,-4840.55 157.5,-4846.55 151.5,-4846.55"/>
<text text-anchor="middle" x="132.5" y="-4826.05" font-family="Helvetica,sans-Serif" font-size="10.00" fill="white">0_project</text>
</g>
<!-- block0_se_mul&#45;&gt;block0_project -->
<g id="edge6" class="edge">
<title>block0_se_mul&#45;&gt;block0_project</title>
<path fill="none" stroke="#555555" d="M132.5,-4950.78C132.5,-4930.8 132.5,-4886.25 132.5,-4857.08"/>
<polygon fill="#555555" stroke="#555555" points="136,-4856.73 132.5,-4846.73 129,-4856.73 136,-4856.73"/>
</g>
<!-- block1_expand -->
<g id="node7" class="node">
<title>block1_expand</title>
<path fill="#7bc67b" stroke="black" stroke-width="1.5" d="M152.5,-4738C152.5,-4738 112.5,-4738 112.5,-4738 106.5,-4738 100.5,-4732 100.5,-4726 100.5,-4726 100.5,-4714 100.5,-4714 100.5,-4708 106.5,-4702 112.5,-4702 112.5,-4702 152.5,-4702 152.5,-4702 158.5,-4702 164.5,-4708 164.5,-4714 164.5,-4714 164.5,-4726 164.5,-4726 164.5,-4732 158.5,-4738 152.5,-4738"/>
<text text-anchor="middle" x="132.5" y="-4717.5" font-family="Helvetica,sans-Serif" font-size="10.00" fill="white">1_expand</text>
</g>
<!-- block0_project&#45;&gt;block1_expand -->
<g id="edge7" class="edge">
<title>block0_project&#45;&gt;block1_expand</title>
<path fill="none" stroke="#555555" d="M132.5,-4810.43C132.5,-4793.66 132.5,-4767.82 132.5,-4748.23"/>
<polygon fill="#555555" stroke="#555555" points="136,-4748.08 132.5,-4738.08 129,-4748.08 136,-4748.08"/>
</g>
<!-- block1_depthwise -->
<g id="node8" class="node">
<title>block1_depthwise</title>
<path fill="#2d8a4e" stroke="black" stroke-width="1.5" d="M159.5,-4659C159.5,-4659 105.5,-4659 105.5,-4659 99.5,-4659 93.5,-4653 93.5,-4647 93.5,-4647 93.5,-4635 93.5,-4635 93.5,-4629 99.5,-4623 105.5,-4623 105.5,-4623 159.5,-4623 159.5,-4623 165.5,-4623 171.5,-4629 171.5,-4635 171.5,-4635 171.5,-4647 171.5,-4647 171.5,-4653 165.5,-4659 159.5,-4659"/>
<text text-anchor="middle" x="132.5" y="-4638.5" font-family="Helvetica,sans-Serif" font-size="10.00" fill="white">1_depthwise</text>
</g>
<!-- block1_expand&#45;&gt;block1_depthwise -->
<g id="edge8" class="edge">
<title>block1_expand&#45;&gt;block1_depthwise</title>
<path fill="none" stroke="#555555" d="M132.5,-4701.91C132.5,-4692.34 132.5,-4680.18 132.5,-4669.32"/>
<polygon fill="#555555" stroke="#555555" points="136,-4669.04 132.5,-4659.04 129,-4669.04 136,-4669.04"/>
</g>
<!-- block1_project -->
<g id="node9" class="node">
<title>block1_project</title>
<path fill="#7bc67b" stroke="black" stroke-width="1.5" d="M151.5,-4580C151.5,-4580 113.5,-4580 113.5,-4580 107.5,-4580 101.5,-4574 101.5,-4568 101.5,-4568 101.5,-4556 101.5,-4556 101.5,-4550 107.5,-4544 113.5,-4544 113.5,-4544 151.5,-4544 151.5,-4544 157.5,-4544 163.5,-4550 163.5,-4556 163.5,-4556 163.5,-4568 163.5,-4568 163.5,-4574 157.5,-4580 151.5,-4580"/>
<text text-anchor="middle" x="132.5" y="-4559.5" font-family="Helvetica,sans-Serif" font-size="10.00" fill="white">1_project</text>
</g>
<!-- block1_depthwise&#45;&gt;block1_project -->
<g id="edge9" class="edge">
<title>block1_depthwise&#45;&gt;block1_project</title>
<path fill="none" stroke="#555555" d="M132.5,-4622.91C132.5,-4613.34 132.5,-4601.18 132.5,-4590.32"/>
<polygon fill="#555555" stroke="#555555" points="136,-4590.04 132.5,-4580.04 129,-4590.04 136,-4590.04"/>
</g>
<!-- block2_expand -->
<g id="node10" class="node">
<title>block2_expand</title>
<path fill="#7bc67b" stroke="black" stroke-width="1.5" d="M111.5,-4501C111.5,-4501 71.5,-4501 71.5,-4501 65.5,-4501 59.5,-4495 59.5,-4489 59.5,-4489 59.5,-4477 59.5,-4477 59.5,-4471 65.5,-4465 71.5,-4465 71.5,-4465 111.5,-4465 111.5,-4465 117.5,-4465 123.5,-4471 123.5,-4477 123.5,-4477 123.5,-4489 123.5,-4489 123.5,-4495 117.5,-4501 111.5,-4501"/>
<text text-anchor="middle" x="91.5" y="-4480.5" font-family="Helvetica,sans-Serif" font-size="10.00" fill="white">2_expand</text>
</g>
<!-- block1_project&#45;&gt;block2_expand -->
<g id="edge10" class="edge">
<title>block1_project&#45;&gt;block2_expand</title>
<path fill="none" stroke="#555555" d="M123.4,-4543.91C118.09,-4533.94 111.29,-4521.17 105.33,-4509.97"/>
<polygon fill="#555555" stroke="#555555" points="108.36,-4508.22 100.57,-4501.04 102.18,-4511.51 108.36,-4508.22"/>
</g>
<!-- block2_residual_add -->
<g id="node13" class="node">
<title>block2_residual_add</title>
<ellipse fill="#e85454" stroke="black" stroke-width="1.5" cx="131.5" cy="-4253" rx="11" ry="11"/>
<text text-anchor="middle" x="131.5" y="-4249.3" font-family="Helvetica,sans-Serif" font-size="14.00">2_residual_add</text>
</g>
<!-- block1_project&#45;&gt;block2_residual_add -->
<g id="edge14" class="edge">
<title>block1_project&#45;&gt;block2_residual_add</title>
<path fill="none" stroke="#e85454" stroke-width="2" stroke-dasharray="5,2" d="M134.07,-4543.94C135.14,-4531.94 136.53,-4515.5 137.5,-4501 143.26,-4414.97 144.53,-4392.93 137.5,-4307 136.61,-4296.14 135.27,-4284.06 134.08,-4274.18"/>
<polygon fill="#e85454" stroke="#e85454" stroke-width="2" points="137.54,-4273.64 132.84,-4264.14 130.6,-4274.5 137.54,-4273.64"/>
</g>
<!-- block2_depthwise -->
<g id="node11" class="node">
<title>block2_depthwise</title>
<path fill="#2d8a4e" stroke="black" stroke-width="1.5" d="M115.5,-4422C115.5,-4422 61.5,-4422 61.5,-4422 55.5,-4422 49.5,-4416 49.5,-4410 49.5,-4410 49.5,-4398 49.5,-4398 49.5,-4392 55.5,-4386 61.5,-4386 61.5,-4386 115.5,-4386 115.5,-4386 121.5,-4386 127.5,-4392 127.5,-4398 127.5,-4398 127.5,-4410 127.5,-4410 127.5,-4416 121.5,-4422 115.5,-4422"/>
<text text-anchor="middle" x="88.5" y="-4401.5" font-family="Helvetica,sans-Serif" font-size="10.00" fill="white">2_depthwise</text>
</g>
<!-- block2_expand&#45;&gt;block2_depthwise -->
<g id="edge11" class="edge">
<title>block2_expand&#45;&gt;block2_depthwise</title>
<path fill="none" stroke="#555555" d="M90.83,-4464.91C90.46,-4455.34 89.99,-4443.18 89.56,-4432.32"/>
<polygon fill="#555555" stroke="#555555" points="93.05,-4431.9 89.16,-4422.04 86.06,-4432.17 93.05,-4431.9"/>
</g>
<!-- block2_project -->
<g id="node12" class="node">
<title>block2_project</title>
<path fill="#7bc67b" stroke="black" stroke-width="1.5" d="M111.5,-4343C111.5,-4343 73.5,-4343 73.5,-4343 67.5,-4343 61.5,-4337 61.5,-4331 61.5,-4331 61.5,-4319 61.5,-4319 61.5,-4313 67.5,-4307 73.5,-4307 73.5,-4307 111.5,-4307 111.5,-4307 117.5,-4307 123.5,-4313 123.5,-4319 123.5,-4319 123.5,-4331 123.5,-4331 123.5,-4337 117.5,-4343 111.5,-4343"/>
<text text-anchor="middle" x="92.5" y="-4322.5" font-family="Helvetica,sans-Serif" font-size="10.00" fill="white">2_project</text>
</g>
<!-- block2_depthwise&#45;&gt;block2_project -->
<g id="edge12" class="edge">
<title>block2_depthwise&#45;&gt;block2_project</title>
<path fill="none" stroke="#555555" d="M89.39,-4385.91C89.88,-4376.34 90.52,-4364.18 91.08,-4353.32"/>
<polygon fill="#555555" stroke="#555555" points="94.59,-4353.21 91.61,-4343.04 87.6,-4352.85 94.59,-4353.21"/>
</g>
<!-- block2_project&#45;&gt;block2_residual_add -->
<g id="edge13" class="edge">
<title>block2_project&#45;&gt;block2_residual_add</title>
<path fill="none" stroke="#555555" d="M102.14,-4306.7C108.01,-4296.16 115.5,-4282.71 121.45,-4272.04"/>
<polygon fill="#555555" stroke="#555555" points="124.57,-4273.62 126.38,-4263.18 118.46,-4270.22 124.57,-4273.62"/>
</g>
<!-- block3_expand -->
<g id="node14" class="node">
<title>block3_expand</title>
<path fill="#7bc67b" stroke="black" stroke-width="1.5" d="M151.5,-4199C151.5,-4199 111.5,-4199 111.5,-4199 105.5,-4199 99.5,-4193 99.5,-4187 99.5,-4187 99.5,-4175 99.5,-4175 99.5,-4169 105.5,-4163 111.5,-4163 111.5,-4163 151.5,-4163 151.5,-4163 157.5,-4163 163.5,-4169 163.5,-4175 163.5,-4175 163.5,-4187 163.5,-4187 163.5,-4193 157.5,-4199 151.5,-4199"/>
<text text-anchor="middle" x="131.5" y="-4178.5" font-family="Helvetica,sans-Serif" font-size="10.00" fill="white">3_expand</text>
</g>
<!-- block2_residual_add&#45;&gt;block3_expand -->
<g id="edge15" class="edge">
<title>block2_residual_add&#45;&gt;block3_expand</title>
<path fill="none" stroke="#555555" d="M131.5,-4241.97C131.5,-4233.4 131.5,-4220.67 131.5,-4209.14"/>
<polygon fill="#555555" stroke="#555555" points="135,-4209.04 131.5,-4199.04 128,-4209.04 135,-4209.04"/>
</g>
<!-- block3_depthwise -->
<g id="node15" class="node">
<title>block3_depthwise</title>
<path fill="#2d8a4e" stroke="black" stroke-width="1.5" d="M158.5,-4120C158.5,-4120 104.5,-4120 104.5,-4120 98.5,-4120 92.5,-4114 92.5,-4108 92.5,-4108 92.5,-4096 92.5,-4096 92.5,-4090 98.5,-4084 104.5,-4084 104.5,-4084 158.5,-4084 158.5,-4084 164.5,-4084 170.5,-4090 170.5,-4096 170.5,-4096 170.5,-4108 170.5,-4108 170.5,-4114 164.5,-4120 158.5,-4120"/>
<text text-anchor="middle" x="131.5" y="-4099.5" font-family="Helvetica,sans-Serif" font-size="10.00" fill="white">3_depthwise</text>
</g>
<!-- block3_expand&#45;&gt;block3_depthwise -->
<g id="edge16" class="edge">
<title>block3_expand&#45;&gt;block3_depthwise</title>
<path fill="none" stroke="#555555" d="M131.5,-4162.91C131.5,-4153.34 131.5,-4141.18 131.5,-4130.32"/>
<polygon fill="#555555" stroke="#555555" points="135,-4130.04 131.5,-4120.04 128,-4130.04 135,-4130.04"/>
</g>
<!-- block3_se_fc1 -->
<g id="node16" class="node">
<title>block3_se_fc1</title>
<path fill="#7bc67b" stroke="black" stroke-width="1.5" d="M112,-4041C112,-4041 77,-4041 77,-4041 71,-4041 65,-4035 65,-4029 65,-4029 65,-4017 65,-4017 65,-4011 71,-4005 77,-4005 77,-4005 112,-4005 112,-4005 118,-4005 124,-4011 124,-4017 124,-4017 124,-4029 124,-4029 124,-4035 118,-4041 112,-4041"/>
<text text-anchor="middle" x="94.5" y="-4020.5" font-family="Helvetica,sans-Serif" font-size="10.00" fill="white">3_se_fc1</text>
</g>
<!-- block3_depthwise&#45;&gt;block3_se_fc1 -->
<g id="edge17" class="edge">
<title>block3_depthwise&#45;&gt;block3_se_fc1</title>
<path fill="none" stroke="#555555" d="M123.29,-4083.91C118.55,-4074.04 112.48,-4061.42 107.14,-4050.31"/>
<polygon fill="#555555" stroke="#555555" points="110.17,-4048.54 102.69,-4041.04 103.87,-4051.57 110.17,-4048.54"/>
</g>
<!-- block3_se_mul -->
<g id="node18" class="node">
<title>block3_se_mul</title>
<ellipse fill="#c75050" stroke="black" stroke-width="1.5" cx="131.5" cy="-3872" rx="11" ry="11"/>
<text text-anchor="middle" x="131.5" y="-3868.3" font-family="Helvetica,sans-Serif" font-size="14.00">3_se_mul</text>
</g>
<!-- block3_depthwise&#45;&gt;block3_se_mul -->
<g id="edge19" class="edge">
<title>block3_depthwise&#45;&gt;block3_se_mul</title>
<path fill="none" stroke="#555555" d="M134.02,-4083.98C135.66,-4071.99 137.65,-4055.55 138.5,-4041 141.47,-3989.98 141.85,-3977 138.5,-3926 137.78,-3915.1 136.25,-3903.02 134.79,-3893.15"/>
<polygon fill="#555555" stroke="#555555" points="138.23,-3892.47 133.24,-3883.12 131.31,-3893.54 138.23,-3892.47"/>
</g>
<!-- block3_se_fc2 -->
<g id="node17" class="node">
<title>block3_se_fc2</title>
<path fill="#7bc67b" stroke="black" stroke-width="1.5" d="M112,-3962C112,-3962 77,-3962 77,-3962 71,-3962 65,-3956 65,-3950 65,-3950 65,-3938 65,-3938 65,-3932 71,-3926 77,-3926 77,-3926 112,-3926 112,-3926 118,-3926 124,-3932 124,-3938 124,-3938 124,-3950 124,-3950 124,-3956 118,-3962 112,-3962"/>
<text text-anchor="middle" x="94.5" y="-3941.5" font-family="Helvetica,sans-Serif" font-size="10.00" fill="white">3_se_fc2</text>
</g>
<!-- block3_se_fc1&#45;&gt;block3_se_fc2 -->
<g id="edge18" class="edge">
<title>block3_se_fc1&#45;&gt;block3_se_fc2</title>
<path fill="none" stroke="#555555" d="M94.5,-4004.91C94.5,-3995.34 94.5,-3983.18 94.5,-3972.32"/>
<polygon fill="#555555" stroke="#555555" points="98,-3972.04 94.5,-3962.04 91,-3972.04 98,-3972.04"/>
</g>
<!-- block3_se_fc2&#45;&gt;block3_se_mul -->
<g id="edge20" class="edge">
<title>block3_se_fc2&#45;&gt;block3_se_mul</title>
<path fill="none" stroke="#555555" d="M103.65,-3925.7C109.22,-3915.16 116.32,-3901.71 121.96,-3891.04"/>
<polygon fill="#555555" stroke="#555555" points="125.07,-3892.66 126.65,-3882.18 118.88,-3889.39 125.07,-3892.66"/>
</g>
<!-- block3_project -->
<g id="node19" class="node">
<title>block3_project</title>
<path fill="#7bc67b" stroke="black" stroke-width="1.5" d="M150.5,-3818C150.5,-3818 112.5,-3818 112.5,-3818 106.5,-3818 100.5,-3812 100.5,-3806 100.5,-3806 100.5,-3794 100.5,-3794 100.5,-3788 106.5,-3782 112.5,-3782 112.5,-3782 150.5,-3782 150.5,-3782 156.5,-3782 162.5,-3788 162.5,-3794 162.5,-3794 162.5,-3806 162.5,-3806 162.5,-3812 156.5,-3818 150.5,-3818"/>
<text text-anchor="middle" x="131.5" y="-3797.5" font-family="Helvetica,sans-Serif" font-size="10.00" fill="white">3_project</text>
</g>
<!-- block3_se_mul&#45;&gt;block3_project -->
<g id="edge21" class="edge">
<title>block3_se_mul&#45;&gt;block3_project</title>
<path fill="none" stroke="#555555" d="M131.5,-3860.97C131.5,-3852.4 131.5,-3839.67 131.5,-3828.14"/>
<polygon fill="#555555" stroke="#555555" points="135,-3828.04 131.5,-3818.04 128,-3828.04 135,-3828.04"/>
</g>
<!-- block4_expand -->
<g id="node20" class="node">
<title>block4_expand</title>
<path fill="#7bc67b" stroke="black" stroke-width="1.5" d="M110.5,-3739C110.5,-3739 70.5,-3739 70.5,-3739 64.5,-3739 58.5,-3733 58.5,-3727 58.5,-3727 58.5,-3715 58.5,-3715 58.5,-3709 64.5,-3703 70.5,-3703 70.5,-3703 110.5,-3703 110.5,-3703 116.5,-3703 122.5,-3709 122.5,-3715 122.5,-3715 122.5,-3727 122.5,-3727 122.5,-3733 116.5,-3739 110.5,-3739"/>
<text text-anchor="middle" x="90.5" y="-3718.5" font-family="Helvetica,sans-Serif" font-size="10.00" fill="white">4_expand</text>
</g>
<!-- block3_project&#45;&gt;block4_expand -->
<g id="edge22" class="edge">
<title>block3_project&#45;&gt;block4_expand</title>
<path fill="none" stroke="#555555" d="M122.4,-3781.91C117.09,-3771.94 110.29,-3759.17 104.33,-3747.97"/>
<polygon fill="#555555" stroke="#555555" points="107.36,-3746.22 99.57,-3739.04 101.18,-3749.51 107.36,-3746.22"/>
</g>
<!-- block4_residual_add -->
<g id="node26" class="node">
<title>block4_residual_add</title>
<ellipse fill="#e85454" stroke="black" stroke-width="1.5" cx="132.5" cy="-3268" rx="11" ry="11"/>
<text text-anchor="middle" x="132.5" y="-3264.3" font-family="Helvetica,sans-Serif" font-size="14.00">4_residual_add</text>
</g>
<!-- block3_project&#45;&gt;block4_residual_add -->
<g id="edge30" class="edge">
<title>block3_project&#45;&gt;block4_residual_add</title>
<path fill="none" stroke="#e85454" stroke-width="2" stroke-dasharray="5,2" d="M138.84,-3781.58C150.13,-3753.12 170.5,-3694.65 170.5,-3643 170.5,-3643 170.5,-3643 170.5,-3411 170.5,-3365.49 152.06,-3314.48 140.87,-3287.72"/>
<polygon fill="#e85454" stroke="#e85454" stroke-width="2" points="144.03,-3286.21 136.86,-3278.41 137.6,-3288.98 144.03,-3286.21"/>
</g>
<!-- block4_depthwise -->
<g id="node21" class="node">
<title>block4_depthwise</title>
<path fill="#2d8a4e" stroke="black" stroke-width="1.5" d="M114.5,-3660C114.5,-3660 60.5,-3660 60.5,-3660 54.5,-3660 48.5,-3654 48.5,-3648 48.5,-3648 48.5,-3636 48.5,-3636 48.5,-3630 54.5,-3624 60.5,-3624 60.5,-3624 114.5,-3624 114.5,-3624 120.5,-3624 126.5,-3630 126.5,-3636 126.5,-3636 126.5,-3648 126.5,-3648 126.5,-3654 120.5,-3660 114.5,-3660"/>
<text text-anchor="middle" x="87.5" y="-3639.5" font-family="Helvetica,sans-Serif" font-size="10.00" fill="white">4_depthwise</text>
</g>
<!-- block4_expand&#45;&gt;block4_depthwise -->
<g id="edge23" class="edge">
<title>block4_expand&#45;&gt;block4_depthwise</title>
<path fill="none" stroke="#555555" d="M89.83,-3702.91C89.46,-3693.34 88.99,-3681.18 88.56,-3670.32"/>
<polygon fill="#555555" stroke="#555555" points="92.05,-3669.9 88.16,-3660.04 85.06,-3670.17 92.05,-3669.9"/>
</g>
<!-- block4_se_fc1 -->
<g id="node22" class="node">
<title>block4_se_fc1</title>
<path fill="#7bc67b" stroke="black" stroke-width="1.5" d="M47,-3581C47,-3581 12,-3581 12,-3581 6,-3581 0,-3575 0,-3569 0,-3569 0,-3557 0,-3557 0,-3551 6,-3545 12,-3545 12,-3545 47,-3545 47,-3545 53,-3545 59,-3551 59,-3557 59,-3557 59,-3569 59,-3569 59,-3575 53,-3581 47,-3581"/>
<text text-anchor="middle" x="29.5" y="-3560.5" font-family="Helvetica,sans-Serif" font-size="10.00" fill="white">4_se_fc1</text>
</g>
<!-- block4_depthwise&#45;&gt;block4_se_fc1 -->
<g id="edge24" class="edge">
<title>block4_depthwise&#45;&gt;block4_se_fc1</title>
<path fill="none" stroke="#555555" d="M74.63,-3623.91C66.97,-3613.74 57.11,-3600.65 48.56,-3589.3"/>
<polygon fill="#555555" stroke="#555555" points="51.15,-3586.92 42.34,-3581.04 45.56,-3591.13 51.15,-3586.92"/>
</g>
<!-- block4_se_mul -->
<g id="node24" class="node">
<title>block4_se_mul</title>
<ellipse fill="#c75050" stroke="black" stroke-width="1.5" cx="95.5" cy="-3412" rx="11" ry="11"/>
<text text-anchor="middle" x="95.5" y="-3408.3" font-family="Helvetica,sans-Serif" font-size="14.00">4_se_mul</text>
</g>
<!-- block4_depthwise&#45;&gt;block4_se_mul -->
<g id="edge26" class="edge">
<title>block4_depthwise&#45;&gt;block4_se_mul</title>
<path fill="none" stroke="#555555" d="M88.1,-3623.86C89.55,-3582.52 93.24,-3477.44 94.79,-3433.16"/>
<polygon fill="#555555" stroke="#555555" points="98.29,-3433.18 95.15,-3423.06 91.3,-3432.93 98.29,-3433.18"/>
</g>
<!-- block4_se_fc2 -->
<g id="node23" class="node">
<title>block4_se_fc2</title>
<path fill="#7bc67b" stroke="black" stroke-width="1.5" d="M47,-3502C47,-3502 12,-3502 12,-3502 6,-3502 0,-3496 0,-3490 0,-3490 0,-3478 0,-3478 0,-3472 6,-3466 12,-3466 12,-3466 47,-3466 47,-3466 53,-3466 59,-3472 59,-3478 59,-3478 59,-3490 59,-3490 59,-3496 53,-3502 47,-3502"/>
<text text-anchor="middle" x="29.5" y="-3481.5" font-family="Helvetica,sans-Serif" font-size="10.00" fill="white">4_se_fc2</text>
</g>
<!-- block4_se_fc1&#45;&gt;block4_se_fc2 -->
<g id="edge25" class="edge">
<title>block4_se_fc1&#45;&gt;block4_se_fc2</title>
<path fill="none" stroke="#555555" d="M29.5,-3544.91C29.5,-3535.34 29.5,-3523.18 29.5,-3512.32"/>
<polygon fill="#555555" stroke="#555555" points="33,-3512.04 29.5,-3502.04 26,-3512.04 33,-3512.04"/>
</g>
<!-- block4_se_fc2&#45;&gt;block4_se_mul -->
<g id="edge27" class="edge">
<title>block4_se_fc2&#45;&gt;block4_se_mul</title>
<path fill="none" stroke="#555555" d="M45.81,-3465.7C56.64,-3454.21 70.73,-3439.28 81.13,-3428.24"/>
<polygon fill="#555555" stroke="#555555" points="83.94,-3430.36 88.26,-3420.68 78.85,-3425.56 83.94,-3430.36"/>
</g>
<!-- block4_project -->
<g id="node25" class="node">
<title>block4_project</title>
<path fill="#7bc67b" stroke="black" stroke-width="1.5" d="M114.5,-3358C114.5,-3358 76.5,-3358 76.5,-3358 70.5,-3358 64.5,-3352 64.5,-3346 64.5,-3346 64.5,-3334 64.5,-3334 64.5,-3328 70.5,-3322 76.5,-3322 76.5,-3322 114.5,-3322 114.5,-3322 120.5,-3322 126.5,-3328 126.5,-3334 126.5,-3334 126.5,-3346 126.5,-3346 126.5,-3352 120.5,-3358 114.5,-3358"/>
<text text-anchor="middle" x="95.5" y="-3337.5" font-family="Helvetica,sans-Serif" font-size="10.00" fill="white">4_project</text>
</g>
<!-- block4_se_mul&#45;&gt;block4_project -->
<g id="edge28" class="edge">
<title>block4_se_mul&#45;&gt;block4_project</title>
<path fill="none" stroke="#555555" d="M95.5,-3400.97C95.5,-3392.4 95.5,-3379.67 95.5,-3368.14"/>
<polygon fill="#555555" stroke="#555555" points="99,-3368.04 95.5,-3358.04 92,-3368.04 99,-3368.04"/>
</g>
<!-- block4_project&#45;&gt;block4_residual_add -->
<g id="edge29" class="edge">
<title>block4_project&#45;&gt;block4_residual_add</title>
<path fill="none" stroke="#555555" d="M104.65,-3321.7C110.22,-3311.16 117.32,-3297.71 122.96,-3287.04"/>
<polygon fill="#555555" stroke="#555555" points="126.07,-3288.66 127.65,-3278.18 119.88,-3285.39 126.07,-3288.66"/>
</g>
<!-- block5_expand -->
<g id="node27" class="node">
<title>block5_expand</title>
<path fill="#7bc67b" stroke="black" stroke-width="1.5" d="M111.5,-3214C111.5,-3214 71.5,-3214 71.5,-3214 65.5,-3214 59.5,-3208 59.5,-3202 59.5,-3202 59.5,-3190 59.5,-3190 59.5,-3184 65.5,-3178 71.5,-3178 71.5,-3178 111.5,-3178 111.5,-3178 117.5,-3178 123.5,-3184 123.5,-3190 123.5,-3190 123.5,-3202 123.5,-3202 123.5,-3208 117.5,-3214 111.5,-3214"/>
<text text-anchor="middle" x="91.5" y="-3193.5" font-family="Helvetica,sans-Serif" font-size="10.00" fill="white">5_expand</text>
</g>
<!-- block4_residual_add&#45;&gt;block5_expand -->
<g id="edge31" class="edge">
<title>block4_residual_add&#45;&gt;block5_expand</title>
<path fill="none" stroke="#555555" d="M127.31,-3258.13C122.11,-3249.25 113.85,-3235.16 106.57,-3222.74"/>
<polygon fill="#555555" stroke="#555555" points="109.58,-3220.95 101.51,-3214.09 103.54,-3224.49 109.58,-3220.95"/>
</g>
<!-- block5_residual_add -->
<g id="node33" class="node">
<title>block5_residual_add</title>
<ellipse fill="#e85454" stroke="black" stroke-width="1.5" cx="133.5" cy="-2743" rx="11" ry="11"/>
<text text-anchor="middle" x="133.5" y="-2739.3" font-family="Helvetica,sans-Serif" font-size="14.00">5_residual_add</text>
</g>
<!-- block4_residual_add&#45;&gt;block5_residual_add -->
<g id="edge39" class="edge">
<title>block4_residual_add&#45;&gt;block5_residual_add</title>
<path fill="none" stroke="#e85454" stroke-width="2" stroke-dasharray="5,2" d="M136.67,-3257.81C146.73,-3234.78 171.5,-3172.55 171.5,-3118 171.5,-3118 171.5,-3118 171.5,-2886 171.5,-2840.49 153.06,-2789.48 141.87,-2762.72"/>
<polygon fill="#e85454" stroke="#e85454" stroke-width="2" points="145.03,-2761.21 137.86,-2753.41 138.6,-2763.98 145.03,-2761.21"/>
</g>
<!-- block5_depthwise -->
<g id="node28" class="node">
<title>block5_depthwise</title>
<path fill="#2d8a4e" stroke="black" stroke-width="1.5" d="M115.5,-3135C115.5,-3135 61.5,-3135 61.5,-3135 55.5,-3135 49.5,-3129 49.5,-3123 49.5,-3123 49.5,-3111 49.5,-3111 49.5,-3105 55.5,-3099 61.5,-3099 61.5,-3099 115.5,-3099 115.5,-3099 121.5,-3099 127.5,-3105 127.5,-3111 127.5,-3111 127.5,-3123 127.5,-3123 127.5,-3129 121.5,-3135 115.5,-3135"/>
<text text-anchor="middle" x="88.5" y="-3114.5" font-family="Helvetica,sans-Serif" font-size="10.00" fill="white">5_depthwise</text>
</g>
<!-- block5_expand&#45;&gt;block5_depthwise -->
<g id="edge32" class="edge">
<title>block5_expand&#45;&gt;block5_depthwise</title>
<path fill="none" stroke="#555555" d="M90.83,-3177.91C90.46,-3168.34 89.99,-3156.18 89.56,-3145.32"/>
<polygon fill="#555555" stroke="#555555" points="93.05,-3144.9 89.16,-3135.04 86.06,-3145.17 93.05,-3144.9"/>
</g>
<!-- block5_se_fc1 -->
<g id="node29" class="node">
<title>block5_se_fc1</title>
<path fill="#7bc67b" stroke="black" stroke-width="1.5" d="M48,-3056C48,-3056 13,-3056 13,-3056 7,-3056 1,-3050 1,-3044 1,-3044 1,-3032 1,-3032 1,-3026 7,-3020 13,-3020 13,-3020 48,-3020 48,-3020 54,-3020 60,-3026 60,-3032 60,-3032 60,-3044 60,-3044 60,-3050 54,-3056 48,-3056"/>
<text text-anchor="middle" x="30.5" y="-3035.5" font-family="Helvetica,sans-Serif" font-size="10.00" fill="white">5_se_fc1</text>
</g>
<!-- block5_depthwise&#45;&gt;block5_se_fc1 -->
<g id="edge33" class="edge">
<title>block5_depthwise&#45;&gt;block5_se_fc1</title>
<path fill="none" stroke="#555555" d="M75.63,-3098.91C67.97,-3088.74 58.11,-3075.65 49.56,-3064.3"/>
<polygon fill="#555555" stroke="#555555" points="52.15,-3061.92 43.34,-3056.04 46.56,-3066.13 52.15,-3061.92"/>
</g>
<!-- block5_se_mul -->
<g id="node31" class="node">
<title>block5_se_mul</title>
<ellipse fill="#c75050" stroke="black" stroke-width="1.5" cx="96.5" cy="-2887" rx="11" ry="11"/>
<text text-anchor="middle" x="96.5" y="-2883.3" font-family="Helvetica,sans-Serif" font-size="14.00">5_se_mul</text>
</g>
<!-- block5_depthwise&#45;&gt;block5_se_mul -->
<g id="edge35" class="edge">
<title>block5_depthwise&#45;&gt;block5_se_mul</title>
<path fill="none" stroke="#555555" d="M89.1,-3098.86C90.55,-3057.52 94.24,-2952.44 95.79,-2908.16"/>
<polygon fill="#555555" stroke="#555555" points="99.29,-2908.18 96.15,-2898.06 92.3,-2907.93 99.29,-2908.18"/>
</g>
<!-- block5_se_fc2 -->
<g id="node30" class="node">
<title>block5_se_fc2</title>
<path fill="#7bc67b" stroke="black" stroke-width="1.5" d="M48,-2977C48,-2977 13,-2977 13,-2977 7,-2977 1,-2971 1,-2965 1,-2965 1,-2953 1,-2953 1,-2947 7,-2941 13,-2941 13,-2941 48,-2941 48,-2941 54,-2941 60,-2947 60,-2953 60,-2953 60,-2965 60,-2965 60,-2971 54,-2977 48,-2977"/>
<text text-anchor="middle" x="30.5" y="-2956.5" font-family="Helvetica,sans-Serif" font-size="10.00" fill="white">5_se_fc2</text>
</g>
<!-- block5_se_fc1&#45;&gt;block5_se_fc2 -->
<g id="edge34" class="edge">
<title>block5_se_fc1&#45;&gt;block5_se_fc2</title>
<path fill="none" stroke="#555555" d="M30.5,-3019.91C30.5,-3010.34 30.5,-2998.18 30.5,-2987.32"/>
<polygon fill="#555555" stroke="#555555" points="34,-2987.04 30.5,-2977.04 27,-2987.04 34,-2987.04"/>
</g>
<!-- block5_se_fc2&#45;&gt;block5_se_mul -->
<g id="edge36" class="edge">
<title>block5_se_fc2&#45;&gt;block5_se_mul</title>
<path fill="none" stroke="#555555" d="M46.81,-2940.7C57.64,-2929.21 71.73,-2914.28 82.13,-2903.24"/>
<polygon fill="#555555" stroke="#555555" points="84.94,-2905.36 89.26,-2895.68 79.85,-2900.56 84.94,-2905.36"/>
</g>
<!-- block5_project -->
<g id="node32" class="node">
<title>block5_project</title>
<path fill="#7bc67b" stroke="black" stroke-width="1.5" d="M115.5,-2833C115.5,-2833 77.5,-2833 77.5,-2833 71.5,-2833 65.5,-2827 65.5,-2821 65.5,-2821 65.5,-2809 65.5,-2809 65.5,-2803 71.5,-2797 77.5,-2797 77.5,-2797 115.5,-2797 115.5,-2797 121.5,-2797 127.5,-2803 127.5,-2809 127.5,-2809 127.5,-2821 127.5,-2821 127.5,-2827 121.5,-2833 115.5,-2833"/>
<text text-anchor="middle" x="96.5" y="-2812.5" font-family="Helvetica,sans-Serif" font-size="10.00" fill="white">5_project</text>
</g>
<!-- block5_se_mul&#45;&gt;block5_project -->
<g id="edge37" class="edge">
<title>block5_se_mul&#45;&gt;block5_project</title>
<path fill="none" stroke="#555555" d="M96.5,-2875.97C96.5,-2867.4 96.5,-2854.67 96.5,-2843.14"/>
<polygon fill="#555555" stroke="#555555" points="100,-2843.04 96.5,-2833.04 93,-2843.04 100,-2843.04"/>
</g>
<!-- block5_project&#45;&gt;block5_residual_add -->
<g id="edge38" class="edge">
<title>block5_project&#45;&gt;block5_residual_add</title>
<path fill="none" stroke="#555555" d="M105.65,-2796.7C111.22,-2786.16 118.32,-2772.71 123.96,-2762.04"/>
<polygon fill="#555555" stroke="#555555" points="127.07,-2763.66 128.65,-2753.18 120.88,-2760.39 127.07,-2763.66"/>
</g>
<!-- block6_expand -->
<g id="node34" class="node">
<title>block6_expand</title>
<path fill="#7bc67b" stroke="black" stroke-width="1.5" d="M153.5,-2689C153.5,-2689 113.5,-2689 113.5,-2689 107.5,-2689 101.5,-2683 101.5,-2677 101.5,-2677 101.5,-2665 101.5,-2665 101.5,-2659 107.5,-2653 113.5,-2653 113.5,-2653 153.5,-2653 153.5,-2653 159.5,-2653 165.5,-2659 165.5,-2665 165.5,-2665 165.5,-2677 165.5,-2677 165.5,-2683 159.5,-2689 153.5,-2689"/>
<text text-anchor="middle" x="133.5" y="-2668.5" font-family="Helvetica,sans-Serif" font-size="10.00" fill="white">6_expand</text>
</g>
<!-- block5_residual_add&#45;&gt;block6_expand -->
<g id="edge40" class="edge">
<title>block5_residual_add&#45;&gt;block6_expand</title>
<path fill="none" stroke="#555555" d="M133.5,-2731.97C133.5,-2723.4 133.5,-2710.67 133.5,-2699.14"/>
<polygon fill="#555555" stroke="#555555" points="137,-2699.04 133.5,-2689.04 130,-2699.04 137,-2699.04"/>
</g>
<!-- block6_depthwise -->
<g id="node35" class="node">
<title>block6_depthwise</title>
<path fill="#2d8a4e" stroke="black" stroke-width="1.5" d="M160.5,-2610C160.5,-2610 106.5,-2610 106.5,-2610 100.5,-2610 94.5,-2604 94.5,-2598 94.5,-2598 94.5,-2586 94.5,-2586 94.5,-2580 100.5,-2574 106.5,-2574 106.5,-2574 160.5,-2574 160.5,-2574 166.5,-2574 172.5,-2580 172.5,-2586 172.5,-2586 172.5,-2598 172.5,-2598 172.5,-2604 166.5,-2610 160.5,-2610"/>
<text text-anchor="middle" x="133.5" y="-2589.5" font-family="Helvetica,sans-Serif" font-size="10.00" fill="white">6_depthwise</text>
</g>
<!-- block6_expand&#45;&gt;block6_depthwise -->
<g id="edge41" class="edge">
<title>block6_expand&#45;&gt;block6_depthwise</title>
<path fill="none" stroke="#555555" d="M133.5,-2652.91C133.5,-2643.34 133.5,-2631.18 133.5,-2620.32"/>
<polygon fill="#555555" stroke="#555555" points="137,-2620.04 133.5,-2610.04 130,-2620.04 137,-2620.04"/>
</g>
<!-- block6_se_fc1 -->
<g id="node36" class="node">
<title>block6_se_fc1</title>
<path fill="#7bc67b" stroke="black" stroke-width="1.5" d="M114,-2531C114,-2531 79,-2531 79,-2531 73,-2531 67,-2525 67,-2519 67,-2519 67,-2507 67,-2507 67,-2501 73,-2495 79,-2495 79,-2495 114,-2495 114,-2495 120,-2495 126,-2501 126,-2507 126,-2507 126,-2519 126,-2519 126,-2525 120,-2531 114,-2531"/>
<text text-anchor="middle" x="96.5" y="-2510.5" font-family="Helvetica,sans-Serif" font-size="10.00" fill="white">6_se_fc1</text>
</g>
<!-- block6_depthwise&#45;&gt;block6_se_fc1 -->
<g id="edge42" class="edge">
<title>block6_depthwise&#45;&gt;block6_se_fc1</title>
<path fill="none" stroke="#555555" d="M125.29,-2573.91C120.55,-2564.04 114.48,-2551.42 109.14,-2540.31"/>
<polygon fill="#555555" stroke="#555555" points="112.17,-2538.54 104.69,-2531.04 105.87,-2541.57 112.17,-2538.54"/>
</g>
<!-- block6_se_mul -->
<g id="node38" class="node">
<title>block6_se_mul</title>
<ellipse fill="#c75050" stroke="black" stroke-width="1.5" cx="133.5" cy="-2362" rx="11" ry="11"/>
<text text-anchor="middle" x="133.5" y="-2358.3" font-family="Helvetica,sans-Serif" font-size="14.00">6_se_mul</text>
</g>
<!-- block6_depthwise&#45;&gt;block6_se_mul -->
<g id="edge44" class="edge">
<title>block6_depthwise&#45;&gt;block6_se_mul</title>
<path fill="none" stroke="#555555" d="M136.02,-2573.98C137.66,-2561.99 139.65,-2545.55 140.5,-2531 143.47,-2479.98 143.85,-2467 140.5,-2416 139.78,-2405.1 138.25,-2393.02 136.79,-2383.15"/>
<polygon fill="#555555" stroke="#555555" points="140.23,-2382.47 135.24,-2373.12 133.31,-2383.54 140.23,-2382.47"/>
</g>
<!-- block6_se_fc2 -->
<g id="node37" class="node">
<title>block6_se_fc2</title>
<path fill="#7bc67b" stroke="black" stroke-width="1.5" d="M114,-2452C114,-2452 79,-2452 79,-2452 73,-2452 67,-2446 67,-2440 67,-2440 67,-2428 67,-2428 67,-2422 73,-2416 79,-2416 79,-2416 114,-2416 114,-2416 120,-2416 126,-2422 126,-2428 126,-2428 126,-2440 126,-2440 126,-2446 120,-2452 114,-2452"/>
<text text-anchor="middle" x="96.5" y="-2431.5" font-family="Helvetica,sans-Serif" font-size="10.00" fill="white">6_se_fc2</text>
</g>
<!-- block6_se_fc1&#45;&gt;block6_se_fc2 -->
<g id="edge43" class="edge">
<title>block6_se_fc1&#45;&gt;block6_se_fc2</title>
<path fill="none" stroke="#555555" d="M96.5,-2494.91C96.5,-2485.34 96.5,-2473.18 96.5,-2462.32"/>
<polygon fill="#555555" stroke="#555555" points="100,-2462.04 96.5,-2452.04 93,-2462.04 100,-2462.04"/>
</g>
<!-- block6_se_fc2&#45;&gt;block6_se_mul -->
<g id="edge45" class="edge">
<title>block6_se_fc2&#45;&gt;block6_se_mul</title>
<path fill="none" stroke="#555555" d="M105.65,-2415.7C111.22,-2405.16 118.32,-2391.71 123.96,-2381.04"/>
<polygon fill="#555555" stroke="#555555" points="127.07,-2382.66 128.65,-2372.18 120.88,-2379.39 127.07,-2382.66"/>
</g>
<!-- block6_project -->
<g id="node39" class="node">
<title>block6_project</title>
<path fill="#7bc67b" stroke="black" stroke-width="1.5" d="M152.5,-2308C152.5,-2308 114.5,-2308 114.5,-2308 108.5,-2308 102.5,-2302 102.5,-2296 102.5,-2296 102.5,-2284 102.5,-2284 102.5,-2278 108.5,-2272 114.5,-2272 114.5,-2272 152.5,-2272 152.5,-2272 158.5,-2272 164.5,-2278 164.5,-2284 164.5,-2284 164.5,-2296 164.5,-2296 164.5,-2302 158.5,-2308 152.5,-2308"/>
<text text-anchor="middle" x="133.5" y="-2287.5" font-family="Helvetica,sans-Serif" font-size="10.00" fill="white">6_project</text>
</g>
<!-- block6_se_mul&#45;&gt;block6_project -->
<g id="edge46" class="edge">
<title>block6_se_mul&#45;&gt;block6_project</title>
<path fill="none" stroke="#555555" d="M133.5,-2350.97C133.5,-2342.4 133.5,-2329.67 133.5,-2318.14"/>
<polygon fill="#555555" stroke="#555555" points="137,-2318.04 133.5,-2308.04 130,-2318.04 137,-2318.04"/>
</g>
<!-- block7_expand -->
<g id="node40" class="node">
<title>block7_expand</title>
<path fill="#7bc67b" stroke="black" stroke-width="1.5" d="M112.5,-2229C112.5,-2229 72.5,-2229 72.5,-2229 66.5,-2229 60.5,-2223 60.5,-2217 60.5,-2217 60.5,-2205 60.5,-2205 60.5,-2199 66.5,-2193 72.5,-2193 72.5,-2193 112.5,-2193 112.5,-2193 118.5,-2193 124.5,-2199 124.5,-2205 124.5,-2205 124.5,-2217 124.5,-2217 124.5,-2223 118.5,-2229 112.5,-2229"/>
<text text-anchor="middle" x="92.5" y="-2208.5" font-family="Helvetica,sans-Serif" font-size="10.00" fill="white">7_expand</text>
</g>
<!-- block6_project&#45;&gt;block7_expand -->
<g id="edge47" class="edge">
<title>block6_project&#45;&gt;block7_expand</title>
<path fill="none" stroke="#555555" d="M124.4,-2271.91C119.09,-2261.94 112.29,-2249.17 106.33,-2237.97"/>
<polygon fill="#555555" stroke="#555555" points="109.36,-2236.22 101.57,-2229.04 103.18,-2239.51 109.36,-2236.22"/>
</g>
<!-- block7_residual_add -->
<g id="node46" class="node">
<title>block7_residual_add</title>
<ellipse fill="#e85454" stroke="black" stroke-width="1.5" cx="134.5" cy="-1758" rx="11" ry="11"/>
<text text-anchor="middle" x="134.5" y="-1754.3" font-family="Helvetica,sans-Serif" font-size="14.00">7_residual_add</text>
</g>
<!-- block6_project&#45;&gt;block7_residual_add -->
<g id="edge55" class="edge">
<title>block6_project&#45;&gt;block7_residual_add</title>
<path fill="none" stroke="#e85454" stroke-width="2" stroke-dasharray="5,2" d="M140.84,-2271.58C152.13,-2243.12 172.5,-2184.65 172.5,-2133 172.5,-2133 172.5,-2133 172.5,-1901 172.5,-1855.49 154.06,-1804.48 142.87,-1777.72"/>
<polygon fill="#e85454" stroke="#e85454" stroke-width="2" points="146.03,-1776.21 138.86,-1768.41 139.6,-1778.98 146.03,-1776.21"/>
</g>
<!-- block7_depthwise -->
<g id="node41" class="node">
<title>block7_depthwise</title>
<path fill="#2d8a4e" stroke="black" stroke-width="1.5" d="M116.5,-2150C116.5,-2150 62.5,-2150 62.5,-2150 56.5,-2150 50.5,-2144 50.5,-2138 50.5,-2138 50.5,-2126 50.5,-2126 50.5,-2120 56.5,-2114 62.5,-2114 62.5,-2114 116.5,-2114 116.5,-2114 122.5,-2114 128.5,-2120 128.5,-2126 128.5,-2126 128.5,-2138 128.5,-2138 128.5,-2144 122.5,-2150 116.5,-2150"/>
<text text-anchor="middle" x="89.5" y="-2129.5" font-family="Helvetica,sans-Serif" font-size="10.00" fill="white">7_depthwise</text>
</g>
<!-- block7_expand&#45;&gt;block7_depthwise -->
<g id="edge48" class="edge">
<title>block7_expand&#45;&gt;block7_depthwise</title>
<path fill="none" stroke="#555555" d="M91.83,-2192.91C91.46,-2183.34 90.99,-2171.18 90.56,-2160.32"/>
<polygon fill="#555555" stroke="#555555" points="94.05,-2159.9 90.16,-2150.04 87.06,-2160.17 94.05,-2159.9"/>
</g>
<!-- block7_se_fc1 -->
<g id="node42" class="node">
<title>block7_se_fc1</title>
<path fill="#7bc67b" stroke="black" stroke-width="1.5" d="M49,-2071C49,-2071 14,-2071 14,-2071 8,-2071 2,-2065 2,-2059 2,-2059 2,-2047 2,-2047 2,-2041 8,-2035 14,-2035 14,-2035 49,-2035 49,-2035 55,-2035 61,-2041 61,-2047 61,-2047 61,-2059 61,-2059 61,-2065 55,-2071 49,-2071"/>
<text text-anchor="middle" x="31.5" y="-2050.5" font-family="Helvetica,sans-Serif" font-size="10.00" fill="white">7_se_fc1</text>
</g>
<!-- block7_depthwise&#45;&gt;block7_se_fc1 -->
<g id="edge49" class="edge">
<title>block7_depthwise&#45;&gt;block7_se_fc1</title>
<path fill="none" stroke="#555555" d="M76.63,-2113.91C68.97,-2103.74 59.11,-2090.65 50.56,-2079.3"/>
<polygon fill="#555555" stroke="#555555" points="53.15,-2076.92 44.34,-2071.04 47.56,-2081.13 53.15,-2076.92"/>
</g>
<!-- block7_se_mul -->
<g id="node44" class="node">
<title>block7_se_mul</title>
<ellipse fill="#c75050" stroke="black" stroke-width="1.5" cx="97.5" cy="-1902" rx="11" ry="11"/>
<text text-anchor="middle" x="97.5" y="-1898.3" font-family="Helvetica,sans-Serif" font-size="14.00">7_se_mul</text>
</g>
<!-- block7_depthwise&#45;&gt;block7_se_mul -->
<g id="edge51" class="edge">
<title>block7_depthwise&#45;&gt;block7_se_mul</title>
<path fill="none" stroke="#555555" d="M90.1,-2113.86C91.55,-2072.52 95.24,-1967.44 96.79,-1923.16"/>
<polygon fill="#555555" stroke="#555555" points="100.29,-1923.18 97.15,-1913.06 93.3,-1922.93 100.29,-1923.18"/>
</g>
<!-- block7_se_fc2 -->
<g id="node43" class="node">
<title>block7_se_fc2</title>
<path fill="#7bc67b" stroke="black" stroke-width="1.5" d="M49,-1992C49,-1992 14,-1992 14,-1992 8,-1992 2,-1986 2,-1980 2,-1980 2,-1968 2,-1968 2,-1962 8,-1956 14,-1956 14,-1956 49,-1956 49,-1956 55,-1956 61,-1962 61,-1968 61,-1968 61,-1980 61,-1980 61,-1986 55,-1992 49,-1992"/>
<text text-anchor="middle" x="31.5" y="-1971.5" font-family="Helvetica,sans-Serif" font-size="10.00" fill="white">7_se_fc2</text>
</g>
<!-- block7_se_fc1&#45;&gt;block7_se_fc2 -->
<g id="edge50" class="edge">
<title>block7_se_fc1&#45;&gt;block7_se_fc2</title>
<path fill="none" stroke="#555555" d="M31.5,-2034.91C31.5,-2025.34 31.5,-2013.18 31.5,-2002.32"/>
<polygon fill="#555555" stroke="#555555" points="35,-2002.04 31.5,-1992.04 28,-2002.04 35,-2002.04"/>
</g>
<!-- block7_se_fc2&#45;&gt;block7_se_mul -->
<g id="edge52" class="edge">
<title>block7_se_fc2&#45;&gt;block7_se_mul</title>
<path fill="none" stroke="#555555" d="M47.81,-1955.7C58.64,-1944.21 72.73,-1929.28 83.13,-1918.24"/>
<polygon fill="#555555" stroke="#555555" points="85.94,-1920.36 90.26,-1910.68 80.85,-1915.56 85.94,-1920.36"/>
</g>
<!-- block7_project -->
<g id="node45" class="node">
<title>block7_project</title>
<path fill="#7bc67b" stroke="black" stroke-width="1.5" d="M116.5,-1848C116.5,-1848 78.5,-1848 78.5,-1848 72.5,-1848 66.5,-1842 66.5,-1836 66.5,-1836 66.5,-1824 66.5,-1824 66.5,-1818 72.5,-1812 78.5,-1812 78.5,-1812 116.5,-1812 116.5,-1812 122.5,-1812 128.5,-1818 128.5,-1824 128.5,-1824 128.5,-1836 128.5,-1836 128.5,-1842 122.5,-1848 116.5,-1848"/>
<text text-anchor="middle" x="97.5" y="-1827.5" font-family="Helvetica,sans-Serif" font-size="10.00" fill="white">7_project</text>
</g>
<!-- block7_se_mul&#45;&gt;block7_project -->
<g id="edge53" class="edge">
<title>block7_se_mul&#45;&gt;block7_project</title>
<path fill="none" stroke="#555555" d="M97.5,-1890.97C97.5,-1882.4 97.5,-1869.67 97.5,-1858.14"/>
<polygon fill="#555555" stroke="#555555" points="101,-1858.04 97.5,-1848.04 94,-1858.04 101,-1858.04"/>
</g>
<!-- block7_project&#45;&gt;block7_residual_add -->
<g id="edge54" class="edge">
<title>block7_project&#45;&gt;block7_residual_add</title>
<path fill="none" stroke="#555555" d="M106.65,-1811.7C112.22,-1801.16 119.32,-1787.71 124.96,-1777.04"/>
<polygon fill="#555555" stroke="#555555" points="128.07,-1778.66 129.65,-1768.18 121.88,-1775.39 128.07,-1778.66"/>
</g>
<!-- block8_expand -->
<g id="node47" class="node">
<title>block8_expand</title>
<path fill="#7bc67b" stroke="black" stroke-width="1.5" d="M154.5,-1704C154.5,-1704 114.5,-1704 114.5,-1704 108.5,-1704 102.5,-1698 102.5,-1692 102.5,-1692 102.5,-1680 102.5,-1680 102.5,-1674 108.5,-1668 114.5,-1668 114.5,-1668 154.5,-1668 154.5,-1668 160.5,-1668 166.5,-1674 166.5,-1680 166.5,-1680 166.5,-1692 166.5,-1692 166.5,-1698 160.5,-1704 154.5,-1704"/>
<text text-anchor="middle" x="134.5" y="-1683.5" font-family="Helvetica,sans-Serif" font-size="10.00" fill="white">8_expand</text>
</g>
<!-- block7_residual_add&#45;&gt;block8_expand -->
<g id="edge56" class="edge">
<title>block7_residual_add&#45;&gt;block8_expand</title>
<path fill="none" stroke="#555555" d="M134.5,-1746.97C134.5,-1738.4 134.5,-1725.67 134.5,-1714.14"/>
<polygon fill="#555555" stroke="#555555" points="138,-1714.04 134.5,-1704.04 131,-1714.04 138,-1714.04"/>
</g>
<!-- block8_depthwise -->
<g id="node48" class="node">
<title>block8_depthwise</title>
<path fill="#2d8a4e" stroke="black" stroke-width="1.5" d="M161.5,-1625C161.5,-1625 107.5,-1625 107.5,-1625 101.5,-1625 95.5,-1619 95.5,-1613 95.5,-1613 95.5,-1601 95.5,-1601 95.5,-1595 101.5,-1589 107.5,-1589 107.5,-1589 161.5,-1589 161.5,-1589 167.5,-1589 173.5,-1595 173.5,-1601 173.5,-1601 173.5,-1613 173.5,-1613 173.5,-1619 167.5,-1625 161.5,-1625"/>
<text text-anchor="middle" x="134.5" y="-1604.5" font-family="Helvetica,sans-Serif" font-size="10.00" fill="white">8_depthwise</text>
</g>
<!-- block8_expand&#45;&gt;block8_depthwise -->
<g id="edge57" class="edge">
<title>block8_expand&#45;&gt;block8_depthwise</title>
<path fill="none" stroke="#555555" d="M134.5,-1667.91C134.5,-1658.34 134.5,-1646.18 134.5,-1635.32"/>
<polygon fill="#555555" stroke="#555555" points="138,-1635.04 134.5,-1625.04 131,-1635.04 138,-1635.04"/>
</g>
<!-- block8_se_fc1 -->
<g id="node49" class="node">
<title>block8_se_fc1</title>
<path fill="#7bc67b" stroke="black" stroke-width="1.5" d="M115,-1546C115,-1546 80,-1546 80,-1546 74,-1546 68,-1540 68,-1534 68,-1534 68,-1522 68,-1522 68,-1516 74,-1510 80,-1510 80,-1510 115,-1510 115,-1510 121,-1510 127,-1516 127,-1522 127,-1522 127,-1534 127,-1534 127,-1540 121,-1546 115,-1546"/>
<text text-anchor="middle" x="97.5" y="-1525.5" font-family="Helvetica,sans-Serif" font-size="10.00" fill="white">8_se_fc1</text>
</g>
<!-- block8_depthwise&#45;&gt;block8_se_fc1 -->
<g id="edge58" class="edge">
<title>block8_depthwise&#45;&gt;block8_se_fc1</title>
<path fill="none" stroke="#555555" d="M126.29,-1588.91C121.55,-1579.04 115.48,-1566.42 110.14,-1555.31"/>
<polygon fill="#555555" stroke="#555555" points="113.17,-1553.54 105.69,-1546.04 106.87,-1556.57 113.17,-1553.54"/>
</g>
<!-- block8_se_mul -->
<g id="node51" class="node">
<title>block8_se_mul</title>
<ellipse fill="#c75050" stroke="black" stroke-width="1.5" cx="134.5" cy="-1377" rx="11" ry="11"/>
<text text-anchor="middle" x="134.5" y="-1373.3" font-family="Helvetica,sans-Serif" font-size="14.00">8_se_mul</text>
</g>
<!-- block8_depthwise&#45;&gt;block8_se_mul -->
<g id="edge60" class="edge">
<title>block8_depthwise&#45;&gt;block8_se_mul</title>
<path fill="none" stroke="#555555" d="M137.02,-1588.98C138.66,-1576.99 140.65,-1560.55 141.5,-1546 144.47,-1494.98 144.85,-1482 141.5,-1431 140.78,-1420.1 139.25,-1408.02 137.79,-1398.15"/>
<polygon fill="#555555" stroke="#555555" points="141.23,-1397.47 136.24,-1388.12 134.31,-1398.54 141.23,-1397.47"/>
</g>
<!-- block8_se_fc2 -->
<g id="node50" class="node">
<title>block8_se_fc2</title>
<path fill="#7bc67b" stroke="black" stroke-width="1.5" d="M115,-1467C115,-1467 80,-1467 80,-1467 74,-1467 68,-1461 68,-1455 68,-1455 68,-1443 68,-1443 68,-1437 74,-1431 80,-1431 80,-1431 115,-1431 115,-1431 121,-1431 127,-1437 127,-1443 127,-1443 127,-1455 127,-1455 127,-1461 121,-1467 115,-1467"/>
<text text-anchor="middle" x="97.5" y="-1446.5" font-family="Helvetica,sans-Serif" font-size="10.00" fill="white">8_se_fc2</text>
</g>
<!-- block8_se_fc1&#45;&gt;block8_se_fc2 -->
<g id="edge59" class="edge">
<title>block8_se_fc1&#45;&gt;block8_se_fc2</title>
<path fill="none" stroke="#555555" d="M97.5,-1509.91C97.5,-1500.34 97.5,-1488.18 97.5,-1477.32"/>
<polygon fill="#555555" stroke="#555555" points="101,-1477.04 97.5,-1467.04 94,-1477.04 101,-1477.04"/>
</g>
<!-- block8_se_fc2&#45;&gt;block8_se_mul -->
<g id="edge61" class="edge">
<title>block8_se_fc2&#45;&gt;block8_se_mul</title>
<path fill="none" stroke="#555555" d="M106.65,-1430.7C112.22,-1420.16 119.32,-1406.71 124.96,-1396.04"/>
<polygon fill="#555555" stroke="#555555" points="128.07,-1397.66 129.65,-1387.18 121.88,-1394.39 128.07,-1397.66"/>
</g>
<!-- block8_project -->
<g id="node52" class="node">
<title>block8_project</title>
<path fill="#7bc67b" stroke="black" stroke-width="1.5" d="M153.5,-1323C153.5,-1323 115.5,-1323 115.5,-1323 109.5,-1323 103.5,-1317 103.5,-1311 103.5,-1311 103.5,-1299 103.5,-1299 103.5,-1293 109.5,-1287 115.5,-1287 115.5,-1287 153.5,-1287 153.5,-1287 159.5,-1287 165.5,-1293 165.5,-1299 165.5,-1299 165.5,-1311 165.5,-1311 165.5,-1317 159.5,-1323 153.5,-1323"/>
<text text-anchor="middle" x="134.5" y="-1302.5" font-family="Helvetica,sans-Serif" font-size="10.00" fill="white">8_project</text>
</g>
<!-- block8_se_mul&#45;&gt;block8_project -->
<g id="edge62" class="edge">
<title>block8_se_mul&#45;&gt;block8_project</title>
<path fill="none" stroke="#555555" d="M134.5,-1365.97C134.5,-1357.4 134.5,-1344.67 134.5,-1333.14"/>
<polygon fill="#555555" stroke="#555555" points="138,-1333.04 134.5,-1323.04 131,-1333.04 138,-1333.04"/>
</g>
<!-- block9_expand -->
<g id="node53" class="node">
<title>block9_expand</title>
<path fill="#7bc67b" stroke="black" stroke-width="1.5" d="M116.5,-1244C116.5,-1244 76.5,-1244 76.5,-1244 70.5,-1244 64.5,-1238 64.5,-1232 64.5,-1232 64.5,-1220 64.5,-1220 64.5,-1214 70.5,-1208 76.5,-1208 76.5,-1208 116.5,-1208 116.5,-1208 122.5,-1208 128.5,-1214 128.5,-1220 128.5,-1220 128.5,-1232 128.5,-1232 128.5,-1238 122.5,-1244 116.5,-1244"/>
<text text-anchor="middle" x="96.5" y="-1223.5" font-family="Helvetica,sans-Serif" font-size="10.00" fill="white">9_expand</text>
</g>
<!-- block8_project&#45;&gt;block9_expand -->
<g id="edge63" class="edge">
<title>block8_project&#45;&gt;block9_expand</title>
<path fill="none" stroke="#555555" d="M126.07,-1286.91C121.2,-1277.04 114.97,-1264.42 109.48,-1253.31"/>
<polygon fill="#555555" stroke="#555555" points="112.47,-1251.46 104.91,-1244.04 106.2,-1254.56 112.47,-1251.46"/>
</g>
<!-- block9_residual_add -->
<g id="node59" class="node">
<title>block9_residual_add</title>
<ellipse fill="#e85454" stroke="black" stroke-width="1.5" cx="137.5" cy="-773" rx="11" ry="11"/>
<text text-anchor="middle" x="137.5" y="-769.3" font-family="Helvetica,sans-Serif" font-size="14.00">9_residual_add</text>
</g>
<!-- block8_project&#45;&gt;block9_residual_add -->
<g id="edge71" class="edge">
<title>block8_project&#45;&gt;block9_residual_add</title>
<path fill="none" stroke="#e85454" stroke-width="2" stroke-dasharray="5,2" d="M142.21,-1286.61C154.09,-1258.2 175.5,-1199.81 175.5,-1148 175.5,-1148 175.5,-1148 175.5,-916 175.5,-870.49 157.06,-819.48 145.87,-792.72"/>
<polygon fill="#e85454" stroke="#e85454" stroke-width="2" points="149.03,-791.21 141.86,-783.41 142.6,-793.98 149.03,-791.21"/>
</g>
<!-- block9_depthwise -->
<g id="node54" class="node">
<title>block9_depthwise</title>
<path fill="#2d8a4e" stroke="black" stroke-width="1.5" d="M119.5,-1165C119.5,-1165 65.5,-1165 65.5,-1165 59.5,-1165 53.5,-1159 53.5,-1153 53.5,-1153 53.5,-1141 53.5,-1141 53.5,-1135 59.5,-1129 65.5,-1129 65.5,-1129 119.5,-1129 119.5,-1129 125.5,-1129 131.5,-1135 131.5,-1141 131.5,-1141 131.5,-1153 131.5,-1153 131.5,-1159 125.5,-1165 119.5,-1165"/>
<text text-anchor="middle" x="92.5" y="-1144.5" font-family="Helvetica,sans-Serif" font-size="10.00" fill="white">9_depthwise</text>
</g>
<!-- block9_expand&#45;&gt;block9_depthwise -->
<g id="edge64" class="edge">
<title>block9_expand&#45;&gt;block9_depthwise</title>
<path fill="none" stroke="#555555" d="M95.61,-1207.91C95.12,-1198.34 94.48,-1186.18 93.92,-1175.32"/>
<polygon fill="#555555" stroke="#555555" points="97.4,-1174.85 93.39,-1165.04 90.41,-1175.21 97.4,-1174.85"/>
</g>
<!-- block9_se_fc1 -->
<g id="node55" class="node">
<title>block9_se_fc1</title>
<path fill="#7bc67b" stroke="black" stroke-width="1.5" d="M52,-1086C52,-1086 17,-1086 17,-1086 11,-1086 5,-1080 5,-1074 5,-1074 5,-1062 5,-1062 5,-1056 11,-1050 17,-1050 17,-1050 52,-1050 52,-1050 58,-1050 64,-1056 64,-1062 64,-1062 64,-1074 64,-1074 64,-1080 58,-1086 52,-1086"/>
<text text-anchor="middle" x="34.5" y="-1065.5" font-family="Helvetica,sans-Serif" font-size="10.00" fill="white">9_se_fc1</text>
</g>
<!-- block9_depthwise&#45;&gt;block9_se_fc1 -->
<g id="edge65" class="edge">
<title>block9_depthwise&#45;&gt;block9_se_fc1</title>
<path fill="none" stroke="#555555" d="M79.63,-1128.91C71.97,-1118.74 62.11,-1105.65 53.56,-1094.3"/>
<polygon fill="#555555" stroke="#555555" points="56.15,-1091.92 47.34,-1086.04 50.56,-1096.13 56.15,-1091.92"/>
</g>
<!-- block9_se_mul -->
<g id="node57" class="node">
<title>block9_se_mul</title>
<ellipse fill="#c75050" stroke="black" stroke-width="1.5" cx="100.5" cy="-917" rx="11" ry="11"/>
<text text-anchor="middle" x="100.5" y="-913.3" font-family="Helvetica,sans-Serif" font-size="14.00">9_se_mul</text>
</g>
<!-- block9_depthwise&#45;&gt;block9_se_mul -->
<g id="edge67" class="edge">
<title>block9_depthwise&#45;&gt;block9_se_mul</title>
<path fill="none" stroke="#555555" d="M93.1,-1128.86C94.55,-1087.52 98.24,-982.44 99.79,-938.16"/>
<polygon fill="#555555" stroke="#555555" points="103.29,-938.18 100.15,-928.06 96.3,-937.93 103.29,-938.18"/>
</g>
<!-- block9_se_fc2 -->
<g id="node56" class="node">
<title>block9_se_fc2</title>
<path fill="#7bc67b" stroke="black" stroke-width="1.5" d="M52,-1007C52,-1007 17,-1007 17,-1007 11,-1007 5,-1001 5,-995 5,-995 5,-983 5,-983 5,-977 11,-971 17,-971 17,-971 52,-971 52,-971 58,-971 64,-977 64,-983 64,-983 64,-995 64,-995 64,-1001 58,-1007 52,-1007"/>
<text text-anchor="middle" x="34.5" y="-986.5" font-family="Helvetica,sans-Serif" font-size="10.00" fill="white">9_se_fc2</text>
</g>
<!-- block9_se_fc1&#45;&gt;block9_se_fc2 -->
<g id="edge66" class="edge">
<title>block9_se_fc1&#45;&gt;block9_se_fc2</title>
<path fill="none" stroke="#555555" d="M34.5,-1049.91C34.5,-1040.34 34.5,-1028.18 34.5,-1017.32"/>
<polygon fill="#555555" stroke="#555555" points="38,-1017.04 34.5,-1007.04 31,-1017.04 38,-1017.04"/>
</g>
<!-- block9_se_fc2&#45;&gt;block9_se_mul -->
<g id="edge68" class="edge">
<title>block9_se_fc2&#45;&gt;block9_se_mul</title>
<path fill="none" stroke="#555555" d="M50.81,-970.7C61.64,-959.21 75.73,-944.28 86.13,-933.24"/>
<polygon fill="#555555" stroke="#555555" points="88.94,-935.36 93.26,-925.68 83.85,-930.56 88.94,-935.36"/>
</g>
<!-- block9_project -->
<g id="node58" class="node">
<title>block9_project</title>
<path fill="#7bc67b" stroke="black" stroke-width="1.5" d="M119.5,-863C119.5,-863 81.5,-863 81.5,-863 75.5,-863 69.5,-857 69.5,-851 69.5,-851 69.5,-839 69.5,-839 69.5,-833 75.5,-827 81.5,-827 81.5,-827 119.5,-827 119.5,-827 125.5,-827 131.5,-833 131.5,-839 131.5,-839 131.5,-851 131.5,-851 131.5,-857 125.5,-863 119.5,-863"/>
<text text-anchor="middle" x="100.5" y="-842.5" font-family="Helvetica,sans-Serif" font-size="10.00" fill="white">9_project</text>
</g>
<!-- block9_se_mul&#45;&gt;block9_project -->
<g id="edge69" class="edge">
<title>block9_se_mul&#45;&gt;block9_project</title>
<path fill="none" stroke="#555555" d="M100.5,-905.97C100.5,-897.4 100.5,-884.67 100.5,-873.14"/>
<polygon fill="#555555" stroke="#555555" points="104,-873.04 100.5,-863.04 97,-873.04 104,-873.04"/>
</g>
<!-- block9_project&#45;&gt;block9_residual_add -->
<g id="edge70" class="edge">
<title>block9_project&#45;&gt;block9_residual_add</title>
<path fill="none" stroke="#555555" d="M109.65,-826.7C115.22,-816.16 122.32,-802.71 127.96,-792.04"/>
<polygon fill="#555555" stroke="#555555" points="131.07,-793.66 132.65,-783.18 124.88,-790.39 131.07,-793.66"/>
</g>
<!-- block10_expand -->
<g id="node60" class="node">
<title>block10_expand</title>
<path fill="#7bc67b" stroke="black" stroke-width="1.5" d="M121.5,-719C121.5,-719 75.5,-719 75.5,-719 69.5,-719 63.5,-713 63.5,-707 63.5,-707 63.5,-695 63.5,-695 63.5,-689 69.5,-683 75.5,-683 75.5,-683 121.5,-683 121.5,-683 127.5,-683 133.5,-689 133.5,-695 133.5,-695 133.5,-707 133.5,-707 133.5,-713 127.5,-719 121.5,-719"/>
<text text-anchor="middle" x="98.5" y="-698.5" font-family="Helvetica,sans-Serif" font-size="10.00" fill="white">10_expand</text>
</g>
<!-- block9_residual_add&#45;&gt;block10_expand -->
<g id="edge72" class="edge">
<title>block9_residual_add&#45;&gt;block10_expand</title>
<path fill="none" stroke="#555555" d="M132.56,-763.13C127.66,-754.34 119.91,-740.43 113.04,-728.1"/>
<polygon fill="#555555" stroke="#555555" points="115.94,-726.12 108.02,-719.09 109.83,-729.53 115.94,-726.12"/>
</g>
<!-- block10_residual_add -->
<g id="node66" class="node">
<title>block10_residual_add</title>
<ellipse fill="#e85454" stroke="black" stroke-width="1.5" cx="141.5" cy="-248" rx="11" ry="11"/>
<text text-anchor="middle" x="141.5" y="-244.3" font-family="Helvetica,sans-Serif" font-size="14.00">10_residual_add</text>
</g>
<!-- block9_residual_add&#45;&gt;block10_residual_add -->
<g id="edge80" class="edge">
<title>block9_residual_add&#45;&gt;block10_residual_add</title>
<path fill="none" stroke="#e85454" stroke-width="2" stroke-dasharray="5,2" d="M142.1,-762.85C153.19,-739.93 180.5,-677.92 180.5,-623 180.5,-623 180.5,-623 180.5,-391 180.5,-345.41 161.58,-294.43 150.09,-267.69"/>
<polygon fill="#e85454" stroke="#e85454" stroke-width="2" points="153.22,-266.12 145.97,-258.4 146.82,-268.96 153.22,-266.12"/>
</g>
<!-- block10_depthwise -->
<g id="node61" class="node">
<title>block10_depthwise</title>
<path fill="#2d8a4e" stroke="black" stroke-width="1.5" d="M124.5,-640C124.5,-640 64.5,-640 64.5,-640 58.5,-640 52.5,-634 52.5,-628 52.5,-628 52.5,-616 52.5,-616 52.5,-610 58.5,-604 64.5,-604 64.5,-604 124.5,-604 124.5,-604 130.5,-604 136.5,-610 136.5,-616 136.5,-616 136.5,-628 136.5,-628 136.5,-634 130.5,-640 124.5,-640"/>
<text text-anchor="middle" x="94.5" y="-619.5" font-family="Helvetica,sans-Serif" font-size="10.00" fill="white">10_depthwise</text>
</g>
<!-- block10_expand&#45;&gt;block10_depthwise -->
<g id="edge73" class="edge">
<title>block10_expand&#45;&gt;block10_depthwise</title>
<path fill="none" stroke="#555555" d="M97.61,-682.91C97.12,-673.34 96.48,-661.18 95.92,-650.32"/>
<polygon fill="#555555" stroke="#555555" points="99.4,-649.85 95.39,-640.04 92.41,-650.21 99.4,-649.85"/>
</g>
<!-- block10_se_fc1 -->
<g id="node62" class="node">
<title>block10_se_fc1</title>
<path fill="#7bc67b" stroke="black" stroke-width="1.5" d="M56,-561C56,-561 15,-561 15,-561 9,-561 3,-555 3,-549 3,-549 3,-537 3,-537 3,-531 9,-525 15,-525 15,-525 56,-525 56,-525 62,-525 68,-531 68,-537 68,-537 68,-549 68,-549 68,-555 62,-561 56,-561"/>
<text text-anchor="middle" x="35.5" y="-540.5" font-family="Helvetica,sans-Serif" font-size="10.00" fill="white">10_se_fc1</text>
</g>
<!-- block10_depthwise&#45;&gt;block10_se_fc1 -->
<g id="edge74" class="edge">
<title>block10_depthwise&#45;&gt;block10_se_fc1</title>
<path fill="none" stroke="#555555" d="M81.41,-603.91C73.61,-593.74 63.58,-580.65 54.89,-569.3"/>
<polygon fill="#555555" stroke="#555555" points="57.42,-566.85 48.56,-561.04 51.86,-571.11 57.42,-566.85"/>
</g>
<!-- block10_se_mul -->
<g id="node64" class="node">
<title>block10_se_mul</title>
<ellipse fill="#c75050" stroke="black" stroke-width="1.5" cx="102.5" cy="-392" rx="11" ry="11"/>
<text text-anchor="middle" x="102.5" y="-388.3" font-family="Helvetica,sans-Serif" font-size="14.00">10_se_mul</text>
</g>
<!-- block10_depthwise&#45;&gt;block10_se_mul -->
<g id="edge76" class="edge">
<title>block10_depthwise&#45;&gt;block10_se_mul</title>
<path fill="none" stroke="#555555" d="M95.1,-603.86C96.55,-562.52 100.24,-457.44 101.79,-413.16"/>
<polygon fill="#555555" stroke="#555555" points="105.29,-413.18 102.15,-403.06 98.3,-412.93 105.29,-413.18"/>
</g>
<!-- block10_se_fc2 -->
<g id="node63" class="node">
<title>block10_se_fc2</title>
<path fill="#7bc67b" stroke="black" stroke-width="1.5" d="M56,-482C56,-482 15,-482 15,-482 9,-482 3,-476 3,-470 3,-470 3,-458 3,-458 3,-452 9,-446 15,-446 15,-446 56,-446 56,-446 62,-446 68,-452 68,-458 68,-458 68,-470 68,-470 68,-476 62,-482 56,-482"/>
<text text-anchor="middle" x="35.5" y="-461.5" font-family="Helvetica,sans-Serif" font-size="10.00" fill="white">10_se_fc2</text>
</g>
<!-- block10_se_fc1&#45;&gt;block10_se_fc2 -->
<g id="edge75" class="edge">
<title>block10_se_fc1&#45;&gt;block10_se_fc2</title>
<path fill="none" stroke="#555555" d="M35.5,-524.91C35.5,-515.34 35.5,-503.18 35.5,-492.32"/>
<polygon fill="#555555" stroke="#555555" points="39,-492.04 35.5,-482.04 32,-492.04 39,-492.04"/>
</g>
<!-- block10_se_fc2&#45;&gt;block10_se_mul -->
<g id="edge77" class="edge">
<title>block10_se_fc2&#45;&gt;block10_se_mul</title>
<path fill="none" stroke="#555555" d="M52.06,-445.7C63.16,-434.1 77.63,-418.98 88.22,-407.92"/>
<polygon fill="#555555" stroke="#555555" points="90.76,-410.33 95.15,-400.68 85.71,-405.49 90.76,-410.33"/>
</g>
<!-- block10_project -->
<g id="node65" class="node">
<title>block10_project</title>
<path fill="#7bc67b" stroke="black" stroke-width="1.5" d="M124.5,-338C124.5,-338 80.5,-338 80.5,-338 74.5,-338 68.5,-332 68.5,-326 68.5,-326 68.5,-314 68.5,-314 68.5,-308 74.5,-302 80.5,-302 80.5,-302 124.5,-302 124.5,-302 130.5,-302 136.5,-308 136.5,-314 136.5,-314 136.5,-326 136.5,-326 136.5,-332 130.5,-338 124.5,-338"/>
<text text-anchor="middle" x="102.5" y="-317.5" font-family="Helvetica,sans-Serif" font-size="10.00" fill="white">10_project</text>
</g>
<!-- block10_se_mul&#45;&gt;block10_project -->
<g id="edge78" class="edge">
<title>block10_se_mul&#45;&gt;block10_project</title>
<path fill="none" stroke="#555555" d="M102.5,-380.97C102.5,-372.4 102.5,-359.67 102.5,-348.14"/>
<polygon fill="#555555" stroke="#555555" points="106,-348.04 102.5,-338.04 99,-348.04 106,-348.04"/>
</g>
<!-- block10_project&#45;&gt;block10_residual_add -->
<g id="edge79" class="edge">
<title>block10_project&#45;&gt;block10_residual_add</title>
<path fill="none" stroke="#555555" d="M112.14,-301.7C118.01,-291.16 125.5,-277.71 131.45,-267.04"/>
<polygon fill="#555555" stroke="#555555" points="134.57,-268.62 136.38,-258.18 128.46,-265.22 134.57,-268.62"/>
</g>
<!-- final_conv -->
<g id="node67" class="node">
<title>final_conv</title>
<path fill="#7bc67b" stroke="black" stroke-width="1.5" d="M162.5,-194C162.5,-194 120.5,-194 120.5,-194 114.5,-194 108.5,-188 108.5,-182 108.5,-182 108.5,-170 108.5,-170 108.5,-164 114.5,-158 120.5,-158 120.5,-158 162.5,-158 162.5,-158 168.5,-158 174.5,-164 174.5,-170 174.5,-170 174.5,-182 174.5,-182 174.5,-188 168.5,-194 162.5,-194"/>
<text text-anchor="middle" x="141.5" y="-173.5" font-family="Helvetica,sans-Serif" font-size="10.00" fill="white">final_conv</text>
</g>
<!-- block10_residual_add&#45;&gt;final_conv -->
<g id="edge81" class="edge">
<title>block10_residual_add&#45;&gt;final_conv</title>
<path fill="none" stroke="#555555" d="M141.5,-236.97C141.5,-228.4 141.5,-215.67 141.5,-204.14"/>
<polygon fill="#555555" stroke="#555555" points="145,-204.04 141.5,-194.04 138,-204.04 145,-204.04"/>
</g>
<!-- classifier -->
<g id="node68" class="node">
<title>classifier</title>
<path fill="#4a90d9" stroke="black" stroke-width="1.5" d="M159.5,-115C159.5,-115 123.5,-115 123.5,-115 117.5,-115 111.5,-109 111.5,-103 111.5,-103 111.5,-91 111.5,-91 111.5,-85 117.5,-79 123.5,-79 123.5,-79 159.5,-79 159.5,-79 165.5,-79 171.5,-85 171.5,-91 171.5,-91 171.5,-103 171.5,-103 171.5,-109 165.5,-115 159.5,-115"/>
<text text-anchor="middle" x="141.5" y="-94.5" font-family="Helvetica,sans-Serif" font-size="10.00" fill="white">classifier</text>
</g>
<!-- final_conv&#45;&gt;classifier -->
<g id="edge82" class="edge">
<title>final_conv&#45;&gt;classifier</title>
<path fill="none" stroke="#555555" d="M141.5,-157.91C141.5,-148.34 141.5,-136.18 141.5,-125.32"/>
<polygon fill="#555555" stroke="#555555" points="145,-125.04 141.5,-115.04 138,-125.04 145,-125.04"/>
</g>
<!-- head -->
<g id="node69" class="node">
<title>head</title>
<path fill="#4a90d9" stroke="black" stroke-width="1.5" d="M156.5,-36C156.5,-36 126.5,-36 126.5,-36 120.5,-36 114.5,-30 114.5,-24 114.5,-24 114.5,-12 114.5,-12 114.5,-6 120.5,0 126.5,0 126.5,0 156.5,0 156.5,0 162.5,0 168.5,-6 168.5,-12 168.5,-12 168.5,-24 168.5,-24 168.5,-30 162.5,-36 156.5,-36"/>
<text text-anchor="middle" x="141.5" y="-15.5" font-family="Helvetica,sans-Serif" font-size="10.00" fill="white">head</text>
</g>
<!-- classifier&#45;&gt;head -->
<g id="edge83" class="edge">
<title>classifier&#45;&gt;head</title>
<path fill="none" stroke="#555555" d="M141.5,-78.91C141.5,-69.34 141.5,-57.18 141.5,-46.32"/>
<polygon fill="#555555" stroke="#555555" points="145,-46.04 141.5,-36.04 138,-46.04 145,-46.04"/>
</g>
<!-- leg_linear -->
<g id="node70" class="node">
<title>leg_linear</title>
<path fill="#4a90d9" stroke="black" stroke-width="1.5" d="M307.5,-5312.11C307.5,-5312.11 233.5,-5312.11 233.5,-5312.11 230.5,-5312.11 227.5,-5309.11 227.5,-5306.11 227.5,-5306.11 227.5,-5300.11 227.5,-5300.11 227.5,-5297.11 230.5,-5294.11 233.5,-5294.11 233.5,-5294.11 307.5,-5294.11 307.5,-5294.11 310.5,-5294.11 313.5,-5297.11 313.5,-5300.11 313.5,-5300.11 313.5,-5306.11 313.5,-5306.11 313.5,-5309.11 310.5,-5312.11 307.5,-5312.11"/>
<text text-anchor="middle" x="270.5" y="-5300.91" font-family="Helvetica,sans-Serif" font-size="9.00" fill="white">linear</text>
</g>
<!-- leg_conv2d -->
<g id="node71" class="node">
<title>leg_conv2d</title>
<path fill="#50b86c" stroke="black" stroke-width="1.5" d="M307.5,-5233.11C307.5,-5233.11 233.5,-5233.11 233.5,-5233.11 230.5,-5233.11 227.5,-5230.11 227.5,-5227.11 227.5,-5227.11 227.5,-5221.11 227.5,-5221.11 227.5,-5218.11 230.5,-5215.11 233.5,-5215.11 233.5,-5215.11 307.5,-5215.11 307.5,-5215.11 310.5,-5215.11 313.5,-5218.11 313.5,-5221.11 313.5,-5221.11 313.5,-5227.11 313.5,-5227.11 313.5,-5230.11 310.5,-5233.11 307.5,-5233.11"/>
<text text-anchor="middle" x="270.5" y="-5221.91" font-family="Helvetica,sans-Serif" font-size="9.00" fill="white">conv2d</text>
</g>
<!-- leg_linear&#45;&gt;leg_conv2d -->
<!-- leg_pointwise_conv2d -->
<g id="node72" class="node">
<title>leg_pointwise_conv2d</title>
<path fill="#7bc67b" stroke="black" stroke-width="1.5" d="M312.5,-5154.11C312.5,-5154.11 228.5,-5154.11 228.5,-5154.11 225.5,-5154.11 222.5,-5151.11 222.5,-5148.11 222.5,-5148.11 222.5,-5142.11 222.5,-5142.11 222.5,-5139.11 225.5,-5136.11 228.5,-5136.11 228.5,-5136.11 312.5,-5136.11 312.5,-5136.11 315.5,-5136.11 318.5,-5139.11 318.5,-5142.11 318.5,-5142.11 318.5,-5148.11 318.5,-5148.11 318.5,-5151.11 315.5,-5154.11 312.5,-5154.11"/>
<text text-anchor="middle" x="270.5" y="-5142.91" font-family="Helvetica,sans-Serif" font-size="9.00" fill="white">pointwise conv2d</text>
</g>
<!-- leg_conv2d&#45;&gt;leg_pointwise_conv2d -->
<!-- leg_depthwise_conv2d -->
<g id="node73" class="node">
<title>leg_depthwise_conv2d</title>
<path fill="#2d8a4e" stroke="black" stroke-width="1.5" d="M314.5,-5075.11C314.5,-5075.11 226.5,-5075.11 226.5,-5075.11 223.5,-5075.11 220.5,-5072.11 220.5,-5069.11 220.5,-5069.11 220.5,-5063.11 220.5,-5063.11 220.5,-5060.11 223.5,-5057.11 226.5,-5057.11 226.5,-5057.11 314.5,-5057.11 314.5,-5057.11 317.5,-5057.11 320.5,-5060.11 320.5,-5063.11 320.5,-5063.11 320.5,-5069.11 320.5,-5069.11 320.5,-5072.11 317.5,-5075.11 314.5,-5075.11"/>
<text text-anchor="middle" x="270.5" y="-5063.91" font-family="Helvetica,sans-Serif" font-size="9.00" fill="white">depthwise conv2d</text>
</g>
<!-- leg_pointwise_conv2d&#45;&gt;leg_depthwise_conv2d -->
<!-- leg_residual_add -->
<g id="node74" class="node">
<title>leg_residual_add</title>
<ellipse fill="#e85454" stroke="black" stroke-width="1.5" cx="270.5" cy="-4962.11" rx="43" ry="43"/>
<text text-anchor="middle" x="270.5" y="-4959.91" font-family="Helvetica,sans-Serif" font-size="9.00" fill="white">residual add</text>
</g>
<!-- leg_depthwise_conv2d&#45;&gt;leg_residual_add -->
<!-- leg_elementwise_mul -->
<g id="node75" class="node">
<title>leg_elementwise_mul</title>
<ellipse fill="#c75050" stroke="black" stroke-width="1.5" cx="270.5" cy="-4828.55" rx="47.61" ry="47.61"/>
<text text-anchor="middle" x="270.5" y="-4826.35" font-family="Helvetica,sans-Serif" font-size="9.00" fill="white">elementwise mul</text>
</g>
<!-- leg_residual_add&#45;&gt;leg_elementwise_mul -->
<!-- leg_skip_src -->
<g id="node76" class="node">
<title>leg_skip_src</title>
<ellipse fill="black" stroke="black" stroke-width="1.5" cx="270.5" cy="-4720" rx="3.6" ry="3.6"/>
</g>
<!-- leg_elementwise_mul&#45;&gt;leg_skip_src -->
<!-- leg_skip_dst -->
<g id="node77" class="node">
<title>leg_skip_dst</title>
<path fill="lightgrey" stroke="transparent" stroke-width="1.5" d="M290,-4659C290,-4659 251,-4659 251,-4659 245,-4659 239,-4653 239,-4647 239,-4647 239,-4635 239,-4635 239,-4629 245,-4623 251,-4623 251,-4623 290,-4623 290,-4623 296,-4623 302,-4629 302,-4635 302,-4635 302,-4647 302,-4647 302,-4653 296,-4659 290,-4659"/>
<text text-anchor="middle" x="270.5" y="-4638.8" font-family="Helvetica,sans-Serif" font-size="9.00">skip conn.</text>
</g>
<!-- leg_skip_src&#45;&gt;leg_skip_dst -->
<g id="edge89" class="edge">
<title>leg_skip_src&#45;&gt;leg_skip_dst</title>
<path fill="none" stroke="#e85454" stroke-width="2" stroke-dasharray="5,2" d="M270.5,-4716.08C270.5,-4708.44 270.5,-4687.27 270.5,-4669.51"/>
<polygon fill="#e85454" stroke="#e85454" stroke-width="2" points="274,-4669.31 270.5,-4659.31 267,-4669.31 274,-4669.31"/>
</g>
</g>
</svg>
