<?xml version="1.0" encoding="UTF-8" standalone="no"?>
<!DOCTYPE svg PUBLIC "-//W3C//DTD SVG 1.1//EN"
 "http://www.w3.org/Graphics/SVG/1.1/DTD/svg11.dtd">
<!-- Generated by graphviz version 2.43.0 (0)
 -->
<!-- Title: G Pages: 1 -->
<svg width="532pt" height="1030pt"
 viewBox="0.00 0.00 531.50 1030.00" xmlns="http://www.w3.org/2000/svg" xmlns:xlink="http://www.w3.org/1999/xlink">
<g id="graph0" class="graph" transform="scale(1 1) rotate(0) translate(4 1026)">
<title>G</title>
<polygon fill="white" stroke="transparent" points="-4,4 -4,-1026 527.5,-1026 527.5,4 -4,4"/>
<text text-anchor="middle" x="261.75" y="-1005.2" font-family="Helvetica,sans-Serif" font-size="16.00">llama3.1_8b_decode_kv2048</text>
<g id="clust3" class="cluster">
<title>cluster_legend</title>
<path fill="#f8f8f8" stroke="#cccccc" d="M411.5,-370C411.5,-370 503.5,-370 503.5,-370 509.5,-370 515.5,-376 515.5,-382 515.5,-382 515.5,-976 515.5,-976 515.5,-982 509.5,-988 503.5,-988 503.5,-988 411.5,-988 411.5,-988 405.5,-988 399.5,-982 399.5,-976 399.5,-976 399.5,-382 399.5,-382 399.5,-376 405.5,-370 411.5,-370"/>
<text text-anchor="middle" x="457.5" y="-975.2" font-family="Helvetica,sans-Serif" font-size="11.00">Legend</text>
</g>
<!-- layer0_k_proj -->
<g id="node1" class="node">
<title>layer0_k_proj</title>
<path fill="#4a90d9" stroke="black" stroke-width="1.5" d="M59,-880C59,-880 12,-880 12,-880 6,-880 0,-874 0,-868 0,-868 0,-856 0,-856 0,-850 6,-844 12,-844 12,-844 59,-844 59,-844 65,-844 71,-850 71,-856 71,-856 71,-868 71,-868 71,-874 65,-880 59,-880"/>
<text text-anchor="middle" x="35.5" y="-865" font-family="Helvetica,sans-Serif" font-size="10.00" fill="white">k_proj</text>
<text text-anchor="middle" x="35.5" y="-854" font-family="Helvetica,sans-Serif" font-size="10.00" fill="white">4096x1024</text>
</g>
<!-- layer0_attn_qk -->
<g id="node7" class="node">
<title>layer0_attn_qk</title>
<path fill="#e8963e" stroke="black" stroke-width="1.5" d="M106.06,-776.09C106.06,-776.09 73.94,-757.91 73.94,-757.91 68.72,-754.96 68.72,-749.04 73.94,-746.09 73.94,-746.09 106.06,-727.91 106.06,-727.91 111.28,-724.96 121.72,-724.96 126.94,-727.91 126.94,-727.91 159.06,-746.09 159.06,-746.09 164.28,-749.04 164.28,-754.96 159.06,-757.91 159.06,-757.91 126.94,-776.09 126.94,-776.09 121.72,-779.04 111.28,-779.04 106.06,-776.09"/>
<text text-anchor="middle" x="116.5" y="-755" font-family="Helvetica,sans-Serif" font-size="10.00" fill="white">attn_qk</text>
<text text-anchor="middle" x="116.5" y="-744" font-family="Helvetica,sans-Serif" font-size="10.00" fill="white">1x2048</text>
</g>
<!-- layer0_k_proj&#45;&gt;layer0_attn_qk -->
<g id="edge5" class="edge">
<title>layer0_k_proj&#45;&gt;layer0_attn_qk</title>
<path fill="none" stroke="#555555" d="M35.95,-843.83C36.98,-831.84 39.85,-815.91 47.5,-804 55.73,-791.19 68.38,-780.48 80.62,-772.24"/>
<polygon fill="#555555" stroke="#555555" points="82.82,-774.99 89.38,-766.67 79.06,-769.08 82.82,-774.99"/>
<text text-anchor="middle" x="84" y="-815.6" font-family="Helvetica,sans-Serif" font-size="8.00">key</text>
<text text-anchor="middle" x="84" y="-806.6" font-family="Helvetica,sans-Serif" font-size="8.00">[1x32x2048x128]</text>
</g>
<!-- layer0_q_proj -->
<g id="node2" class="node">
<title>layer0_q_proj</title>
<path fill="#4a90d9" stroke="black" stroke-width="1.5" d="M162,-880C162,-880 115,-880 115,-880 109,-880 103,-874 103,-868 103,-868 103,-856 103,-856 103,-850 109,-844 115,-844 115,-844 162,-844 162,-844 168,-844 174,-850 174,-856 174,-856 174,-868 174,-868 174,-874 168,-880 162,-880"/>
<text text-anchor="middle" x="138.5" y="-865" font-family="Helvetica,sans-Serif" font-size="10.00" fill="white">q_proj</text>
<text text-anchor="middle" x="138.5" y="-854" font-family="Helvetica,sans-Serif" font-size="10.00" fill="white">4096x4096</text>
</g>
<!-- layer0_q_proj&#45;&gt;layer0_attn_qk -->
<g id="edge4" class="edge">
<title>layer0_q_proj&#45;&gt;layer0_attn_qk</title>
<path fill="none" stroke="#555555" d="M134.97,-843.65C131.97,-828.96 127.58,-807.42 123.84,-789.02"/>
<polygon fill="#555555" stroke="#555555" points="127.26,-788.28 121.83,-779.18 120.4,-789.68 127.26,-788.28"/>
<text text-anchor="middle" x="159" y="-815.6" font-family="Helvetica,sans-Serif" font-size="8.00">query</text>
<text text-anchor="middle" x="159" y="-806.6" font-family="Helvetica,sans-Serif" font-size="8.00">[1x32x1x128]</text>
</g>
<!-- layer0_v_proj -->
<g id="node3" class="node">
<title>layer0_v_proj</title>
<path fill="#4a90d9" stroke="black" stroke-width="1.5" d="M262,-880C262,-880 215,-880 215,-880 209,-880 203,-874 203,-868 203,-868 203,-856 203,-856 203,-850 209,-844 215,-844 215,-844 262,-844 262,-844 268,-844 274,-850 274,-856 274,-856 274,-868 274,-868 274,-874 268,-880 262,-880"/>
<text text-anchor="middle" x="238.5" y="-865" font-family="Helvetica,sans-Serif" font-size="10.00" fill="white">v_proj</text>
<text text-anchor="middle" x="238.5" y="-854" font-family="Helvetica,sans-Serif" font-size="10.00" fill="white">4096x1024</text>
</g>
<!-- layer0_attn_v -->
<g id="node8" class="node">
<title>layer0_attn_v</title>
<path fill="#d4722c" stroke="black" stroke-width="1.5" d="M217.06,-641.09C217.06,-641.09 184.94,-622.91 184.94,-622.91 179.72,-619.96 179.72,-614.04 184.94,-611.09 184.94,-611.09 217.06,-592.91 217.06,-592.91 222.28,-589.96 232.72,-589.96 237.94,-592.91 237.94,-592.91 270.06,-611.09 270.06,-611.09 275.28,-614.04 275.28,-619.96 270.06,-622.91 270.06,-622.91 237.94,-641.09 237.94,-641.09 232.72,-644.04 222.28,-644.04 217.06,-641.09"/>
<text text-anchor="middle" x="227.5" y="-620" font-family="Helvetica,sans-Serif" font-size="10.00" fill="white">attn_v</text>
<text text-anchor="middle" x="227.5" y="-609" font-family="Helvetica,sans-Serif" font-size="10.00" fill="white">1x2048</text>
</g>
<!-- layer0_v_proj&#45;&gt;layer0_attn_v -->
<g id="edge7" class="edge">
<title>layer0_v_proj&#45;&gt;layer0_attn_v</title>
<path fill="none" stroke="#555555" d="M237.73,-843.91C235.98,-805.22 231.67,-710.13 229.24,-656.47"/>
<polygon fill="#555555" stroke="#555555" points="232.73,-656.15 228.78,-646.32 225.74,-656.46 232.73,-656.15"/>
<text text-anchor="middle" x="272" y="-754.6" font-family="Helvetica,sans-Serif" font-size="8.00">value</text>
<text text-anchor="middle" x="272" y="-745.6" font-family="Helvetica,sans-Serif" font-size="8.00">[1x32x2048x128]</text>
</g>
<!-- layer0_gate_proj -->
<g id="node4" class="node">
<title>layer0_gate_proj</title>
<path fill="#4a90d9" stroke="black" stroke-width="1.5" d="M225,-316C225,-316 172,-316 172,-316 166,-316 160,-310 160,-304 160,-304 160,-292 160,-292 160,-286 166,-280 172,-280 172,-280 225,-280 225,-280 231,-280 237,-286 237,-292 237,-292 237,-304 237,-304 237,-310 231,-316 225,-316"/>
<text text-anchor="middle" x="198.5" y="-301" font-family="Helvetica,sans-Serif" font-size="10.00" fill="white">gate_proj</text>
<text text-anchor="middle" x="198.5" y="-290" font-family="Helvetica,sans-Serif" font-size="10.00" fill="white">4096x14336</text>
</g>
<!-- layer0_down_proj -->
<g id="node11" class="node">
<title>layer0_down_proj</title>
<path fill="#4a90d9" stroke="black" stroke-width="1.5" d="M328,-218C328,-218 275,-218 275,-218 269,-218 263,-212 263,-206 263,-206 263,-194 263,-194 263,-188 269,-182 275,-182 275,-182 328,-182 328,-182 334,-182 340,-188 340,-194 340,-194 340,-206 340,-206 340,-212 334,-218 328,-218"/>
<text text-anchor="middle" x="301.5" y="-203" font-family="Helvetica,sans-Serif" font-size="10.00" fill="white">down_proj</text>
<text text-anchor="middle" x="301.5" y="-192" font-family="Helvetica,sans-Serif" font-size="10.00" fill="white">14336x4096</text>
</g>
<!-- layer0_gate_proj&#45;&gt;layer0_down_proj -->
<g id="edge13" class="edge">
<title>layer0_gate_proj&#45;&gt;layer0_down_proj</title>
<path fill="none" stroke="#555555" d="M208.65,-280C216.39,-267.93 227.85,-251.84 240.5,-240 246.77,-234.14 254.03,-228.62 261.31,-223.7"/>
<polygon fill="#555555" stroke="#555555" points="263.32,-226.57 269.81,-218.19 259.52,-220.69 263.32,-226.57"/>
<text text-anchor="middle" x="266.5" y="-251.6" font-family="Helvetica,sans-Serif" font-size="8.00">gate_output</text>
<text text-anchor="middle" x="266.5" y="-242.6" font-family="Helvetica,sans-Serif" font-size="8.00">[1x1x14336]</text>
</g>
<!-- layer0_up_proj -->
<g id="node5" class="node">
<title>layer0_up_proj</title>
<path fill="#4a90d9" stroke="black" stroke-width="1.5" d="M331,-316C331,-316 278,-316 278,-316 272,-316 266,-310 266,-304 266,-304 266,-292 266,-292 266,-286 272,-280 278,-280 278,-280 331,-280 331,-280 337,-280 343,-286 343,-292 343,-292 343,-304 343,-304 343,-310 337,-316 331,-316"/>
<text text-anchor="middle" x="304.5" y="-301" font-family="Helvetica,sans-Serif" font-size="10.00" fill="white">up_proj</text>
<text text-anchor="middle" x="304.5" y="-290" font-family="Helvetica,sans-Serif" font-size="10.00" fill="white">4096x14336</text>
</g>
<!-- layer0_up_proj&#45;&gt;layer0_down_proj -->
<g id="edge14" class="edge">
<title>layer0_up_proj&#45;&gt;layer0_down_proj</title>
<path fill="none" stroke="#555555" d="M301.84,-279.96C300.9,-273.15 299.96,-265.22 299.5,-258 298.88,-248.31 299.03,-237.67 299.45,-228.24"/>
<polygon fill="#555555" stroke="#555555" points="302.95,-228.4 300.01,-218.22 295.96,-228.01 302.95,-228.4"/>
<text text-anchor="middle" x="325.5" y="-251.6" font-family="Helvetica,sans-Serif" font-size="8.00">up_output</text>
<text text-anchor="middle" x="325.5" y="-242.6" font-family="Helvetica,sans-Serif" font-size="8.00">[1x1x14336]</text>
</g>
<!-- layer0_input -->
<g id="node6" class="node">
<title>layer0_input</title>
<ellipse fill="#e8e8e8" stroke="black" stroke-width="1.5" cx="193.5" cy="-951" rx="27" ry="18"/>
<text text-anchor="middle" x="193.5" y="-948.5" font-family="Helvetica,sans-Serif" font-size="10.00">input</text>
</g>
<!-- layer0_input&#45;&gt;layer0_k_proj -->
<g id="edge2" class="edge">
<title>layer0_input&#45;&gt;layer0_k_proj</title>
<path fill="none" stroke="#555555" d="M170.03,-941.56C151.25,-934.42 124.51,-923.41 102.5,-911 89.69,-903.78 76.36,-894.62 65,-886.24"/>
<polygon fill="#555555" stroke="#555555" points="66.83,-883.24 56.74,-880.03 62.63,-888.83 66.83,-883.24"/>
<text text-anchor="middle" x="126" y="-904.6" font-family="Helvetica,sans-Serif" font-size="8.00">[1x1x4096]</text>
</g>
<!-- layer0_input&#45;&gt;layer0_q_proj -->
<g id="edge1" class="edge">
<title>layer0_input&#45;&gt;layer0_q_proj</title>
<path fill="none" stroke="#555555" d="M179.84,-935.09C173.79,-928.08 166.86,-919.42 161.5,-911 157.27,-904.36 153.31,-896.81 149.9,-889.71"/>
<polygon fill="#555555" stroke="#555555" points="152.99,-888.04 145.63,-880.42 146.63,-890.96 152.99,-888.04"/>
<text text-anchor="middle" x="185" y="-904.6" font-family="Helvetica,sans-Serif" font-size="8.00">[1x1x4096]</text>
</g>
<!-- layer0_input&#45;&gt;layer0_v_proj -->
<g id="edge3" class="edge">
<title>layer0_input&#45;&gt;layer0_v_proj</title>
<path fill="none" stroke="#555555" d="M201.96,-933.64C208.44,-921.12 217.49,-903.61 224.97,-889.16"/>
<polygon fill="#555555" stroke="#555555" points="228.13,-890.67 229.61,-880.18 221.91,-887.46 228.13,-890.67"/>
<text text-anchor="middle" x="241" y="-904.6" font-family="Helvetica,sans-Serif" font-size="8.00">[1x1x4096]</text>
</g>
<!-- layer0_attn_residual_add -->
<g id="node10" class="node">
<title>layer0_attn_residual_add</title>
<ellipse fill="#e85454" stroke="black" stroke-width="1.5" cx="304.5" cy="-396" rx="11" ry="11"/>
<text text-anchor="middle" x="304.5" y="-392.3" font-family="Helvetica,sans-Serif" font-size="14.00">+</text>
</g>
<!-- layer0_input&#45;&gt;layer0_attn_residual_add -->
<g id="edge10" class="edge">
<title>layer0_input&#45;&gt;layer0_attn_residual_add</title>
<path fill="none" stroke="#e85454" stroke-width="2" stroke-dasharray="5,2" d="M219.8,-946.89C263.06,-940.14 344.5,-919.88 344.5,-863 344.5,-863 344.5,-863 344.5,-493 344.5,-463.48 328.18,-432.51 316.39,-413.98"/>
<polygon fill="#e85454" stroke="#e85454" stroke-width="2" points="319.2,-411.89 310.75,-405.5 313.38,-415.76 319.2,-411.89"/>
<text text-anchor="middle" x="368" y="-693.6" font-family="Helvetica,sans-Serif" font-size="8.00">residual</text>
<text text-anchor="middle" x="368" y="-684.6" font-family="Helvetica,sans-Serif" font-size="8.00">[1x1x4096]</text>
</g>
<!-- layer0_attn_qk&#45;&gt;layer0_attn_v -->
<g id="edge6" class="edge">
<title>layer0_attn_qk&#45;&gt;layer0_attn_v</title>
<path fill="none" stroke="#555555" d="M122.87,-725.37C127.15,-711.59 133.82,-694.84 143.5,-682 156.85,-664.3 176.33,-649.04 193.17,-637.87"/>
<polygon fill="#555555" stroke="#555555" points="195.16,-640.75 201.69,-632.41 191.38,-634.86 195.16,-640.75"/>
<text text-anchor="middle" x="174.5" y="-693.6" font-family="Helvetica,sans-Serif" font-size="8.00">scores</text>
<text text-anchor="middle" x="174.5" y="-684.6" font-family="Helvetica,sans-Serif" font-size="8.00">[1x32x1x2048]</text>
</g>
<!-- layer0_o_proj -->
<g id="node9" class="node">
<title>layer0_o_proj</title>
<path fill="#4a90d9" stroke="black" stroke-width="1.5" d="M279,-512C279,-512 232,-512 232,-512 226,-512 220,-506 220,-500 220,-500 220,-488 220,-488 220,-482 226,-476 232,-476 232,-476 279,-476 279,-476 285,-476 291,-482 291,-488 291,-488 291,-500 291,-500 291,-506 285,-512 279,-512"/>
<text text-anchor="middle" x="255.5" y="-497" font-family="Helvetica,sans-Serif" font-size="10.00" fill="white">o_proj</text>
<text text-anchor="middle" x="255.5" y="-486" font-family="Helvetica,sans-Serif" font-size="10.00" fill="white">4096x4096</text>
</g>
<!-- layer0_attn_v&#45;&gt;layer0_o_proj -->
<g id="edge8" class="edge">
<title>layer0_attn_v&#45;&gt;layer0_o_proj</title>
<path fill="none" stroke="#555555" d="M233.44,-590.34C238.09,-570.25 244.53,-542.4 249.26,-521.98"/>
<polygon fill="#555555" stroke="#555555" points="252.71,-522.6 251.55,-512.06 245.89,-521.02 252.71,-522.6"/>
<text text-anchor="middle" x="270.5" y="-545.6" font-family="Helvetica,sans-Serif" font-size="8.00">attn_output</text>
<text text-anchor="middle" x="270.5" y="-536.6" font-family="Helvetica,sans-Serif" font-size="8.00">[1x1x4096]</text>
</g>
<!-- layer0_o_proj&#45;&gt;layer0_attn_residual_add -->
<g id="edge9" class="edge">
<title>layer0_o_proj&#45;&gt;layer0_attn_residual_add</title>
<path fill="none" stroke="#555555" d="M256.23,-475.95C257.33,-464.15 260.01,-448.42 266.5,-436 271.77,-425.91 280.5,-416.68 288.25,-409.74"/>
<polygon fill="#555555" stroke="#555555" points="290.67,-412.28 296.09,-403.17 286.18,-406.91 290.67,-412.28"/>
<text text-anchor="middle" x="294.5" y="-447.6" font-family="Helvetica,sans-Serif" font-size="8.00">o_proj_output</text>
<text text-anchor="middle" x="294.5" y="-438.6" font-family="Helvetica,sans-Serif" font-size="8.00">[1x1x4096]</text>
</g>
<!-- layer0_attn_residual_add&#45;&gt;layer0_gate_proj -->
<g id="edge11" class="edge">
<title>layer0_attn_residual_add&#45;&gt;layer0_gate_proj</title>
<path fill="none" stroke="#555555" d="M295.67,-389.44C284.62,-382.29 265.34,-369.24 250.5,-356 239.43,-346.12 228.2,-334.12 219.03,-323.69"/>
<polygon fill="#555555" stroke="#555555" points="221.64,-321.35 212.45,-316.07 216.34,-325.92 221.64,-321.35"/>
<text text-anchor="middle" x="274" y="-349.6" font-family="Helvetica,sans-Serif" font-size="8.00">post_attn</text>
<text text-anchor="middle" x="274" y="-340.6" font-family="Helvetica,sans-Serif" font-size="8.00">[1x1x4096]</text>
</g>
<!-- layer0_attn_residual_add&#45;&gt;layer0_up_proj -->
<g id="edge12" class="edge">
<title>layer0_attn_residual_add&#45;&gt;layer0_up_proj</title>
<path fill="none" stroke="#555555" d="M304.5,-384.73C304.5,-370.93 304.5,-345.91 304.5,-326.44"/>
<polygon fill="#555555" stroke="#555555" points="308,-326.31 304.5,-316.31 301,-326.31 308,-326.31"/>
<text text-anchor="middle" x="328" y="-349.6" font-family="Helvetica,sans-Serif" font-size="8.00">post_attn</text>
<text text-anchor="middle" x="328" y="-340.6" font-family="Helvetica,sans-Serif" font-size="8.00">[1x1x4096]</text>
</g>
<!-- layer0_mlp_residual_add -->
<g id="node12" class="node">
<title>layer0_mlp_residual_add</title>
<ellipse fill="#e85454" stroke="black" stroke-width="1.5" cx="344.5" cy="-109" rx="11" ry="11"/>
<text text-anchor="middle" x="344.5" y="-105.3" font-family="Helvetica,sans-Serif" font-size="14.00">+</text>
</g>
<!-- layer0_attn_residual_add&#45;&gt;layer0_mlp_residual_add -->
<g id="edge16" class="edge">
<title>layer0_attn_residual_add&#45;&gt;layer0_mlp_residual_add</title>
<path fill="none" stroke="#e85454" stroke-width="2" stroke-dasharray="5,2" d="M314.61,-391C327.39,-385.34 348.89,-373.68 358.5,-356 400.18,-279.38 366.28,-247.2 368.5,-160 368.7,-152 371.03,-149.59 368.5,-142 366.42,-135.75 362.59,-129.74 358.59,-124.65"/>
<polygon fill="#e85454" stroke="#e85454" stroke-width="2" points="361.19,-122.31 351.98,-117.07 355.91,-126.91 361.19,-122.31"/>
<text text-anchor="middle" x="402" y="-251.6" font-family="Helvetica,sans-Serif" font-size="8.00">residual</text>
<text text-anchor="middle" x="402" y="-242.6" font-family="Helvetica,sans-Serif" font-size="8.00">[1x1x4096]</text>
</g>
<!-- layer0_down_proj&#45;&gt;layer0_mlp_residual_add -->
<g id="edge15" class="edge">
<title>layer0_down_proj&#45;&gt;layer0_mlp_residual_add</title>
<path fill="none" stroke="#555555" d="M297.63,-181.87C295.86,-170.04 295.33,-154.29 301.5,-142 306.58,-131.88 316.55,-124.15 325.62,-118.82"/>
<polygon fill="#555555" stroke="#555555" points="327.27,-121.91 334.49,-114.14 324.01,-115.71 327.27,-121.91"/>
<text text-anchor="middle" x="333.5" y="-153.6" font-family="Helvetica,sans-Serif" font-size="8.00">down_proj_ou...</text>
<text text-anchor="middle" x="333.5" y="-144.6" font-family="Helvetica,sans-Serif" font-size="8.00">[1x1x4096]</text>
</g>
<!-- lm_head -->
<g id="node13" class="node">
<title>lm_head</title>
<path fill="#4a90d9" stroke="black" stroke-width="1.5" d="M306,-36C306,-36 247,-36 247,-36 241,-36 235,-30 235,-24 235,-24 235,-12 235,-12 235,-6 241,0 247,0 247,0 306,0 306,0 312,0 318,-6 318,-12 318,-12 318,-24 318,-24 318,-30 312,-36 306,-36"/>
<text text-anchor="middle" x="276.5" y="-21" font-family="Helvetica,sans-Serif" font-size="10.00" fill="white">lm_head</text>
<text text-anchor="middle" x="276.5" y="-10" font-family="Helvetica,sans-Serif" font-size="10.00" fill="white">4096x128256</text>
</g>
<!-- layer0_mlp_residual_add&#45;&gt;lm_head -->
<g id="edge17" class="edge">
<title>layer0_mlp_residual_add&#45;&gt;lm_head</title>
<path fill="none" stroke="#555555" d="M338.22,-99.79C328.7,-87.32 310.2,-63.11 295.93,-44.42"/>
<polygon fill="#555555" stroke="#555555" points="298.56,-42.11 289.71,-36.29 293,-46.36 298.56,-42.11"/>
<text text-anchor="middle" x="345" y="-69.6" font-family="Helvetica,sans-Serif" font-size="8.00">final_hidden</text>
<text text-anchor="middle" x="345" y="-60.6" font-family="Helvetica,sans-Serif" font-size="8.00">[1x1x4096]</text>
</g>
<!-- repeat_note -->
<g id="node14" class="node">
<title>repeat_note</title>
<polygon fill="#ffffcc" stroke="black" stroke-width="1.5" points="472,-36 347,-36 347,0 478,0 478,-30 472,-36"/>
<polyline fill="none" stroke="black" stroke-width="1.5" points="472,-36 472,-30 "/>
<polyline fill="none" stroke="black" stroke-width="1.5" points="478,-30 472,-30 "/>
<text text-anchor="middle" x="412.5" y="-15.2" font-family="Helvetica,sans-Serif" font-size="11.00" fill="#666666">Repeated x32 layers</text>
</g>
<!-- layer0_mlp_residual_add&#45;&gt;repeat_note -->
<g id="edge18" class="edge">
<title>layer0_mlp_residual_add&#45;&gt;repeat_note</title>
<path fill="none" stroke="#999999" stroke-dasharray="1,5" d="M352.66,-101.13C359.7,-94.97 369.91,-85.46 377.5,-76 387.52,-63.5 396.91,-47.91 403.44,-36.2"/>
</g>
<!-- leg_linear -->
<g id="node15" class="node">
<title>leg_linear</title>
<path fill="#4a90d9" stroke="black" stroke-width="1.5" d="M494.5,-960C494.5,-960 420.5,-960 420.5,-960 417.5,-960 414.5,-957 414.5,-954 414.5,-954 414.5,-948 414.5,-948 414.5,-945 417.5,-942 420.5,-942 420.5,-942 494.5,-942 494.5,-942 497.5,-942 500.5,-945 500.5,-948 500.5,-948 500.5,-954 500.5,-954 500.5,-957 497.5,-960 494.5,-960"/>
<text text-anchor="middle" x="457.5" y="-948.8" font-family="Helvetica,sans-Serif" font-size="9.00" fill="white">linear</text>
</g>
<!-- leg_attn_qk -->
<g id="node16" class="node">
<title>leg_attn_qk</title>
<path fill="#e8963e" stroke="black" stroke-width="1.5" d="M446.21,-875.94C446.21,-875.94 418.79,-866.06 418.79,-866.06 413.15,-864.03 413.15,-859.97 418.79,-857.94 418.79,-857.94 446.21,-848.06 446.21,-848.06 451.85,-846.03 463.15,-846.03 468.79,-848.06 468.79,-848.06 496.21,-857.94 496.21,-857.94 501.85,-859.97 501.85,-864.03 496.21,-866.06 496.21,-866.06 468.79,-875.94 468.79,-875.94 463.15,-877.97 451.85,-877.97 446.21,-875.94"/>
<text text-anchor="middle" x="457.5" y="-859.8" font-family="Helvetica,sans-Serif" font-size="9.00" fill="white">attn qk</text>
</g>
<!-- leg_linear&#45;&gt;leg_attn_qk -->
<!-- leg_attn_v -->
<g id="node17" class="node">
<title>leg_attn_v</title>
<path fill="#d4722c" stroke="black" stroke-width="1.5" d="M446.39,-765.46C446.39,-765.46 424.61,-756.54 424.61,-756.54 419.05,-754.27 419.05,-749.73 424.61,-747.46 424.61,-747.46 446.39,-738.54 446.39,-738.54 451.95,-736.27 463.05,-736.27 468.61,-738.54 468.61,-738.54 490.39,-747.46 490.39,-747.46 495.95,-749.73 495.95,-754.27 490.39,-756.54 490.39,-756.54 468.61,-765.46 468.61,-765.46 463.05,-767.73 451.95,-767.73 446.39,-765.46"/>
<text text-anchor="middle" x="457.5" y="-749.8" font-family="Helvetica,sans-Serif" font-size="9.00" fill="white">attn v</text>
</g>
<!-- leg_attn_qk&#45;&gt;leg_attn_v -->
<!-- leg_residual_add -->
<g id="node18" class="node">
<title>leg_residual_add</title>
<ellipse fill="#e85454" stroke="black" stroke-width="1.5" cx="457.5" cy="-617" rx="43" ry="43"/>
<text text-anchor="middle" x="457.5" y="-614.8" font-family="Helvetica,sans-Serif" font-size="9.00" fill="white">residual add</text>
</g>
<!-- leg_attn_v&#45;&gt;leg_residual_add -->
<!-- leg_skip_src -->
<g id="node19" class="node">
<title>leg_skip_src</title>
<ellipse fill="black" stroke="black" stroke-width="1.5" cx="457.5" cy="-494" rx="3.6" ry="3.6"/>
</g>
<!-- leg_residual_add&#45;&gt;leg_skip_src -->
<!-- leg_skip_dst -->
<g id="node20" class="node">
<title>leg_skip_dst</title>
<path fill="lightgrey" stroke="transparent" stroke-width="1.5" d="M477,-414C477,-414 438,-414 438,-414 432,-414 426,-408 426,-402 426,-402 426,-390 426,-390 426,-384 432,-378 438,-378 438,-378 477,-378 477,-378 483,-378 489,-384 489,-390 489,-390 489,-402 489,-402 489,-408 483,-414 477,-414"/>
<text text-anchor="middle" x="457.5" y="-393.8" font-family="Helvetica,sans-Serif" font-size="9.00">skip conn.</text>
</g>
<!-- leg_skip_src&#45;&gt;leg_skip_dst -->
<g id="edge22" class="edge">
<title>leg_skip_src&#45;&gt;leg_skip_dst</title>
<path fill="none" stroke="#e85454" stroke-width="2" stroke-dasharray="5,2" d="M457.5,-490.23C457.5,-480.69 457.5,-448.44 457.5,-424.53"/>
<polygon fill="#e85454" stroke="#e85454" stroke-width="2" points="461,-424.24 457.5,-414.24 454,-424.24 461,-424.24"/>
</g>
</g>
</svg>
