<?xml version="1.0" encoding="UTF-8" standalone="no"?>
<!DOCTYPE svg PUBLIC "-//W3C//DTD SVG 1.1//EN"
 "http://www.w3.org/Graphics/SVG/1.1/DTD/svg11.dtd">
<!-- Generated by graphviz version 2.43.0 (0)
 -->
<!-- Title: G Pages: 1 -->
<svg width="610pt" height="1518pt"
 viewBox="0.00 0.00 609.50 1518.00" xmlns="http://www.w3.org/2000/svg" xmlns:xlink="http://www.w3.org/1999/xlink">
<g id="graph0" class="graph" transform="scale(1 1) rotate(0) translate(4 1514)">
<title>G</title>
<polygon fill="white" stroke="transparent" points="-4,4 -4,-1514 605.5,-1514 605.5,4 -4,4"/>
<text text-anchor="middle" x="300.75" y="-1493.2" font-family="Helvetica,sans-Serif" font-size="16.00">llama3.1_70b_prefill_s2048</text>
<g id="clust3" class="cluster">
<title>cluster_legend</title>
<path fill="#f8f8f8" stroke="#cccccc" d="M433.5,-370C433.5,-370 581.5,-370 581.5,-370 587.5,-370 593.5,-376 593.5,-382 593.5,-382 593.5,-1464 593.5,-1464 593.5,-1470 587.5,-1476 581.5,-1476 581.5,-1476 433.5,-1476 433.5,-1476 427.5,-1476 421.5,-1470 421.5,-1464 421.5,-1464 421.5,-382 421.5,-382 421.5,-376 427.5,-370 433.5,-370"/>
<text text-anchor="middle" x="507.5" y="-1463.2" font-family="Helvetica,sans-Serif" font-size="11.00">Legend</text>
</g>
<!-- layer0_k_proj -->
<g id="node1" class="node">
<title>layer0_k_proj</title>
<path fill="#4a90d9" stroke="black" stroke-width="1.5" d="M59,-1368C59,-1368 12,-1368 12,-1368 6,-1368 0,-1362 0,-1356 0,-1356 0,-1344 0,-1344 0,-1338 6,-1332 12,-1332 12,-1332 59,-1332 59,-1332 65,-1332 71,-1338 71,-1344 71,-1344 71,-1356 71,-1356 71,-1362 65,-1368 59,-1368"/>
<text text-anchor="middle" x="35.5" y="-1353" font-family="Helvetica,sans-Serif" font-size="10.00" fill="white">k_proj</text>
<text text-anchor="middle" x="35.5" y="-1342" font-family="Helvetica,sans-Serif" font-size="10.00" fill="white">8192x1024</text>
</g>
<!-- layer0_attn_qk -->
<g id="node7" class="node">
<title>layer0_attn_qk</title>
<path fill="#e8963e" stroke="black" stroke-width="1.5" d="M81.45,-1265.33C81.45,-1265.33 32.55,-1244.67 32.55,-1244.67 27.03,-1242.34 27.03,-1237.66 32.55,-1235.33 32.55,-1235.33 81.45,-1214.67 81.45,-1214.67 86.97,-1212.34 98.03,-1212.34 103.55,-1214.67 103.55,-1214.67 152.45,-1235.33 152.45,-1235.33 157.97,-1237.66 157.97,-1242.34 152.45,-1244.67 152.45,-1244.67 103.55,-1265.33 103.55,-1265.33 98.03,-1267.66 86.97,-1267.66 81.45,-1265.33"/>
<text text-anchor="middle" x="92.5" y="-1243" font-family="Helvetica,sans-Serif" font-size="10.00" fill="white">attn_qk</text>
<text text-anchor="middle" x="92.5" y="-1232" font-family="Helvetica,sans-Serif" font-size="10.00" fill="white">2048x2048</text>
</g>
<!-- layer0_k_proj&#45;&gt;layer0_attn_qk -->
<g id="edge5" class="edge">
<title>layer0_k_proj&#45;&gt;layer0_attn_qk</title>
<path fill="none" stroke="#555555" d="M31.47,-1331.77C29.6,-1320.04 28.87,-1304.44 34.5,-1292 39.24,-1281.52 47.31,-1272.34 55.95,-1264.77"/>
<polygon fill="#555555" stroke="#555555" points="58.4,-1267.28 63.97,-1258.27 53.99,-1261.85 58.4,-1267.28"/>
<text text-anchor="middle" x="71" y="-1303.6" font-family="Helvetica,sans-Serif" font-size="8.00">key</text>
<text text-anchor="middle" x="71" y="-1294.6" font-family="Helvetica,sans-Serif" font-size="8.00">[1x64x2048x128]</text>
</g>
<!-- layer0_q_proj -->
<g id="node2" class="node">
<title>layer0_q_proj</title>
<path fill="#4a90d9" stroke="black" stroke-width="1.5" d="M159,-1368C159,-1368 112,-1368 112,-1368 106,-1368 100,-1362 100,-1356 100,-1356 100,-1344 100,-1344 100,-1338 106,-1332 112,-1332 112,-1332 159,-1332 159,-1332 165,-1332 171,-1338 171,-1344 171,-1344 171,-1356 171,-1356 171,-1362 165,-1368 159,-1368"/>
<text text-anchor="middle" x="135.5" y="-1353" font-family="Helvetica,sans-Serif" font-size="10.00" fill="white">q_proj</text>
<text text-anchor="middle" x="135.5" y="-1342" font-family="Helvetica,sans-Serif" font-size="10.00" fill="white">8192x8192</text>
</g>
<!-- layer0_q_proj&#45;&gt;layer0_attn_qk -->
<g id="edge4" class="edge">
<title>layer0_q_proj&#45;&gt;layer0_attn_qk</title>
<path fill="none" stroke="#555555" d="M128.59,-1331.65C122.57,-1316.52 113.65,-1294.12 106.18,-1275.37"/>
<polygon fill="#555555" stroke="#555555" points="109.39,-1273.95 102.44,-1265.96 102.88,-1276.54 109.39,-1273.95"/>
<text text-anchor="middle" x="156" y="-1303.6" font-family="Helvetica,sans-Serif" font-size="8.00">query</text>
<text text-anchor="middle" x="156" y="-1294.6" font-family="Helvetica,sans-Serif" font-size="8.00">[1x64x2048x128]</text>
</g>
<!-- layer0_v_proj -->
<g id="node3" class="node">
<title>layer0_v_proj</title>
<path fill="#4a90d9" stroke="black" stroke-width="1.5" d="M259,-1368C259,-1368 212,-1368 212,-1368 206,-1368 200,-1362 200,-1356 200,-1356 200,-1344 200,-1344 200,-1338 206,-1332 212,-1332 212,-1332 259,-1332 259,-1332 265,-1332 271,-1338 271,-1344 271,-1344 271,-1356 271,-1356 271,-1362 265,-1368 259,-1368"/>
<text text-anchor="middle" x="235.5" y="-1353" font-family="Helvetica,sans-Serif" font-size="10.00" fill="white">v_proj</text>
<text text-anchor="middle" x="235.5" y="-1342" font-family="Helvetica,sans-Serif" font-size="10.00" fill="white">8192x1024</text>
</g>
<!-- layer0_attn_v -->
<g id="node12" class="node">
<title>layer0_attn_v</title>
<path fill="#d4722c" stroke="black" stroke-width="1.5" d="M222.45,-642.33C222.45,-642.33 173.55,-621.67 173.55,-621.67 168.03,-619.34 168.03,-614.66 173.55,-612.33 173.55,-612.33 222.45,-591.67 222.45,-591.67 227.97,-589.34 239.03,-589.34 244.55,-591.67 244.55,-591.67 293.45,-612.33 293.45,-612.33 298.97,-614.66 298.97,-619.34 293.45,-621.67 293.45,-621.67 244.55,-642.33 244.55,-642.33 239.03,-644.66 227.97,-644.66 222.45,-642.33"/>
<text text-anchor="middle" x="233.5" y="-620" font-family="Helvetica,sans-Serif" font-size="10.00" fill="white">attn_v</text>
<text text-anchor="middle" x="233.5" y="-609" font-family="Helvetica,sans-Serif" font-size="10.00" fill="white">2048x2048</text>
</g>
<!-- layer0_v_proj&#45;&gt;layer0_attn_v -->
<g id="edge11" class="edge">
<title>layer0_v_proj&#45;&gt;layer0_attn_v</title>
<path fill="none" stroke="#555555" d="M234.98,-1331.79C234.39,-1310.48 233.5,-1273.07 233.5,-1241 233.5,-1241 233.5,-1241 233.5,-751 233.5,-719.4 233.5,-683.59 233.5,-657.09"/>
<polygon fill="#555555" stroke="#555555" points="237,-657.06 233.5,-647.06 230,-657.06 237,-657.06"/>
<text text-anchor="middle" x="270" y="-998.6" font-family="Helvetica,sans-Serif" font-size="8.00">value</text>
<text text-anchor="middle" x="270" y="-989.6" font-family="Helvetica,sans-Serif" font-size="8.00">[1x64x2048x128]</text>
</g>
<!-- layer0_gate_proj -->
<g id="node4" class="node">
<title>layer0_gate_proj</title>
<path fill="#4a90d9" stroke="black" stroke-width="1.5" d="M229,-316C229,-316 176,-316 176,-316 170,-316 164,-310 164,-304 164,-304 164,-292 164,-292 164,-286 170,-280 176,-280 176,-280 229,-280 229,-280 235,-280 241,-286 241,-292 241,-292 241,-304 241,-304 241,-310 235,-316 229,-316"/>
<text text-anchor="middle" x="202.5" y="-301" font-family="Helvetica,sans-Serif" font-size="10.00" fill="white">gate_proj</text>
<text text-anchor="middle" x="202.5" y="-290" font-family="Helvetica,sans-Serif" font-size="10.00" fill="white">8192x28672</text>
</g>
<!-- layer0_down_proj -->
<g id="node15" class="node">
<title>layer0_down_proj</title>
<path fill="#4a90d9" stroke="black" stroke-width="1.5" d="M331,-218C331,-218 278,-218 278,-218 272,-218 266,-212 266,-206 266,-206 266,-194 266,-194 266,-188 272,-182 278,-182 278,-182 331,-182 331,-182 337,-182 343,-188 343,-194 343,-194 343,-206 343,-206 343,-212 337,-218 331,-218"/>
<text text-anchor="middle" x="304.5" y="-203" font-family="Helvetica,sans-Serif" font-size="10.00" fill="white">down_proj</text>
<text text-anchor="middle" x="304.5" y="-192" font-family="Helvetica,sans-Serif" font-size="10.00" fill="white">28672x8192</text>
</g>
<!-- layer0_gate_proj&#45;&gt;layer0_down_proj -->
<g id="edge17" class="edge">
<title>layer0_gate_proj&#45;&gt;layer0_down_proj</title>
<path fill="none" stroke="#555555" d="M206.68,-279.79C210.42,-267.47 216.96,-251.15 227.5,-240 235.62,-231.41 246.05,-224.41 256.6,-218.84"/>
<polygon fill="#555555" stroke="#555555" points="258.4,-221.85 265.83,-214.31 255.32,-215.57 258.4,-221.85"/>
<text text-anchor="middle" x="261.5" y="-251.6" font-family="Helvetica,sans-Serif" font-size="8.00">gate_output</text>
<text text-anchor="middle" x="261.5" y="-242.6" font-family="Helvetica,sans-Serif" font-size="8.00">[1x2048x28672]</text>
</g>
<!-- layer0_up_proj -->
<g id="node5" class="node">
<title>layer0_up_proj</title>
<path fill="#4a90d9" stroke="black" stroke-width="1.5" d="M335,-316C335,-316 282,-316 282,-316 276,-316 270,-310 270,-304 270,-304 270,-292 270,-292 270,-286 276,-280 282,-280 282,-280 335,-280 335,-280 341,-280 347,-286 347,-292 347,-292 347,-304 347,-304 347,-310 341,-316 335,-316"/>
<text text-anchor="middle" x="308.5" y="-301" font-family="Helvetica,sans-Serif" font-size="10.00" fill="white">up_proj</text>
<text text-anchor="middle" x="308.5" y="-290" font-family="Helvetica,sans-Serif" font-size="10.00" fill="white">8192x28672</text>
</g>
<!-- layer0_up_proj&#45;&gt;layer0_down_proj -->
<g id="edge18" class="edge">
<title>layer0_up_proj&#45;&gt;layer0_down_proj</title>
<path fill="none" stroke="#555555" d="M305.3,-279.98C304.18,-273.17 303.05,-265.24 302.5,-258 301.76,-248.32 301.88,-237.68 302.31,-228.25"/>
<polygon fill="#555555" stroke="#555555" points="305.81,-228.42 302.9,-218.23 298.82,-228.01 305.81,-228.42"/>
<text text-anchor="middle" x="336.5" y="-251.6" font-family="Helvetica,sans-Serif" font-size="8.00">up_output</text>
<text text-anchor="middle" x="336.5" y="-242.6" font-family="Helvetica,sans-Serif" font-size="8.00">[1x2048x28672]</text>
</g>
<!-- layer0_input -->
<g id="node6" class="node">
<title>layer0_input</title>
<ellipse fill="#e8e8e8" stroke="black" stroke-width="1.5" cx="186.5" cy="-1439" rx="27" ry="18"/>
<text text-anchor="middle" x="186.5" y="-1436.5" font-family="Helvetica,sans-Serif" font-size="10.00">input</text>
</g>
<!-- layer0_input&#45;&gt;layer0_k_proj -->
<g id="edge2" class="edge">
<title>layer0_input&#45;&gt;layer0_k_proj</title>
<path fill="none" stroke="#555555" d="M160.05,-1434.45C134.26,-1429.89 95.02,-1419.91 67.5,-1399 59.85,-1393.19 53.44,-1385 48.42,-1377.02"/>
<polygon fill="#555555" stroke="#555555" points="51.38,-1375.15 43.34,-1368.25 45.32,-1378.65 51.38,-1375.15"/>
<text text-anchor="middle" x="99" y="-1392.6" font-family="Helvetica,sans-Serif" font-size="8.00">[1x2048x8192]</text>
</g>
<!-- layer0_input&#45;&gt;layer0_q_proj -->
<g id="edge1" class="edge">
<title>layer0_input&#45;&gt;layer0_q_proj</title>
<path fill="none" stroke="#555555" d="M166.79,-1426.42C157.19,-1419.68 146.46,-1410.3 140.5,-1399 137.27,-1392.87 135.6,-1385.7 134.83,-1378.79"/>
<polygon fill="#555555" stroke="#555555" points="138.29,-1378.13 134.25,-1368.34 131.31,-1378.52 138.29,-1378.13"/>
<text text-anchor="middle" x="172" y="-1392.6" font-family="Helvetica,sans-Serif" font-size="8.00">[1x2048x8192]</text>
</g>
<!-- layer0_input&#45;&gt;layer0_v_proj -->
<g id="edge3" class="edge">
<title>layer0_input&#45;&gt;layer0_v_proj</title>
<path fill="none" stroke="#555555" d="M195.72,-1421.64C202.77,-1409.12 212.63,-1391.61 220.77,-1377.16"/>
<polygon fill="#555555" stroke="#555555" points="223.96,-1378.61 225.82,-1368.18 217.86,-1375.18 223.96,-1378.61"/>
<text text-anchor="middle" x="244" y="-1392.6" font-family="Helvetica,sans-Serif" font-size="8.00">[1x2048x8192]</text>
</g>
<!-- layer0_attn_residual_add -->
<g id="node14" class="node">
<title>layer0_attn_residual_add</title>
<ellipse fill="#e85454" stroke="black" stroke-width="1.5" cx="308.5" cy="-396" rx="11" ry="11"/>
<text text-anchor="middle" x="308.5" y="-392.3" font-family="Helvetica,sans-Serif" font-size="14.00">+</text>
</g>
<!-- layer0_input&#45;&gt;layer0_attn_residual_add -->
<g id="edge14" class="edge">
<title>layer0_input&#45;&gt;layer0_attn_residual_add</title>
<path fill="none" stroke="#e85454" stroke-width="2" stroke-dasharray="5,2" d="M213.21,-1435.89C259.69,-1430.59 350.5,-1412.4 350.5,-1351 350.5,-1351 350.5,-1351 350.5,-493 350.5,-463.12 333.21,-432.06 320.82,-413.64"/>
<polygon fill="#e85454" stroke="#e85454" stroke-width="2" points="323.68,-411.62 315.06,-405.45 317.95,-415.65 323.68,-411.62"/>
<text text-anchor="middle" x="382" y="-937.6" font-family="Helvetica,sans-Serif" font-size="8.00">residual</text>
<text text-anchor="middle" x="382" y="-928.6" font-family="Helvetica,sans-Serif" font-size="8.00">[1x2048x8192]</text>
</g>
<!-- layer0_softmax_max -->
<g id="node8" class="node">
<title>layer0_softmax_max</title>
<path fill="#f5c842" stroke="black" stroke-width="1.5" d="M166.6,-1148C166.6,-1148 53.63,-1148 53.63,-1148 47.63,-1148 38.6,-1142.83 35.56,-1137.65 35.56,-1137.65 12.48,-1098.35 12.48,-1098.35 9.44,-1093.17 12.4,-1088 18.4,-1088 18.4,-1088 131.37,-1088 131.37,-1088 137.37,-1088 146.4,-1093.17 149.44,-1098.35 149.44,-1098.35 172.52,-1137.65 172.52,-1137.65 175.56,-1142.83 172.6,-1148 166.6,-1148"/>
<text text-anchor="middle" x="92.5" y="-1121" font-family="Helvetica,sans-Serif" font-size="10.00" fill="white">softmax_max</text>
<text text-anchor="middle" x="92.5" y="-1110" font-family="Helvetica,sans-Serif" font-size="10.00" fill="white">2048x2048</text>
</g>
<!-- layer0_attn_qk&#45;&gt;layer0_softmax_max -->
<g id="edge6" class="edge">
<title>layer0_attn_qk&#45;&gt;layer0_softmax_max</title>
<path fill="none" stroke="#555555" d="M92.5,-1209.95C92.5,-1194.44 92.5,-1175.13 92.5,-1158.3"/>
<polygon fill="#555555" stroke="#555555" points="96,-1158.2 92.5,-1148.2 89,-1158.2 96,-1158.2"/>
<text text-anchor="middle" x="131.5" y="-1181.6" font-family="Helvetica,sans-Serif" font-size="8.00">scores</text>
<text text-anchor="middle" x="131.5" y="-1172.6" font-family="Helvetica,sans-Serif" font-size="8.00">[1x64x2048x2048]</text>
</g>
<!-- layer0_softmax_exp -->
<g id="node9" class="node">
<title>layer0_softmax_exp</title>
<path fill="#f0b429" stroke="black" stroke-width="1.5" d="M163.38,-1026C163.38,-1026 55.54,-1026 55.54,-1026 49.54,-1026 40.58,-1020.78 37.63,-1015.55 37.63,-1015.55 15.52,-976.45 15.52,-976.45 12.57,-971.22 15.62,-966 21.62,-966 21.62,-966 129.46,-966 129.46,-966 135.46,-966 144.42,-971.22 147.37,-976.45 147.37,-976.45 169.48,-1015.55 169.48,-1015.55 172.43,-1020.78 169.38,-1026 163.38,-1026"/>
<text text-anchor="middle" x="92.5" y="-999" font-family="Helvetica,sans-Serif" font-size="10.00" fill="white">softmax_exp</text>
<text text-anchor="middle" x="92.5" y="-988" font-family="Helvetica,sans-Serif" font-size="10.00" fill="white">2048x2048</text>
</g>
<!-- layer0_softmax_max&#45;&gt;layer0_softmax_exp -->
<g id="edge7" class="edge">
<title>layer0_softmax_max&#45;&gt;layer0_softmax_exp</title>
<path fill="none" stroke="#555555" d="M92.5,-1087.95C92.5,-1072.44 92.5,-1053.13 92.5,-1036.3"/>
<polygon fill="#555555" stroke="#555555" points="96,-1036.2 92.5,-1026.2 89,-1036.2 96,-1036.2"/>
<text text-anchor="middle" x="131.5" y="-1059.6" font-family="Helvetica,sans-Serif" font-size="8.00">scores_max</text>
<text text-anchor="middle" x="131.5" y="-1050.6" font-family="Helvetica,sans-Serif" font-size="8.00">[1x64x2048x2048]</text>
</g>
<!-- layer0_softmax_sum -->
<g id="node10" class="node">
<title>layer0_softmax_sum</title>
<path fill="#e8963e" stroke="black" stroke-width="1.5" d="M174.6,-904C174.6,-904 61.63,-904 61.63,-904 55.63,-904 46.6,-898.83 43.56,-893.65 43.56,-893.65 20.48,-854.35 20.48,-854.35 17.44,-849.17 20.4,-844 26.4,-844 26.4,-844 139.37,-844 139.37,-844 145.37,-844 154.4,-849.17 157.44,-854.35 157.44,-854.35 180.52,-893.65 180.52,-893.65 183.56,-898.83 180.6,-904 174.6,-904"/>
<text text-anchor="middle" x="100.5" y="-877" font-family="Helvetica,sans-Serif" font-size="10.00" fill="white">softmax_sum</text>
<text text-anchor="middle" x="100.5" y="-866" font-family="Helvetica,sans-Serif" font-size="10.00" fill="white">2048x2048</text>
</g>
<!-- layer0_softmax_exp&#45;&gt;layer0_softmax_sum -->
<g id="edge8" class="edge">
<title>layer0_softmax_exp&#45;&gt;layer0_softmax_sum</title>
<path fill="none" stroke="#555555" d="M94.44,-965.95C95.47,-950.44 96.76,-931.13 97.88,-914.3"/>
<polygon fill="#555555" stroke="#555555" points="101.38,-914.41 98.55,-904.2 94.4,-913.94 101.38,-914.41"/>
<text text-anchor="middle" x="136.5" y="-937.6" font-family="Helvetica,sans-Serif" font-size="8.00">scores_exp</text>
<text text-anchor="middle" x="136.5" y="-928.6" font-family="Helvetica,sans-Serif" font-size="8.00">[1x64x2048x2048]</text>
</g>
<!-- layer0_softmax_div -->
<g id="node11" class="node">
<title>layer0_softmax_div</title>
<path fill="#d4832c" stroke="black" stroke-width="1.5" d="M176.16,-782C176.16,-782 73.44,-782 73.44,-782 67.44,-782 58.57,-776.73 55.71,-771.46 55.71,-771.46 34.57,-732.54 34.57,-732.54 31.7,-727.27 34.84,-722 40.84,-722 40.84,-722 143.56,-722 143.56,-722 149.56,-722 158.43,-727.27 161.29,-732.54 161.29,-732.54 182.43,-771.46 182.43,-771.46 185.3,-776.73 182.16,-782 176.16,-782"/>
<text text-anchor="middle" x="108.5" y="-755" font-family="Helvetica,sans-Serif" font-size="10.00" fill="white">softmax_div</text>
<text text-anchor="middle" x="108.5" y="-744" font-family="Helvetica,sans-Serif" font-size="10.00" fill="white">2048x2048</text>
</g>
<!-- layer0_softmax_sum&#45;&gt;layer0_softmax_div -->
<g id="edge9" class="edge">
<title>layer0_softmax_sum&#45;&gt;layer0_softmax_div</title>
<path fill="none" stroke="#555555" d="M102.44,-843.95C103.47,-828.44 104.76,-809.13 105.88,-792.3"/>
<polygon fill="#555555" stroke="#555555" points="109.38,-792.41 106.55,-782.2 102.4,-791.94 109.38,-792.41"/>
<text text-anchor="middle" x="144.5" y="-815.6" font-family="Helvetica,sans-Serif" font-size="8.00">scores_sum</text>
<text text-anchor="middle" x="144.5" y="-806.6" font-family="Helvetica,sans-Serif" font-size="8.00">[1x64x2048x2048]</text>
</g>
<!-- layer0_softmax_div&#45;&gt;layer0_attn_v -->
<g id="edge10" class="edge">
<title>layer0_softmax_div&#45;&gt;layer0_attn_v</title>
<path fill="none" stroke="#555555" d="M114.57,-721.68C118.37,-708.53 124.35,-693.44 133.5,-682 148.5,-663.24 170.57,-648.3 190.16,-637.58"/>
<polygon fill="#555555" stroke="#555555" points="192.02,-640.56 199.24,-632.81 188.76,-634.36 192.02,-640.56"/>
<text text-anchor="middle" x="172.5" y="-693.6" font-family="Helvetica,sans-Serif" font-size="8.00">attn_weights</text>
<text text-anchor="middle" x="172.5" y="-684.6" font-family="Helvetica,sans-Serif" font-size="8.00">[1x64x2048x2048]</text>
</g>
<!-- layer0_o_proj -->
<g id="node13" class="node">
<title>layer0_o_proj</title>
<path fill="#4a90d9" stroke="black" stroke-width="1.5" d="M291,-512C291,-512 244,-512 244,-512 238,-512 232,-506 232,-500 232,-500 232,-488 232,-488 232,-482 238,-476 244,-476 244,-476 291,-476 291,-476 297,-476 303,-482 303,-488 303,-488 303,-500 303,-500 303,-506 297,-512 291,-512"/>
<text text-anchor="middle" x="267.5" y="-497" font-family="Helvetica,sans-Serif" font-size="10.00" fill="white">o_proj</text>
<text text-anchor="middle" x="267.5" y="-486" font-family="Helvetica,sans-Serif" font-size="10.00" fill="white">8192x8192</text>
</g>
<!-- layer0_attn_v&#45;&gt;layer0_o_proj -->
<g id="edge12" class="edge">
<title>layer0_attn_v&#45;&gt;layer0_o_proj</title>
<path fill="none" stroke="#555555" d="M240.79,-590.04C246.41,-570.06 254.15,-542.5 259.85,-522.21"/>
<polygon fill="#555555" stroke="#555555" points="263.29,-522.91 262.63,-512.34 256.55,-521.02 263.29,-522.91"/>
<text text-anchor="middle" x="289" y="-545.6" font-family="Helvetica,sans-Serif" font-size="8.00">attn_output</text>
<text text-anchor="middle" x="289" y="-536.6" font-family="Helvetica,sans-Serif" font-size="8.00">[1x2048x8192]</text>
</g>
<!-- layer0_o_proj&#45;&gt;layer0_attn_residual_add -->
<g id="edge13" class="edge">
<title>layer0_o_proj&#45;&gt;layer0_attn_residual_add</title>
<path fill="none" stroke="#555555" d="M263.09,-475.8C260.98,-464.08 259.96,-448.49 265.5,-436 270.7,-424.27 281.36,-414.56 290.77,-407.76"/>
<polygon fill="#555555" stroke="#555555" points="292.79,-410.62 299.18,-402.17 288.92,-404.79 292.79,-410.62"/>
<text text-anchor="middle" x="297" y="-447.6" font-family="Helvetica,sans-Serif" font-size="8.00">o_proj_output</text>
<text text-anchor="middle" x="297" y="-438.6" font-family="Helvetica,sans-Serif" font-size="8.00">[1x2048x8192]</text>
</g>
<!-- layer0_attn_residual_add&#45;&gt;layer0_gate_proj -->
<g id="edge15" class="edge">
<title>layer0_attn_residual_add&#45;&gt;layer0_gate_proj</title>
<path fill="none" stroke="#555555" d="M298.46,-391.28C283.91,-385.5 256.69,-373.21 238.5,-356 229.16,-347.16 221.21,-335.42 215.18,-324.89"/>
<polygon fill="#555555" stroke="#555555" points="218.22,-323.17 210.38,-316.05 212.07,-326.5 218.22,-323.17"/>
<text text-anchor="middle" x="270" y="-349.6" font-family="Helvetica,sans-Serif" font-size="8.00">post_attn</text>
<text text-anchor="middle" x="270" y="-340.6" font-family="Helvetica,sans-Serif" font-size="8.00">[1x2048x8192]</text>
</g>
<!-- layer0_attn_residual_add&#45;&gt;layer0_up_proj -->
<g id="edge16" class="edge">
<title>layer0_attn_residual_add&#45;&gt;layer0_up_proj</title>
<path fill="none" stroke="#555555" d="M308.5,-384.73C308.5,-370.93 308.5,-345.91 308.5,-326.44"/>
<polygon fill="#555555" stroke="#555555" points="312,-326.31 308.5,-316.31 305,-326.31 312,-326.31"/>
<text text-anchor="middle" x="340" y="-349.6" font-family="Helvetica,sans-Serif" font-size="8.00">post_attn</text>
<text text-anchor="middle" x="340" y="-340.6" font-family="Helvetica,sans-Serif" font-size="8.00">[1x2048x8192]</text>
</g>
<!-- layer0_mlp_residual_add -->
<g id="node16" class="node">
<title>layer0_mlp_residual_add</title>
<ellipse fill="#e85454" stroke="black" stroke-width="1.5" cx="355.5" cy="-109" rx="11" ry="11"/>
<text text-anchor="middle" x="355.5" y="-105.3" font-family="Helvetica,sans-Serif" font-size="14.00">+</text>
</g>
<!-- layer0_attn_residual_add&#45;&gt;layer0_mlp_residual_add -->
<g id="edge20" class="edge">
<title>layer0_attn_residual_add&#45;&gt;layer0_mlp_residual_add</title>
<path fill="none" stroke="#e85454" stroke-width="2" stroke-dasharray="5,2" d="M319.06,-392.58C335.09,-388.28 365.1,-377.65 378.5,-356 428.6,-275.05 423.93,-229.95 387.5,-142 384.32,-134.31 378.29,-127.51 372.32,-122.18"/>
<polygon fill="#e85454" stroke="#e85454" stroke-width="2" points="374.47,-119.41 364.49,-115.87 370.08,-124.87 374.47,-119.41"/>
<text text-anchor="middle" x="446" y="-251.6" font-family="Helvetica,sans-Serif" font-size="8.00">residual</text>
<text text-anchor="middle" x="446" y="-242.6" font-family="Helvetica,sans-Serif" font-size="8.00">[1x2048x8192]</text>
</g>
<!-- layer0_down_proj&#45;&gt;layer0_mlp_residual_add -->
<g id="edge19" class="edge">
<title>layer0_down_proj&#45;&gt;layer0_mlp_residual_add</title>
<path fill="none" stroke="#555555" d="M306.78,-181.79C308.94,-169.92 313.01,-154.17 320.5,-142 325.13,-134.48 332.02,-127.65 338.47,-122.24"/>
<polygon fill="#555555" stroke="#555555" points="340.98,-124.72 346.73,-115.83 336.69,-119.19 340.98,-124.72"/>
<text text-anchor="middle" x="352.5" y="-153.6" font-family="Helvetica,sans-Serif" font-size="8.00">down_proj_ou...</text>
<text text-anchor="middle" x="352.5" y="-144.6" font-family="Helvetica,sans-Serif" font-size="8.00">[1x2048x8192]</text>
</g>
<!-- lm_head -->
<g id="node17" class="node">
<title>lm_head</title>
<path fill="#4a90d9" stroke="black" stroke-width="1.5" d="M317,-36C317,-36 258,-36 258,-36 252,-36 246,-30 246,-24 246,-24 246,-12 246,-12 246,-6 252,0 258,0 258,0 317,0 317,0 323,0 329,-6 329,-12 329,-12 329,-24 329,-24 329,-30 323,-36 317,-36"/>
<text text-anchor="middle" x="287.5" y="-21" font-family="Helvetica,sans-Serif" font-size="10.00" fill="white">lm_head</text>
<text text-anchor="middle" x="287.5" y="-10" font-family="Helvetica,sans-Serif" font-size="10.00" fill="white">8192x128256</text>
</g>
<!-- layer0_mlp_residual_add&#45;&gt;lm_head -->
<g id="edge21" class="edge">
<title>layer0_mlp_residual_add&#45;&gt;lm_head</title>
<path fill="none" stroke="#555555" d="M349.22,-99.79C339.7,-87.32 321.2,-63.11 306.93,-44.42"/>
<polygon fill="#555555" stroke="#555555" points="309.56,-42.11 300.71,-36.29 304,-46.36 309.56,-42.11"/>
<text text-anchor="middle" x="362" y="-69.6" font-family="Helvetica,sans-Serif" font-size="8.00">final_hidden</text>
<text text-anchor="middle" x="362" y="-60.6" font-family="Helvetica,sans-Serif" font-size="8.00">[1x2048x8192]</text>
</g>
<!-- repeat_note -->
<g id="node18" class="node">
<title>repeat_note</title>
<polygon fill="#ffffcc" stroke="black" stroke-width="1.5" points="483,-36 358,-36 358,0 489,0 489,-30 483,-36"/>
<polyline fill="none" stroke="black" stroke-width="1.5" points="483,-36 483,-30 "/>
<polyline fill="none" stroke="black" stroke-width="1.5" points="489,-30 483,-30 "/>
<text text-anchor="middle" x="423.5" y="-15.2" font-family="Helvetica,sans-Serif" font-size="11.00" fill="#666666">Repeated x80 layers</text>
</g>
<!-- layer0_mlp_residual_add&#45;&gt;repeat_note -->
<g id="edge22" class="edge">
<title>layer0_mlp_residual_add&#45;&gt;repeat_note</title>
<path fill="none" stroke="#999999" stroke-dasharray="1,5" d="M364.98,-103.35C375.03,-98 390.76,-88.34 400.5,-76 409.82,-64.19 415.85,-48.1 419.39,-36.02"/>
</g>
<!-- leg_linear -->
<g id="node19" class="node">
<title>leg_linear</title>
<path fill="#4a90d9" stroke="black" stroke-width="1.5" d="M544.5,-1448C544.5,-1448 470.5,-1448 470.5,-1448 467.5,-1448 464.5,-1445 464.5,-1442 464.5,-1442 464.5,-1436 464.5,-1436 464.5,-1433 467.5,-1430 470.5,-1430 470.5,-1430 544.5,-1430 544.5,-1430 547.5,-1430 550.5,-1433 550.5,-1436 550.5,-1436 550.5,-1442 550.5,-1442 550.5,-1445 547.5,-1448 544.5,-1448"/>
<text text-anchor="middle" x="507.5" y="-1436.8" font-family="Helvetica,sans-Serif" font-size="9.00" fill="white">linear</text>
</g>
<!-- leg_attn_qk -->
<g id="node20" class="node">
<title>leg_attn_qk</title>
<path fill="#e8963e" stroke="black" stroke-width="1.5" d="M496.21,-1363.94C496.21,-1363.94 468.79,-1354.06 468.79,-1354.06 463.15,-1352.03 463.15,-1347.97 468.79,-1345.94 468.79,-1345.94 496.21,-1336.06 496.21,-1336.06 501.85,-1334.03 513.15,-1334.03 518.79,-1336.06 518.79,-1336.06 546.21,-1345.94 546.21,-1345.94 551.85,-1347.97 551.85,-1352.03 546.21,-1354.06 546.21,-1354.06 518.79,-1363.94 518.79,-1363.94 513.15,-1365.97 501.85,-1365.97 496.21,-1363.94"/>
<text text-anchor="middle" x="507.5" y="-1347.8" font-family="Helvetica,sans-Serif" font-size="9.00" fill="white">attn qk</text>
</g>
<!-- leg_linear&#45;&gt;leg_attn_qk -->
<!-- leg_softmax_max -->
<g id="node21" class="node">
<title>leg_softmax_max</title>
<path fill="#f5c842" stroke="black" stroke-width="1.5" d="M573.01,-1258C573.01,-1258 473.71,-1258 473.71,-1258 467.71,-1258 457.74,-1253.5 453.77,-1249 453.77,-1249 437.92,-1231 437.92,-1231 433.95,-1226.5 435.99,-1222 441.99,-1222 441.99,-1222 541.29,-1222 541.29,-1222 547.29,-1222 557.26,-1226.5 561.23,-1231 561.23,-1231 577.08,-1249 577.08,-1249 581.05,-1253.5 579.01,-1258 573.01,-1258"/>
<text text-anchor="middle" x="507.5" y="-1237.8" font-family="Helvetica,sans-Serif" font-size="9.00" fill="white">softmax max</text>
</g>
<!-- leg_attn_qk&#45;&gt;leg_softmax_max -->
<!-- leg_softmax_exp -->
<g id="node22" class="node">
<title>leg_softmax_exp</title>
<path fill="#f0b429" stroke="black" stroke-width="1.5" d="M570.29,-1136C570.29,-1136 475.31,-1136 475.31,-1136 469.31,-1136 459.43,-1131.43 455.54,-1126.86 455.54,-1126.86 440.48,-1109.14 440.48,-1109.14 436.59,-1104.57 438.71,-1100 444.71,-1100 444.71,-1100 539.69,-1100 539.69,-1100 545.69,-1100 555.57,-1104.57 559.46,-1109.14 559.46,-1109.14 574.52,-1126.86 574.52,-1126.86 578.41,-1131.43 576.29,-1136 570.29,-1136"/>
<text text-anchor="middle" x="507.5" y="-1115.8" font-family="Helvetica,sans-Serif" font-size="9.00" fill="white">softmax exp</text>
</g>
<!-- leg_softmax_max&#45;&gt;leg_softmax_exp -->
<!-- leg_softmax_sum -->
<g id="node23" class="node">
<title>leg_softmax_sum</title>
<path fill="#e8963e" stroke="black" stroke-width="1.5" d="M573.01,-1014C573.01,-1014 473.71,-1014 473.71,-1014 467.71,-1014 457.74,-1009.5 453.77,-1005 453.77,-1005 437.92,-987 437.92,-987 433.95,-982.5 435.99,-978 441.99,-978 441.99,-978 541.29,-978 541.29,-978 547.29,-978 557.26,-982.5 561.23,-987 561.23,-987 577.08,-1005 577.08,-1005 581.05,-1009.5 579.01,-1014 573.01,-1014"/>
<text text-anchor="middle" x="507.5" y="-993.8" font-family="Helvetica,sans-Serif" font-size="9.00" fill="white">softmax sum</text>
</g>
<!-- leg_softmax_exp&#45;&gt;leg_softmax_sum -->
<!-- leg_softmax_div -->
<g id="node24" class="node">
<title>leg_softmax_div</title>
<path fill="#d4832c" stroke="black" stroke-width="1.5" d="M567.07,-892C567.07,-892 477.22,-892 477.22,-892 471.22,-892 461.43,-887.35 457.64,-882.69 457.64,-882.69 443.5,-865.31 443.5,-865.31 439.71,-860.65 441.93,-856 447.93,-856 447.93,-856 537.78,-856 537.78,-856 543.78,-856 553.57,-860.65 557.36,-865.31 557.36,-865.31 571.5,-882.69 571.5,-882.69 575.29,-887.35 573.07,-892 567.07,-892"/>
<text text-anchor="middle" x="507.5" y="-871.8" font-family="Helvetica,sans-Serif" font-size="9.00" fill="white">softmax div</text>
</g>
<!-- leg_softmax_sum&#45;&gt;leg_softmax_div -->
<!-- leg_attn_v -->
<g id="node25" class="node">
<title>leg_attn_v</title>
<path fill="#d4722c" stroke="black" stroke-width="1.5" d="M496.39,-765.46C496.39,-765.46 474.61,-756.54 474.61,-756.54 469.05,-754.27 469.05,-749.73 474.61,-747.46 474.61,-747.46 496.39,-738.54 496.39,-738.54 501.95,-736.27 513.05,-736.27 518.61,-738.54 518.61,-738.54 540.39,-747.46 540.39,-747.46 545.95,-749.73 545.95,-754.27 540.39,-756.54 540.39,-756.54 518.61,-765.46 518.61,-765.46 513.05,-767.73 501.95,-767.73 496.39,-765.46"/>
<text text-anchor="middle" x="507.5" y="-749.8" font-family="Helvetica,sans-Serif" font-size="9.00" fill="white">attn v</text>
</g>
<!-- leg_softmax_div&#45;&gt;leg_attn_v -->
<!-- leg_residual_add -->
<g id="node26" class="node">
<title>leg_residual_add</title>
<ellipse fill="#e85454" stroke="black" stroke-width="1.5" cx="507.5" cy="-617" rx="43" ry="43"/>
<text text-anchor="middle" x="507.5" y="-614.8" font-family="Helvetica,sans-Serif" font-size="9.00" fill="white">residual add</text>
</g>
<!-- leg_attn_v&#45;&gt;leg_residual_add -->
<!-- leg_skip_src -->
<g id="node27" class="node">
<title>leg_skip_src</title>
<ellipse fill="black" stroke="black" stroke-width="1.5" cx="507.5" cy="-494" rx="3.6" ry="3.6"/>
</g>
<!-- leg_residual_add&#45;&gt;leg_skip_src -->
<!-- leg_skip_dst -->
<g id="node28" class="node">
<title>leg_skip_dst</title>
<path fill="lightgrey" stroke="transparent" stroke-width="1.5" d="M527,-414C527,-414 488,-414 488,-414 482,-414 476,-408 476,-402 476,-402 476,-390 476,-390 476,-384 482,-378 488,-378 488,-378 527,-378 527,-378 533,-378 539,-384 539,-390 539,-390 539,-402 539,-402 539,-408 533,-414 527,-414"/>
<text text-anchor="middle" x="507.5" y="-393.8" font-family="Helvetica,sans-Serif" font-size="9.00">skip conn.</text>
</g>
<!-- leg_skip_src&#45;&gt;leg_skip_dst -->
<g id="edge30" class="edge">
<title>leg_skip_src&#45;&gt;leg_skip_dst</title>
<path fill="none" stroke="#e85454" stroke-width="2" stroke-dasharray="5,2" d="M507.5,-490.23C507.5,-480.69 507.5,-448.44 507.5,-424.53"/>
<polygon fill="#e85454" stroke="#e85454" stroke-width="2" points="511,-424.24 507.5,-414.24 504,-424.24 511,-424.24"/>
</g>
</g>
</svg>
