<?xml version="1.0" encoding="UTF-8" standalone="no"?>
<!DOCTYPE svg PUBLIC "-//W3C//DTD SVG 1.1//EN"
 "http://www.w3.org/Graphics/SVG/1.1/DTD/svg11.dtd">
<!-- Generated by graphviz version 2.43.0 (0)
 -->
<!-- Title: G Pages: 1 -->
<svg width="557pt" height="1030pt"
 viewBox="0.00 0.00 556.50 1030.00" xmlns="http://www.w3.org/2000/svg" xmlns:xlink="http://www.w3.org/1999/xlink">
<g id="graph0" class="graph" transform="scale(1 1) rotate(0) translate(4 1026)">
<title>G</title>
<polygon fill="white" stroke="transparent" points="-4,4 -4,-1026 552.5,-1026 552.5,4 -4,4"/>
<text text-anchor="middle" x="274.25" y="-1005.2" font-family="Helvetica,sans-Serif" font-size="16.00">llama3.1_8b_prefill_s2048</text>
<g id="clust3" class="cluster">
<title>cluster_legend</title>
<path fill="#f8f8f8" stroke="#cccccc" d="M436.5,-370C436.5,-370 528.5,-370 528.5,-370 534.5,-370 540.5,-376 540.5,-382 540.5,-382 540.5,-976 540.5,-976 540.5,-982 534.5,-988 528.5,-988 528.5,-988 436.5,-988 436.5,-988 430.5,-988 424.5,-982 424.5,-976 424.5,-976 424.5,-382 424.5,-382 424.5,-376 430.5,-370 436.5,-370"/>
<text text-anchor="middle" x="482.5" y="-975.2" font-family="Helvetica,sans-Serif" font-size="11.00">Legend</text>
</g>
<!-- layer0_k_proj -->
<g id="node1" class="node">
<title>layer0_k_proj</title>
<path fill="#4a90d9" stroke="black" stroke-width="1.5" d="M59,-880C59,-880 12,-880 12,-880 6,-880 0,-874 0,-868 0,-868 0,-856 0,-856 0,-850 6,-844 12,-844 12,-844 59,-844 59,-844 65,-844 71,-850 71,-856 71,-856 71,-868 71,-868 71,-874 65,-880 59,-880"/>
<text text-anchor="middle" x="35.5" y="-865" font-family="Helvetica,sans-Serif" font-size="10.00" fill="white">k_proj</text>
<text text-anchor="middle" x="35.5" y="-854" font-family="Helvetica,sans-Serif" font-size="10.00" fill="white">4096x1024</text>
</g>
<!-- layer0_attn_qk -->
<g id="node7" class="node">
<title>layer0_attn_qk</title>
<path fill="#e8963e" stroke="black" stroke-width="1.5" d="M96.45,-777.33C96.45,-777.33 47.55,-756.67 47.55,-756.67 42.03,-754.34 42.03,-749.66 47.55,-747.33 47.55,-747.33 96.45,-726.67 96.45,-726.67 101.97,-724.34 113.03,-724.34 118.55,-726.67 118.55,-726.67 167.45,-747.33 167.45,-747.33 172.97,-749.66 172.97,-754.34 167.45,-756.67 167.45,-756.67 118.55,-777.33 118.55,-777.33 113.03,-779.66 101.97,-779.66 96.45,-777.33"/>
<text text-anchor="middle" x="107.5" y="-755" font-family="Helvetica,sans-Serif" font-size="10.00" fill="white">attn_qk</text>
<text text-anchor="middle" x="107.5" y="-744" font-family="Helvetica,sans-Serif" font-size="10.00" fill="white">2048x2048</text>
</g>
<!-- layer0_k_proj&#45;&gt;layer0_attn_qk -->
<g id="edge5" class="edge">
<title>layer0_k_proj&#45;&gt;layer0_attn_qk</title>
<path fill="none" stroke="#555555" d="M34.67,-843.98C34.82,-832.06 36.56,-816.15 43.5,-804 49.77,-793.01 59.43,-783.5 69.35,-775.76"/>
<polygon fill="#555555" stroke="#555555" points="71.66,-778.4 77.68,-769.68 67.54,-772.75 71.66,-778.4"/>
<text text-anchor="middle" x="80" y="-815.6" font-family="Helvetica,sans-Serif" font-size="8.00">key</text>
<text text-anchor="middle" x="80" y="-806.6" font-family="Helvetica,sans-Serif" font-size="8.00">[1x32x2048x128]</text>
</g>
<!-- layer0_q_proj -->
<g id="node2" class="node">
<title>layer0_q_proj</title>
<path fill="#4a90d9" stroke="black" stroke-width="1.5" d="M162,-880C162,-880 115,-880 115,-880 109,-880 103,-874 103,-868 103,-868 103,-856 103,-856 103,-850 109,-844 115,-844 115,-844 162,-844 162,-844 168,-844 174,-850 174,-856 174,-856 174,-868 174,-868 174,-874 168,-880 162,-880"/>
<text text-anchor="middle" x="138.5" y="-865" font-family="Helvetica,sans-Serif" font-size="10.00" fill="white">q_proj</text>
<text text-anchor="middle" x="138.5" y="-854" font-family="Helvetica,sans-Serif" font-size="10.00" fill="white">4096x4096</text>
</g>
<!-- layer0_q_proj&#45;&gt;layer0_attn_qk -->
<g id="edge4" class="edge">
<title>layer0_q_proj&#45;&gt;layer0_attn_qk</title>
<path fill="none" stroke="#555555" d="M133.52,-843.65C129.3,-828.96 123.12,-807.42 117.84,-789.02"/>
<polygon fill="#555555" stroke="#555555" points="121.14,-787.83 115.02,-779.18 114.41,-789.76 121.14,-787.83"/>
<text text-anchor="middle" x="164" y="-815.6" font-family="Helvetica,sans-Serif" font-size="8.00">query</text>
<text text-anchor="middle" x="164" y="-806.6" font-family="Helvetica,sans-Serif" font-size="8.00">[1x32x2048x128]</text>
</g>
<!-- layer0_v_proj -->
<g id="node3" class="node">
<title>layer0_v_proj</title>
<path fill="#4a90d9" stroke="black" stroke-width="1.5" d="M262,-880C262,-880 215,-880 215,-880 209,-880 203,-874 203,-868 203,-868 203,-856 203,-856 203,-850 209,-844 215,-844 215,-844 262,-844 262,-844 268,-844 274,-850 274,-856 274,-856 274,-868 274,-868 274,-874 268,-880 262,-880"/>
<text text-anchor="middle" x="238.5" y="-865" font-family="Helvetica,sans-Serif" font-size="10.00" fill="white">v_proj</text>
<text text-anchor="middle" x="238.5" y="-854" font-family="Helvetica,sans-Serif" font-size="10.00" fill="white">4096x1024</text>
</g>
<!-- layer0_attn_v -->
<g id="node8" class="node">
<title>layer0_attn_v</title>
<path fill="#d4722c" stroke="black" stroke-width="1.5" d="M225.45,-642.33C225.45,-642.33 176.55,-621.67 176.55,-621.67 171.03,-619.34 171.03,-614.66 176.55,-612.33 176.55,-612.33 225.45,-591.67 225.45,-591.67 230.97,-589.34 242.03,-589.34 247.55,-591.67 247.55,-591.67 296.45,-612.33 296.45,-612.33 301.97,-614.66 301.97,-619.34 296.45,-621.67 296.45,-621.67 247.55,-642.33 247.55,-642.33 242.03,-644.66 230.97,-644.66 225.45,-642.33"/>
<text text-anchor="middle" x="236.5" y="-620" font-family="Helvetica,sans-Serif" font-size="10.00" fill="white">attn_v</text>
<text text-anchor="middle" x="236.5" y="-609" font-family="Helvetica,sans-Serif" font-size="10.00" fill="white">2048x2048</text>
</g>
<!-- layer0_v_proj&#45;&gt;layer0_attn_v -->
<g id="edge7" class="edge">
<title>layer0_v_proj&#45;&gt;layer0_attn_v</title>
<path fill="none" stroke="#555555" d="M238.36,-843.91C238.04,-805.43 237.27,-711.12 236.82,-657.31"/>
<polygon fill="#555555" stroke="#555555" points="240.32,-657.09 236.74,-647.12 233.32,-657.15 240.32,-657.09"/>
<text text-anchor="middle" x="275" y="-754.6" font-family="Helvetica,sans-Serif" font-size="8.00">value</text>
<text text-anchor="middle" x="275" y="-745.6" font-family="Helvetica,sans-Serif" font-size="8.00">[1x32x2048x128]</text>
</g>
<!-- layer0_gate_proj -->
<g id="node4" class="node">
<title>layer0_gate_proj</title>
<path fill="#4a90d9" stroke="black" stroke-width="1.5" d="M232,-316C232,-316 179,-316 179,-316 173,-316 167,-310 167,-304 167,-304 167,-292 167,-292 167,-286 173,-280 179,-280 179,-280 232,-280 232,-280 238,-280 244,-286 244,-292 244,-292 244,-304 244,-304 244,-310 238,-316 232,-316"/>
<text text-anchor="middle" x="205.5" y="-301" font-family="Helvetica,sans-Serif" font-size="10.00" fill="white">gate_proj</text>
<text text-anchor="middle" x="205.5" y="-290" font-family="Helvetica,sans-Serif" font-size="10.00" fill="white">4096x14336</text>
</g>
<!-- layer0_down_proj -->
<g id="node11" class="node">
<title>layer0_down_proj</title>
<path fill="#4a90d9" stroke="black" stroke-width="1.5" d="M334,-218C334,-218 281,-218 281,-218 275,-218 269,-212 269,-206 269,-206 269,-194 269,-194 269,-188 275,-182 281,-182 281,-182 334,-182 334,-182 340,-182 346,-188 346,-194 346,-194 346,-206 346,-206 346,-212 340,-218 334,-218"/>
<text text-anchor="middle" x="307.5" y="-203" font-family="Helvetica,sans-Serif" font-size="10.00" fill="white">down_proj</text>
<text text-anchor="middle" x="307.5" y="-192" font-family="Helvetica,sans-Serif" font-size="10.00" fill="white">14336x4096</text>
</g>
<!-- layer0_gate_proj&#45;&gt;layer0_down_proj -->
<g id="edge13" class="edge">
<title>layer0_gate_proj&#45;&gt;layer0_down_proj</title>
<path fill="none" stroke="#555555" d="M209.68,-279.79C213.42,-267.47 219.96,-251.15 230.5,-240 238.62,-231.41 249.05,-224.41 259.6,-218.84"/>
<polygon fill="#555555" stroke="#555555" points="261.4,-221.85 268.83,-214.31 258.32,-215.57 261.4,-221.85"/>
<text text-anchor="middle" x="264.5" y="-251.6" font-family="Helvetica,sans-Serif" font-size="8.00">gate_output</text>
<text text-anchor="middle" x="264.5" y="-242.6" font-family="Helvetica,sans-Serif" font-size="8.00">[1x2048x14336]</text>
</g>
<!-- layer0_up_proj -->
<g id="node5" class="node">
<title>layer0_up_proj</title>
<path fill="#4a90d9" stroke="black" stroke-width="1.5" d="M338,-316C338,-316 285,-316 285,-316 279,-316 273,-310 273,-304 273,-304 273,-292 273,-292 273,-286 279,-280 285,-280 285,-280 338,-280 338,-280 344,-280 350,-286 350,-292 350,-292 350,-304 350,-304 350,-310 344,-316 338,-316"/>
<text text-anchor="middle" x="311.5" y="-301" font-family="Helvetica,sans-Serif" font-size="10.00" fill="white">up_proj</text>
<text text-anchor="middle" x="311.5" y="-290" font-family="Helvetica,sans-Serif" font-size="10.00" fill="white">4096x14336</text>
</g>
<!-- layer0_up_proj&#45;&gt;layer0_down_proj -->
<g id="edge14" class="edge">
<title>layer0_up_proj&#45;&gt;layer0_down_proj</title>
<path fill="none" stroke="#555555" d="M308.3,-279.98C307.18,-273.17 306.05,-265.24 305.5,-258 304.76,-248.32 304.88,-237.68 305.31,-228.25"/>
<polygon fill="#555555" stroke="#555555" points="308.81,-228.42 305.9,-218.23 301.82,-228.01 308.81,-228.42"/>
<text text-anchor="middle" x="339.5" y="-251.6" font-family="Helvetica,sans-Serif" font-size="8.00">up_output</text>
<text text-anchor="middle" x="339.5" y="-242.6" font-family="Helvetica,sans-Serif" font-size="8.00">[1x2048x14336]</text>
</g>
<!-- layer0_input -->
<g id="node6" class="node">
<title>layer0_input</title>
<ellipse fill="#e8e8e8" stroke="black" stroke-width="1.5" cx="187.5" cy="-951" rx="27" ry="18"/>
<text text-anchor="middle" x="187.5" y="-948.5" font-family="Helvetica,sans-Serif" font-size="10.00">input</text>
</g>
<!-- layer0_input&#45;&gt;layer0_k_proj -->
<g id="edge2" class="edge">
<title>layer0_input&#45;&gt;layer0_k_proj</title>
<path fill="none" stroke="#555555" d="M161.03,-946.73C134.78,-942.36 94.51,-932.5 66.5,-911 58.95,-905.21 52.71,-897.02 47.85,-889.04"/>
<polygon fill="#555555" stroke="#555555" points="50.89,-887.3 42.96,-880.26 44.77,-890.7 50.89,-887.3"/>
<text text-anchor="middle" x="98" y="-904.6" font-family="Helvetica,sans-Serif" font-size="8.00">[1x2048x4096]</text>
</g>
<!-- layer0_input&#45;&gt;layer0_q_proj -->
<g id="edge1" class="edge">
<title>layer0_input&#45;&gt;layer0_q_proj</title>
<path fill="none" stroke="#555555" d="M166.78,-939.43C156.22,-932.83 144.4,-923.24 138.5,-911 135.51,-904.79 134.45,-897.59 134.39,-890.68"/>
<polygon fill="#555555" stroke="#555555" points="137.9,-890.43 134.97,-880.25 130.92,-890.03 137.9,-890.43"/>
<text text-anchor="middle" x="170" y="-904.6" font-family="Helvetica,sans-Serif" font-size="8.00">[1x2048x4096]</text>
</g>
<!-- layer0_input&#45;&gt;layer0_v_proj -->
<g id="edge3" class="edge">
<title>layer0_input&#45;&gt;layer0_v_proj</title>
<path fill="none" stroke="#555555" d="M196.85,-934.04C204.28,-921.37 214.82,-903.39 223.44,-888.7"/>
<polygon fill="#555555" stroke="#555555" points="226.47,-890.44 228.51,-880.05 220.43,-886.9 226.47,-890.44"/>
<text text-anchor="middle" x="247" y="-904.6" font-family="Helvetica,sans-Serif" font-size="8.00">[1x2048x4096]</text>
</g>
<!-- layer0_attn_residual_add -->
<g id="node10" class="node">
<title>layer0_attn_residual_add</title>
<ellipse fill="#e85454" stroke="black" stroke-width="1.5" cx="311.5" cy="-396" rx="11" ry="11"/>
<text text-anchor="middle" x="311.5" y="-392.3" font-family="Helvetica,sans-Serif" font-size="14.00">+</text>
</g>
<!-- layer0_input&#45;&gt;layer0_attn_residual_add -->
<g id="edge10" class="edge">
<title>layer0_input&#45;&gt;layer0_attn_residual_add</title>
<path fill="none" stroke="#e85454" stroke-width="2" stroke-dasharray="5,2" d="M214.17,-948.04C261.1,-942.99 353.5,-925.15 353.5,-863 353.5,-863 353.5,-863 353.5,-493 353.5,-463.12 336.21,-432.06 323.82,-413.64"/>
<polygon fill="#e85454" stroke="#e85454" stroke-width="2" points="326.68,-411.62 318.06,-405.45 320.95,-415.65 326.68,-411.62"/>
<text text-anchor="middle" x="385" y="-693.6" font-family="Helvetica,sans-Serif" font-size="8.00">residual</text>
<text text-anchor="middle" x="385" y="-684.6" font-family="Helvetica,sans-Serif" font-size="8.00">[1x2048x4096]</text>
</g>
<!-- layer0_attn_qk&#45;&gt;layer0_attn_v -->
<g id="edge6" class="edge">
<title>layer0_attn_qk&#45;&gt;layer0_attn_v</title>
<path fill="none" stroke="#555555" d="M114.4,-724.72C119,-710.9 126.12,-694.33 136.5,-682 151.97,-663.62 174.08,-648.71 193.58,-637.92"/>
<polygon fill="#555555" stroke="#555555" points="195.43,-640.9 202.61,-633.11 192.14,-634.73 195.43,-640.9"/>
<text text-anchor="middle" x="175.5" y="-693.6" font-family="Helvetica,sans-Serif" font-size="8.00">scores</text>
<text text-anchor="middle" x="175.5" y="-684.6" font-family="Helvetica,sans-Serif" font-size="8.00">[1x32x2048x2048]</text>
</g>
<!-- layer0_o_proj -->
<g id="node9" class="node">
<title>layer0_o_proj</title>
<path fill="#4a90d9" stroke="black" stroke-width="1.5" d="M294,-512C294,-512 247,-512 247,-512 241,-512 235,-506 235,-500 235,-500 235,-488 235,-488 235,-482 241,-476 247,-476 247,-476 294,-476 294,-476 300,-476 306,-482 306,-488 306,-488 306,-500 306,-500 306,-506 300,-512 294,-512"/>
<text text-anchor="middle" x="270.5" y="-497" font-family="Helvetica,sans-Serif" font-size="10.00" fill="white">o_proj</text>
<text text-anchor="middle" x="270.5" y="-486" font-family="Helvetica,sans-Serif" font-size="10.00" fill="white">4096x4096</text>
</g>
<!-- layer0_attn_v&#45;&gt;layer0_o_proj -->
<g id="edge8" class="edge">
<title>layer0_attn_v&#45;&gt;layer0_o_proj</title>
<path fill="none" stroke="#555555" d="M243.79,-590.04C249.41,-570.06 257.15,-542.5 262.85,-522.21"/>
<polygon fill="#555555" stroke="#555555" points="266.29,-522.91 265.63,-512.34 259.55,-521.02 266.29,-522.91"/>
<text text-anchor="middle" x="292" y="-545.6" font-family="Helvetica,sans-Serif" font-size="8.00">attn_output</text>
<text text-anchor="middle" x="292" y="-536.6" font-family="Helvetica,sans-Serif" font-size="8.00">[1x2048x4096]</text>
</g>
<!-- layer0_o_proj&#45;&gt;layer0_attn_residual_add -->
<g id="edge9" class="edge">
<title>layer0_o_proj&#45;&gt;layer0_attn_residual_add</title>
<path fill="none" stroke="#555555" d="M266.09,-475.8C263.98,-464.08 262.96,-448.49 268.5,-436 273.7,-424.27 284.36,-414.56 293.77,-407.76"/>
<polygon fill="#555555" stroke="#555555" points="295.79,-410.62 302.18,-402.17 291.92,-404.79 295.79,-410.62"/>
<text text-anchor="middle" x="300" y="-447.6" font-family="Helvetica,sans-Serif" font-size="8.00">o_proj_output</text>
<text text-anchor="middle" x="300" y="-438.6" font-family="Helvetica,sans-Serif" font-size="8.00">[1x2048x4096]</text>
</g>
<!-- layer0_attn_residual_add&#45;&gt;layer0_gate_proj -->
<g id="edge11" class="edge">
<title>layer0_attn_residual_add&#45;&gt;layer0_gate_proj</title>
<path fill="none" stroke="#555555" d="M301.46,-391.28C286.91,-385.5 259.69,-373.21 241.5,-356 232.16,-347.16 224.21,-335.42 218.18,-324.89"/>
<polygon fill="#555555" stroke="#555555" points="221.22,-323.17 213.38,-316.05 215.07,-326.5 221.22,-323.17"/>
<text text-anchor="middle" x="273" y="-349.6" font-family="Helvetica,sans-Serif" font-size="8.00">post_attn</text>
<text text-anchor="middle" x="273" y="-340.6" font-family="Helvetica,sans-Serif" font-size="8.00">[1x2048x4096]</text>
</g>
<!-- layer0_attn_residual_add&#45;&gt;layer0_up_proj -->
<g id="edge12" class="edge">
<title>layer0_attn_residual_add&#45;&gt;layer0_up_proj</title>
<path fill="none" stroke="#555555" d="M311.5,-384.73C311.5,-370.93 311.5,-345.91 311.5,-326.44"/>
<polygon fill="#555555" stroke="#555555" points="315,-326.31 311.5,-316.31 308,-326.31 315,-326.31"/>
<text text-anchor="middle" x="343" y="-349.6" font-family="Helvetica,sans-Serif" font-size="8.00">post_attn</text>
<text text-anchor="middle" x="343" y="-340.6" font-family="Helvetica,sans-Serif" font-size="8.00">[1x2048x4096]</text>
</g>
<!-- layer0_mlp_residual_add -->
<g id="node12" class="node">
<title>layer0_mlp_residual_add</title>
<ellipse fill="#e85454" stroke="black" stroke-width="1.5" cx="358.5" cy="-109" rx="11" ry="11"/>
<text text-anchor="middle" x="358.5" y="-105.3" font-family="Helvetica,sans-Serif" font-size="14.00">+</text>
</g>
<!-- layer0_attn_residual_add&#45;&gt;layer0_mlp_residual_add -->
<g id="edge16" class="edge">
<title>layer0_attn_residual_add&#45;&gt;layer0_mlp_residual_add</title>
<path fill="none" stroke="#e85454" stroke-width="2" stroke-dasharray="5,2" d="M322.06,-392.58C338.09,-388.28 368.1,-377.65 381.5,-356 431.6,-275.05 426.93,-229.95 390.5,-142 387.32,-134.31 381.29,-127.51 375.32,-122.18"/>
<polygon fill="#e85454" stroke="#e85454" stroke-width="2" points="377.47,-119.41 367.49,-115.87 373.08,-124.87 377.47,-119.41"/>
<text text-anchor="middle" x="449" y="-251.6" font-family="Helvetica,sans-Serif" font-size="8.00">residual</text>
<text text-anchor="middle" x="449" y="-242.6" font-family="Helvetica,sans-Serif" font-size="8.00">[1x2048x4096]</text>
</g>
<!-- layer0_down_proj&#45;&gt;layer0_mlp_residual_add -->
<g id="edge15" class="edge">
<title>layer0_down_proj&#45;&gt;layer0_mlp_residual_add</title>
<path fill="none" stroke="#555555" d="M309.78,-181.79C311.94,-169.92 316.01,-154.17 323.5,-142 328.13,-134.48 335.02,-127.65 341.47,-122.24"/>
<polygon fill="#555555" stroke="#555555" points="343.98,-124.72 349.73,-115.83 339.69,-119.19 343.98,-124.72"/>
<text text-anchor="middle" x="355.5" y="-153.6" font-family="Helvetica,sans-Serif" font-size="8.00">down_proj_ou...</text>
<text text-anchor="middle" x="355.5" y="-144.6" font-family="Helvetica,sans-Serif" font-size="8.00">[1x2048x4096]</text>
</g>
<!-- lm_head -->
<g id="node13" class="node">
<title>lm_head</title>
<path fill="#4a90d9" stroke="black" stroke-width="1.5" d="M320,-36C320,-36 261,-36 261,-36 255,-36 249,-30 249,-24 249,-24 249,-12 249,-12 249,-6 255,0 261,0 261,0 320,0 320,0 326,0 332,-6 332,-12 332,-12 332,-24 332,-24 332,-30 326,-36 320,-36"/>
<text text-anchor="middle" x="290.5" y="-21" font-family="Helvetica,sans-Serif" font-size="10.00" fill="white">lm_head</text>
<text text-anchor="middle" x="290.5" y="-10" font-family="Helvetica,sans-Serif" font-size="10.00" fill="white">4096x128256</text>
</g>
<!-- layer0_mlp_residual_add&#45;&gt;lm_head -->
<g id="edge17" class="edge">
<title>layer0_mlp_residual_add&#45;&gt;lm_head</title>
<path fill="none" stroke="#555555" d="M352.22,-99.79C342.7,-87.32 324.2,-63.11 309.93,-44.42"/>
<polygon fill="#555555" stroke="#555555" points="312.56,-42.11 303.71,-36.29 307,-46.36 312.56,-42.11"/>
<text text-anchor="middle" x="365" y="-69.6" font-family="Helvetica,sans-Serif" font-size="8.00">final_hidden</text>
<text text-anchor="middle" x="365" y="-60.6" font-family="Helvetica,sans-Serif" font-size="8.00">[1x2048x4096]</text>
</g>
<!-- repeat_note -->
<g id="node14" class="node">
<title>repeat_note</title>
<polygon fill="#ffffcc" stroke="black" stroke-width="1.5" points="486,-36 361,-36 361,0 492,0 492,-30 486,-36"/>
<polyline fill="none" stroke="black" stroke-width="1.5" points="486,-36 486,-30 "/>
<polyline fill="none" stroke="black" stroke-width="1.5" points="492,-30 486,-30 "/>
<text text-anchor="middle" x="426.5" y="-15.2" font-family="Helvetica,sans-Serif" font-size="11.00" fill="#666666">Repeated x32 layers</text>
</g>
<!-- layer0_mlp_residual_add&#45;&gt;repeat_note -->
<g id="edge18" class="edge">
<title>layer0_mlp_residual_add&#45;&gt;repeat_note</title>
<path fill="none" stroke="#999999" stroke-dasharray="1,5" d="M367.98,-103.35C378.03,-98 393.76,-88.34 403.5,-76 412.82,-64.19 418.85,-48.1 422.39,-36.02"/>
</g>
<!-- leg_linear -->
<g id="node15" class="node">
<title>leg_linear</title>
<path fill="#4a90d9" stroke="black" stroke-width="1.5" d="M519.5,-960C519.5,-960 445.5,-960 445.5,-960 442.5,-960 439.5,-957 439.5,-954 439.5,-954 439.5,-948 439.5,-948 439.5,-945 442.5,-942 445.5,-942 445.5,-942 519.5,-942 519.5,-942 522.5,-942 525.5,-945 525.5,-948 525.5,-948 525.5,-954 525.5,-954 525.5,-957 522.5,-960 519.5,-960"/>
<text text-anchor="middle" x="482.5" y="-948.8" font-family="Helvetica,sans-Serif" font-size="9.00" fill="white">linear</text>
</g>
<!-- leg_attn_qk -->
<g id="node16" class="node">
<title>leg_attn_qk</title>
<path fill="#e8963e" stroke="black" stroke-width="1.5" d="M471.21,-875.94C471.21,-875.94 443.79,-866.06 443.79,-866.06 438.15,-864.03 438.15,-859.97 443.79,-857.94 443.79,-857.94 471.21,-848.06 471.21,-848.06 476.85,-846.03 488.15,-846.03 493.79,-848.06 493.79,-848.06 521.21,-857.94 521.21,-857.94 526.85,-859.97 526.85,-864.03 521.21,-866.06 521.21,-866.06 493.79,-875.94 493.79,-875.94 488.15,-877.97 476.85,-877.97 471.21,-875.94"/>
<text text-anchor="middle" x="482.5" y="-859.8" font-family="Helvetica,sans-Serif" font-size="9.00" fill="white">attn qk</text>
</g>
<!-- leg_linear&#45;&gt;leg_attn_qk -->
<!-- leg_attn_v -->
<g id="node17" class="node">
<title>leg_attn_v</title>
<path fill="#d4722c" stroke="black" stroke-width="1.5" d="M471.39,-765.46C471.39,-765.46 449.61,-756.54 449.61,-756.54 444.05,-754.27 444.05,-749.73 449.61,-747.46 449.61,-747.46 471.39,-738.54 471.39,-738.54 476.95,-736.27 488.05,-736.27 493.61,-738.54 493.61,-738.54 515.39,-747.46 515.39,-747.46 520.95,-749.73 520.95,-754.27 515.39,-756.54 515.39,-756.54 493.61,-765.46 493.61,-765.46 488.05,-767.73 476.95,-767.73 471.39,-765.46"/>
<text text-anchor="middle" x="482.5" y="-749.8" font-family="Helvetica,sans-Serif" font-size="9.00" fill="white">attn v</text>
</g>
<!-- leg_attn_qk&#45;&gt;leg_attn_v -->
<!-- leg_residual_add -->
<g id="node18" class="node">
<title>leg_residual_add</title>
<ellipse fill="#e85454" stroke="black" stroke-width="1.5" cx="482.5" cy="-617" rx="43" ry="43"/>
<text text-anchor="middle" x="482.5" y="-614.8" font-family="Helvetica,sans-Serif" font-size="9.00" fill="white">residual add</text>
</g>
<!-- leg_attn_v&#45;&gt;leg_residual_add -->
<!-- leg_skip_src -->
<g id="node19" class="node">
<title>leg_skip_src</title>
<ellipse fill="black" stroke="black" stroke-width="1.5" cx="482.5" cy="-494" rx="3.6" ry="3.6"/>
</g>
<!-- leg_residual_add&#45;&gt;leg_skip_src -->
<!-- leg_skip_dst -->
<g id="node20" class="node">
<title>leg_skip_dst</title>
<path fill="lightgrey" stroke="transparent" stroke-width="1.5" d="M502,-414C502,-414 463,-414 463,-414 457,-414 451,-408 451,-402 451,-402 451,-390 451,-390 451,-384 457,-378 463,-378 463,-378 502,-378 502,-378 508,-378 514,-384 514,-390 514,-390 514,-402 514,-402 514,-408 508,-414 502,-414"/>
<text text-anchor="middle" x="482.5" y="-393.8" font-family="Helvetica,sans-Serif" font-size="9.00">skip conn.</text>
</g>
<!-- leg_skip_src&#45;&gt;leg_skip_dst -->
<g id="edge22" class="edge">
<title>leg_skip_src&#45;&gt;leg_skip_dst</title>
<path fill="none" stroke="#e85454" stroke-width="2" stroke-dasharray="5,2" d="M482.5,-490.23C482.5,-480.69 482.5,-448.44 482.5,-424.53"/>
<polygon fill="#e85454" stroke="#e85454" stroke-width="2" points="486,-424.24 482.5,-414.24 479,-424.24 486,-424.24"/>
</g>
</g>
</svg>
