<?xml version="1.0" encoding="UTF-8" standalone="no"?>
<!DOCTYPE svg PUBLIC "-//W3C//DTD SVG 1.1//EN"
 "http://www.w3.org/Graphics/SVG/1.1/DTD/svg11.dtd">
<!-- Generated by graphviz version 2.43.0 (0)
 -->
<!-- Title: G Pages: 1 -->
<svg width="561pt" height="1304pt"
 viewBox="0.00 0.00 561.00 1304.00" xmlns="http://www.w3.org/2000/svg" xmlns:xlink="http://www.w3.org/1999/xlink">
<g id="graph0" class="graph" transform="scale(1 1) rotate(0) translate(4 1300)">
<title>G</title>
<polygon fill="white" stroke="transparent" points="-4,4 -4,-1300 557,-1300 557,4 -4,4"/>
<text text-anchor="middle" x="276.5" y="-1279.2" font-family="Helvetica,sans-Serif" font-size="16.00">qwen3_30b_a3b_decode_kv2048</text>
<g id="clust3" class="cluster">
<title>cluster_legend</title>
<path fill="#f8f8f8" stroke="#cccccc" d="M385,-373C385,-373 533,-373 533,-373 539,-373 545,-379 545,-385 545,-385 545,-1250 545,-1250 545,-1256 539,-1262 533,-1262 533,-1262 385,-1262 385,-1262 379,-1262 373,-1256 373,-1250 373,-1250 373,-385 373,-385 373,-379 379,-373 385,-373"/>
<text text-anchor="middle" x="459" y="-1249.2" font-family="Helvetica,sans-Serif" font-size="11.00">Legend</text>
</g>
<!-- layer0_k_proj -->
<g id="node1" class="node">
<title>layer0_k_proj</title>
<path fill="#4a90d9" stroke="black" stroke-width="1.5" d="M92,-1164C92,-1164 62,-1164 62,-1164 56,-1164 50,-1158 50,-1152 50,-1152 50,-1140 50,-1140 50,-1134 56,-1128 62,-1128 62,-1128 92,-1128 92,-1128 98,-1128 104,-1134 104,-1140 104,-1140 104,-1152 104,-1152 104,-1158 98,-1164 92,-1164"/>
<text text-anchor="middle" x="77" y="-1143.5" font-family="Helvetica,sans-Serif" font-size="10.00" fill="white">k_proj</text>
</g>
<!-- layer0_attn_qk -->
<g id="node7" class="node">
<title>layer0_attn_qk</title>
<path fill="#e8963e" stroke="black" stroke-width="1.5" d="M115.88,-1080.48C115.88,-1080.48 93.87,-1071.52 93.87,-1071.52 88.31,-1069.26 88.31,-1064.74 93.87,-1062.48 93.87,-1062.48 115.88,-1053.52 115.88,-1053.52 121.44,-1051.26 132.56,-1051.26 138.12,-1053.52 138.12,-1053.52 160.13,-1062.48 160.13,-1062.48 165.69,-1064.74 165.69,-1069.26 160.13,-1071.52 160.13,-1071.52 138.12,-1080.48 138.12,-1080.48 132.56,-1082.74 121.44,-1082.74 115.88,-1080.48"/>
<text text-anchor="middle" x="127" y="-1064.5" font-family="Helvetica,sans-Serif" font-size="10.00" fill="white">attn_qk</text>
</g>
<!-- layer0_k_proj&#45;&gt;layer0_attn_qk -->
<g id="edge5" class="edge">
<title>layer0_k_proj&#45;&gt;layer0_attn_qk</title>
<path fill="none" stroke="#555555" d="M88.1,-1127.91C95.34,-1116.75 104.87,-1102.08 112.68,-1090.05"/>
<polygon fill="#555555" stroke="#555555" points="115.75,-1091.75 118.26,-1081.46 109.88,-1087.94 115.75,-1091.75"/>
</g>
<!-- layer0_q_proj -->
<g id="node2" class="node">
<title>layer0_q_proj</title>
<path fill="#4a90d9" stroke="black" stroke-width="1.5" d="M175,-1164C175,-1164 145,-1164 145,-1164 139,-1164 133,-1158 133,-1152 133,-1152 133,-1140 133,-1140 133,-1134 139,-1128 145,-1128 145,-1128 175,-1128 175,-1128 181,-1128 187,-1134 187,-1140 187,-1140 187,-1152 187,-1152 187,-1158 181,-1164 175,-1164"/>
<text text-anchor="middle" x="160" y="-1143.5" font-family="Helvetica,sans-Serif" font-size="10.00" fill="white">q_proj</text>
</g>
<!-- layer0_q_proj&#45;&gt;layer0_attn_qk -->
<g id="edge4" class="edge">
<title>layer0_q_proj&#45;&gt;layer0_attn_qk</title>
<path fill="none" stroke="#555555" d="M152.68,-1127.91C148.21,-1117.49 142.43,-1104.01 137.49,-1092.47"/>
<polygon fill="#555555" stroke="#555555" points="140.57,-1090.77 133.41,-1082.96 134.13,-1093.53 140.57,-1090.77"/>
</g>
<!-- layer0_v_proj -->
<g id="node3" class="node">
<title>layer0_v_proj</title>
<path fill="#4a90d9" stroke="black" stroke-width="1.5" d="M258,-1164C258,-1164 228,-1164 228,-1164 222,-1164 216,-1158 216,-1152 216,-1152 216,-1140 216,-1140 216,-1134 222,-1128 228,-1128 228,-1128 258,-1128 258,-1128 264,-1128 270,-1134 270,-1140 270,-1140 270,-1152 270,-1152 270,-1158 264,-1164 258,-1164"/>
<text text-anchor="middle" x="243" y="-1143.5" font-family="Helvetica,sans-Serif" font-size="10.00" fill="white">v_proj</text>
</g>
<!-- layer0_attn_v -->
<g id="node12" class="node">
<title>layer0_attn_v</title>
<path fill="#d4722c" stroke="black" stroke-width="1.5" d="M220.09,-660C220.09,-660 202.65,-652 202.65,-652 197.2,-649.5 197.2,-644.5 202.65,-642 202.65,-642 220.09,-634 220.09,-634 225.55,-631.5 236.45,-631.5 241.91,-634 241.91,-634 259.35,-642 259.35,-642 264.8,-644.5 264.8,-649.5 259.35,-652 259.35,-652 241.91,-660 241.91,-660 236.45,-662.5 225.55,-662.5 220.09,-660"/>
<text text-anchor="middle" x="231" y="-644.5" font-family="Helvetica,sans-Serif" font-size="10.00" fill="white">attn_v</text>
</g>
<!-- layer0_v_proj&#45;&gt;layer0_attn_v -->
<g id="edge11" class="edge">
<title>layer0_v_proj&#45;&gt;layer0_attn_v</title>
<path fill="none" stroke="#555555" d="M243,-1127.69C243,-1098.9 243,-1039.38 243,-989 243,-989 243,-989 243,-829 243,-773.92 237.4,-709.61 233.85,-674.4"/>
<polygon fill="#555555" stroke="#555555" points="237.33,-674.03 232.82,-664.45 230.37,-674.75 237.33,-674.03"/>
</g>
<!-- layer0_expert_repr_gate_proj -->
<g id="node4" class="node">
<title>layer0_expert_repr_gate_proj</title>
<path fill="#4a90d9" stroke="black" stroke-width="1.5" d="M112,-338C112,-338 12,-338 12,-338 6,-338 0,-332 0,-326 0,-326 0,-314 0,-314 0,-308 6,-302 12,-302 12,-302 112,-302 112,-302 118,-302 124,-308 124,-314 124,-314 124,-326 124,-326 124,-332 118,-338 112,-338"/>
<text text-anchor="middle" x="62" y="-317.5" font-family="Helvetica,sans-Serif" font-size="10.00" fill="white">expert_repr_gate_proj</text>
</g>
<!-- layer0_expert_repr_down_proj -->
<g id="node16" class="node">
<title>layer0_expert_repr_down_proj</title>
<path fill="#4a90d9" stroke="black" stroke-width="1.5" d="M255,-259C255,-259 151,-259 151,-259 145,-259 139,-253 139,-247 139,-247 139,-235 139,-235 139,-229 145,-223 151,-223 151,-223 255,-223 255,-223 261,-223 267,-229 267,-235 267,-235 267,-247 267,-247 267,-253 261,-259 255,-259"/>
<text text-anchor="middle" x="203" y="-238.5" font-family="Helvetica,sans-Serif" font-size="10.00" fill="white">expert_repr_down_proj</text>
</g>
<!-- layer0_expert_repr_gate_proj&#45;&gt;layer0_expert_repr_down_proj -->
<g id="edge18" class="edge">
<title>layer0_expert_repr_gate_proj&#45;&gt;layer0_expert_repr_down_proj</title>
<path fill="none" stroke="#555555" d="M93.29,-301.91C113.83,-290.7 140.87,-275.93 162.97,-263.86"/>
<polygon fill="#555555" stroke="#555555" points="164.7,-266.91 171.8,-259.04 161.34,-260.76 164.7,-266.91"/>
</g>
<!-- layer0_expert_repr_up_proj -->
<g id="node5" class="node">
<title>layer0_expert_repr_up_proj</title>
<path fill="#4a90d9" stroke="black" stroke-width="1.5" d="M255,-338C255,-338 165,-338 165,-338 159,-338 153,-332 153,-326 153,-326 153,-314 153,-314 153,-308 159,-302 165,-302 165,-302 255,-302 255,-302 261,-302 267,-308 267,-314 267,-314 267,-326 267,-326 267,-332 261,-338 255,-338"/>
<text text-anchor="middle" x="210" y="-317.5" font-family="Helvetica,sans-Serif" font-size="10.00" fill="white">expert_repr_up_proj</text>
</g>
<!-- layer0_expert_repr_up_proj&#45;&gt;layer0_expert_repr_down_proj -->
<g id="edge19" class="edge">
<title>layer0_expert_repr_up_proj&#45;&gt;layer0_expert_repr_down_proj</title>
<path fill="none" stroke="#555555" d="M208.45,-301.91C207.58,-292.34 206.47,-280.18 205.48,-269.32"/>
<polygon fill="#555555" stroke="#555555" points="208.94,-268.68 204.55,-259.04 201.97,-269.32 208.94,-268.68"/>
</g>
<!-- layer0_input -->
<g id="node6" class="node">
<title>layer0_input</title>
<ellipse fill="#e8e8e8" stroke="black" stroke-width="1.5" cx="201" cy="-1225" rx="27" ry="18"/>
<text text-anchor="middle" x="201" y="-1222.5" font-family="Helvetica,sans-Serif" font-size="10.00">input</text>
</g>
<!-- layer0_input&#45;&gt;layer0_k_proj -->
<g id="edge2" class="edge">
<title>layer0_input&#45;&gt;layer0_k_proj</title>
<path fill="none" stroke="#555555" d="M181.9,-1212.14C163.54,-1200.74 135.36,-1183.24 112.82,-1169.24"/>
<polygon fill="#555555" stroke="#555555" points="114.52,-1166.18 104.18,-1163.88 110.83,-1172.13 114.52,-1166.18"/>
</g>
<!-- layer0_input&#45;&gt;layer0_q_proj -->
<g id="edge1" class="edge">
<title>layer0_input&#45;&gt;layer0_q_proj</title>
<path fill="none" stroke="#555555" d="M192.3,-1207.67C186.98,-1197.67 180.04,-1184.64 173.96,-1173.22"/>
<polygon fill="#555555" stroke="#555555" points="176.9,-1171.29 169.11,-1164.11 170.72,-1174.58 176.9,-1171.29"/>
</g>
<!-- layer0_input&#45;&gt;layer0_v_proj -->
<g id="edge3" class="edge">
<title>layer0_input&#45;&gt;layer0_v_proj</title>
<path fill="none" stroke="#555555" d="M209.91,-1207.67C215.36,-1197.67 222.47,-1184.64 228.7,-1173.22"/>
<polygon fill="#555555" stroke="#555555" points="231.95,-1174.56 233.67,-1164.11 225.81,-1171.21 231.95,-1174.56"/>
</g>
<!-- layer0_attn_residual_add -->
<g id="node14" class="node">
<title>layer0_attn_residual_add</title>
<ellipse fill="#e85454" stroke="black" stroke-width="1.5" cx="272" cy="-471" rx="11" ry="11"/>
<text text-anchor="middle" x="272" y="-467.3" font-family="Helvetica,sans-Serif" font-size="14.00">attn_residual_add</text>
</g>
<!-- layer0_input&#45;&gt;layer0_attn_residual_add -->
<g id="edge14" class="edge">
<title>layer0_input&#45;&gt;layer0_attn_residual_add</title>
<path fill="none" stroke="#e85454" stroke-width="2" stroke-dasharray="5,2" d="M222.41,-1213.6C241.22,-1203.42 268,-1186.22 284,-1164 310.11,-1127.72 314,-1112.7 314,-1068 314,-1068 314,-1068 314,-646 314,-588.21 291.83,-522.55 279.71,-490.96"/>
<polygon fill="#e85454" stroke="#e85454" stroke-width="2" points="282.95,-489.64 276.03,-481.61 276.43,-492.2 282.95,-489.64"/>
</g>
<!-- layer0_softmax_max -->
<g id="node8" class="node">
<title>layer0_softmax_max</title>
<path fill="#f5c842" stroke="black" stroke-width="1.5" d="M186.77,-1006C186.77,-1006 96.6,-1006 96.6,-1006 90.6,-1006 80.8,-1001.35 77.01,-996.7 77.01,-996.7 62.81,-979.3 62.81,-979.3 59.02,-974.65 61.23,-970 67.23,-970 67.23,-970 157.4,-970 157.4,-970 163.4,-970 173.2,-974.65 176.99,-979.3 176.99,-979.3 191.19,-996.7 191.19,-996.7 194.98,-1001.35 192.77,-1006 186.77,-1006"/>
<text text-anchor="middle" x="127" y="-985.5" font-family="Helvetica,sans-Serif" font-size="10.00" fill="white">softmax_max</text>
</g>
<!-- layer0_attn_qk&#45;&gt;layer0_softmax_max -->
<g id="edge6" class="edge">
<title>layer0_attn_qk&#45;&gt;layer0_softmax_max</title>
<path fill="none" stroke="#555555" d="M127,-1048.91C127,-1039.34 127,-1027.18 127,-1016.32"/>
<polygon fill="#555555" stroke="#555555" points="130.5,-1016.04 127,-1006.04 123.5,-1016.04 130.5,-1016.04"/>
</g>
<!-- layer0_softmax_exp -->
<g id="node9" class="node">
<title>layer0_softmax_exp</title>
<path fill="#f0b429" stroke="black" stroke-width="1.5" d="M184.09,-927C184.09,-927 98.18,-927 98.18,-927 92.18,-927 82.47,-922.28 78.77,-917.56 78.77,-917.56 65.32,-900.44 65.32,-900.44 61.61,-895.72 63.91,-891 69.91,-891 69.91,-891 155.82,-891 155.82,-891 161.82,-891 171.53,-895.72 175.23,-900.44 175.23,-900.44 188.68,-917.56 188.68,-917.56 192.39,-922.28 190.09,-927 184.09,-927"/>
<text text-anchor="middle" x="127" y="-906.5" font-family="Helvetica,sans-Serif" font-size="10.00" fill="white">softmax_exp</text>
</g>
<!-- layer0_softmax_max&#45;&gt;layer0_softmax_exp -->
<g id="edge7" class="edge">
<title>layer0_softmax_max&#45;&gt;layer0_softmax_exp</title>
<path fill="none" stroke="#555555" d="M127,-969.91C127,-960.34 127,-948.18 127,-937.32"/>
<polygon fill="#555555" stroke="#555555" points="130.5,-937.04 127,-927.04 123.5,-937.04 130.5,-937.04"/>
</g>
<!-- layer0_softmax_sum -->
<g id="node10" class="node">
<title>layer0_softmax_sum</title>
<path fill="#e8963e" stroke="black" stroke-width="1.5" d="M186.77,-848C186.77,-848 96.6,-848 96.6,-848 90.6,-848 80.8,-843.35 77.01,-838.7 77.01,-838.7 62.81,-821.3 62.81,-821.3 59.02,-816.65 61.23,-812 67.23,-812 67.23,-812 157.4,-812 157.4,-812 163.4,-812 173.2,-816.65 176.99,-821.3 176.99,-821.3 191.19,-838.7 191.19,-838.7 194.98,-843.35 192.77,-848 186.77,-848"/>
<text text-anchor="middle" x="127" y="-827.5" font-family="Helvetica,sans-Serif" font-size="10.00" fill="white">softmax_sum</text>
</g>
<!-- layer0_softmax_exp&#45;&gt;layer0_softmax_sum -->
<g id="edge8" class="edge">
<title>layer0_softmax_exp&#45;&gt;layer0_softmax_sum</title>
<path fill="none" stroke="#555555" d="M127,-890.91C127,-881.34 127,-869.18 127,-858.32"/>
<polygon fill="#555555" stroke="#555555" points="130.5,-858.04 127,-848.04 123.5,-858.04 130.5,-858.04"/>
</g>
<!-- layer0_softmax_div -->
<g id="node11" class="node">
<title>layer0_softmax_div</title>
<path fill="#d4832c" stroke="black" stroke-width="1.5" d="M184.42,-769C184.42,-769 102.76,-769 102.76,-769 96.76,-769 87.15,-764.21 83.53,-759.42 83.53,-759.42 70.81,-742.58 70.81,-742.58 67.2,-737.79 69.58,-733 75.58,-733 75.58,-733 157.24,-733 157.24,-733 163.24,-733 172.85,-737.79 176.47,-742.58 176.47,-742.58 189.19,-759.42 189.19,-759.42 192.8,-764.21 190.42,-769 184.42,-769"/>
<text text-anchor="middle" x="130" y="-748.5" font-family="Helvetica,sans-Serif" font-size="10.00" fill="white">softmax_div</text>
</g>
<!-- layer0_softmax_sum&#45;&gt;layer0_softmax_div -->
<g id="edge9" class="edge">
<title>layer0_softmax_sum&#45;&gt;layer0_softmax_div</title>
<path fill="none" stroke="#555555" d="M127.67,-811.91C128.04,-802.34 128.51,-790.18 128.94,-779.32"/>
<polygon fill="#555555" stroke="#555555" points="132.44,-779.17 129.34,-769.04 125.45,-778.9 132.44,-779.17"/>
</g>
<!-- layer0_softmax_div&#45;&gt;layer0_attn_v -->
<g id="edge10" class="edge">
<title>layer0_softmax_div&#45;&gt;layer0_attn_v</title>
<path fill="none" stroke="#555555" d="M147.13,-732.7C165.06,-714.59 193.14,-686.24 211.8,-667.39"/>
<polygon fill="#555555" stroke="#555555" points="214.61,-669.52 219.16,-659.95 209.64,-664.6 214.61,-669.52"/>
</g>
<!-- layer0_o_proj -->
<g id="node13" class="node">
<title>layer0_o_proj</title>
<path fill="#4a90d9" stroke="black" stroke-width="1.5" d="M252,-561C252,-561 222,-561 222,-561 216,-561 210,-555 210,-549 210,-549 210,-537 210,-537 210,-531 216,-525 222,-525 222,-525 252,-525 252,-525 258,-525 264,-531 264,-537 264,-537 264,-549 264,-549 264,-555 258,-561 252,-561"/>
<text text-anchor="middle" x="237" y="-540.5" font-family="Helvetica,sans-Serif" font-size="10.00" fill="white">o_proj</text>
</g>
<!-- layer0_attn_v&#45;&gt;layer0_o_proj -->
<g id="edge12" class="edge">
<title>layer0_attn_v&#45;&gt;layer0_o_proj</title>
<path fill="none" stroke="#555555" d="M231.99,-629.16C232.91,-613.45 234.31,-589.75 235.39,-571.34"/>
<polygon fill="#555555" stroke="#555555" points="238.89,-571.4 235.99,-561.21 231.91,-570.99 238.89,-571.4"/>
</g>
<!-- layer0_o_proj&#45;&gt;layer0_attn_residual_add -->
<g id="edge13" class="edge">
<title>layer0_o_proj&#45;&gt;layer0_attn_residual_add</title>
<path fill="none" stroke="#555555" d="M245.65,-524.7C250.87,-514.27 257.51,-500.99 262.82,-490.37"/>
<polygon fill="#555555" stroke="#555555" points="266.07,-491.69 267.41,-481.18 259.8,-488.56 266.07,-491.69"/>
</g>
<!-- layer0_router -->
<g id="node15" class="node">
<title>layer0_router</title>
<path fill="#4a90d9" stroke="black" stroke-width="1.5" d="M225,-417C225,-417 195,-417 195,-417 189,-417 183,-411 183,-405 183,-405 183,-393 183,-393 183,-387 189,-381 195,-381 195,-381 225,-381 225,-381 231,-381 237,-387 237,-393 237,-393 237,-405 237,-405 237,-411 231,-417 225,-417"/>
<text text-anchor="middle" x="210" y="-396.5" font-family="Helvetica,sans-Serif" font-size="10.00" fill="white">router</text>
</g>
<!-- layer0_attn_residual_add&#45;&gt;layer0_router -->
<g id="edge15" class="edge">
<title>layer0_attn_residual_add&#45;&gt;layer0_router</title>
<path fill="none" stroke="#555555" d="M265.13,-462.24C257.19,-453.28 243.73,-438.08 232.1,-424.95"/>
<polygon fill="#555555" stroke="#555555" points="234.41,-422.28 225.16,-417.11 229.17,-426.92 234.41,-422.28"/>
</g>
<!-- layer0_mlp_residual_add -->
<g id="node18" class="node">
<title>layer0_mlp_residual_add</title>
<ellipse fill="#e85454" stroke="black" stroke-width="1.5" cx="257" cy="-90" rx="11" ry="11"/>
<text text-anchor="middle" x="257" y="-86.3" font-family="Helvetica,sans-Serif" font-size="14.00">mlp_residual_add</text>
</g>
<!-- layer0_attn_residual_add&#45;&gt;layer0_mlp_residual_add -->
<g id="edge22" class="edge">
<title>layer0_attn_residual_add&#45;&gt;layer0_mlp_residual_add</title>
<path fill="none" stroke="#e85454" stroke-width="2" stroke-dasharray="5,2" d="M276.17,-460.81C286.23,-437.78 311,-375.55 311,-321 311,-321 311,-321 311,-240 311,-189.76 283.53,-135.4 267.78,-108.34"/>
<polygon fill="#e85454" stroke="#e85454" stroke-width="2" points="270.72,-106.44 262.58,-99.67 264.72,-110.04 270.72,-106.44"/>
</g>
<!-- layer0_router&#45;&gt;layer0_expert_repr_gate_proj -->
<g id="edge16" class="edge">
<title>layer0_router&#45;&gt;layer0_expert_repr_gate_proj</title>
<path fill="none" stroke="#555555" d="M182.85,-383.88C160.78,-372.39 129.26,-355.99 103.94,-342.82"/>
<polygon fill="#555555" stroke="#555555" points="105.41,-339.64 94.92,-338.13 102.18,-345.85 105.41,-339.64"/>
</g>
<!-- layer0_router&#45;&gt;layer0_expert_repr_up_proj -->
<g id="edge17" class="edge">
<title>layer0_router&#45;&gt;layer0_expert_repr_up_proj</title>
<path fill="none" stroke="#555555" d="M210,-380.91C210,-371.34 210,-359.18 210,-348.32"/>
<polygon fill="#555555" stroke="#555555" points="213.5,-348.04 210,-338.04 206.5,-348.04 213.5,-348.04"/>
</g>
<!-- layer0_moe_combine -->
<g id="node17" class="node">
<title>layer0_moe_combine</title>
<path fill="#9b59b6" stroke="black" stroke-width="1.5" d="M254.68,-168C254.68,-168 244.94,-174 244.94,-174 240.07,-177 229.49,-180 223.77,-180 223.77,-180 188.23,-180 188.23,-180 182.51,-180 171.93,-177 167.06,-174 167.06,-174 157.32,-168 157.32,-168 152.45,-165 152.45,-159 157.32,-156 157.32,-156 167.06,-150 167.06,-150 171.93,-147 182.51,-144 188.23,-144 188.23,-144 223.77,-144 223.77,-144 229.49,-144 240.07,-147 244.94,-150 244.94,-150 254.68,-156 254.68,-156 259.55,-159 259.55,-165 254.68,-168"/>
<text text-anchor="middle" x="206" y="-159.5" font-family="Helvetica,sans-Serif" font-size="10.00" fill="white">moe_combine</text>
</g>
<!-- layer0_expert_repr_down_proj&#45;&gt;layer0_moe_combine -->
<g id="edge20" class="edge">
<title>layer0_expert_repr_down_proj&#45;&gt;layer0_moe_combine</title>
<path fill="none" stroke="#555555" d="M203.67,-222.91C204.04,-213.34 204.51,-201.18 204.94,-190.32"/>
<polygon fill="#555555" stroke="#555555" points="208.44,-190.17 205.34,-180.04 201.45,-189.9 208.44,-190.17"/>
</g>
<!-- layer0_moe_combine&#45;&gt;layer0_mlp_residual_add -->
<g id="edge21" class="edge">
<title>layer0_moe_combine&#45;&gt;layer0_mlp_residual_add</title>
<path fill="none" stroke="#555555" d="M218.61,-143.7C226.63,-132.69 236.95,-118.51 244.88,-107.64"/>
<polygon fill="#555555" stroke="#555555" points="247.81,-109.56 250.87,-99.42 242.15,-105.44 247.81,-109.56"/>
</g>
<!-- lm_head -->
<g id="node19" class="node">
<title>lm_head</title>
<path fill="#4a90d9" stroke="black" stroke-width="1.5" d="M212.5,-36C212.5,-36 177.5,-36 177.5,-36 171.5,-36 165.5,-30 165.5,-24 165.5,-24 165.5,-12 165.5,-12 165.5,-6 171.5,0 177.5,0 177.5,0 212.5,0 212.5,0 218.5,0 224.5,-6 224.5,-12 224.5,-12 224.5,-24 224.5,-24 224.5,-30 218.5,-36 212.5,-36"/>
<text text-anchor="middle" x="195" y="-15.5" font-family="Helvetica,sans-Serif" font-size="10.00" fill="white">lm_head</text>
</g>
<!-- layer0_mlp_residual_add&#45;&gt;lm_head -->
<g id="edge23" class="edge">
<title>layer0_mlp_residual_add&#45;&gt;lm_head</title>
<path fill="none" stroke="#555555" d="M250.13,-81.24C242.19,-72.28 228.73,-57.08 217.1,-43.95"/>
<polygon fill="#555555" stroke="#555555" points="219.41,-41.28 210.16,-36.11 214.17,-45.92 219.41,-41.28"/>
</g>
<!-- repeat_note -->
<g id="node20" class="node">
<title>repeat_note</title>
<polygon fill="#ffffcc" stroke="black" stroke-width="1.5" points="378.5,-36 253.5,-36 253.5,0 384.5,0 384.5,-30 378.5,-36"/>
<polyline fill="none" stroke="black" stroke-width="1.5" points="378.5,-36 378.5,-30 "/>
<polyline fill="none" stroke="black" stroke-width="1.5" points="384.5,-30 378.5,-30 "/>
<text text-anchor="middle" x="319" y="-15.2" font-family="Helvetica,sans-Serif" font-size="11.00" fill="#666666">Repeated x48 layers</text>
</g>
<!-- layer0_mlp_residual_add&#45;&gt;repeat_note -->
<g id="edge24" class="edge">
<title>layer0_mlp_residual_add&#45;&gt;repeat_note</title>
<path fill="none" stroke="#999999" stroke-dasharray="1,5" d="M263.87,-81.24C273.46,-70.42 291.09,-50.51 303.84,-36.11"/>
</g>
<!-- leg_linear -->
<g id="node21" class="node">
<title>leg_linear</title>
<path fill="#4a90d9" stroke="black" stroke-width="1.5" d="M496,-1234C496,-1234 422,-1234 422,-1234 419,-1234 416,-1231 416,-1228 416,-1228 416,-1222 416,-1222 416,-1219 419,-1216 422,-1216 422,-1216 496,-1216 496,-1216 499,-1216 502,-1219 502,-1222 502,-1222 502,-1228 502,-1228 502,-1231 499,-1234 496,-1234"/>
<text text-anchor="middle" x="459" y="-1222.8" font-family="Helvetica,sans-Serif" font-size="9.00" fill="white">linear</text>
</g>
<!-- leg_attn_qk -->
<g id="node22" class="node">
<title>leg_attn_qk</title>
<path fill="#e8963e" stroke="black" stroke-width="1.5" d="M447.71,-1159.94C447.71,-1159.94 420.29,-1150.06 420.29,-1150.06 414.65,-1148.03 414.65,-1143.97 420.29,-1141.94 420.29,-1141.94 447.71,-1132.06 447.71,-1132.06 453.35,-1130.03 464.65,-1130.03 470.29,-1132.06 470.29,-1132.06 497.71,-1141.94 497.71,-1141.94 503.35,-1143.97 503.35,-1148.03 497.71,-1150.06 497.71,-1150.06 470.29,-1159.94 470.29,-1159.94 464.65,-1161.97 453.35,-1161.97 447.71,-1159.94"/>
<text text-anchor="middle" x="459" y="-1143.8" font-family="Helvetica,sans-Serif" font-size="9.00" fill="white">attn qk</text>
</g>
<!-- leg_linear&#45;&gt;leg_attn_qk -->
<!-- leg_softmax_max -->
<g id="node23" class="node">
<title>leg_softmax_max</title>
<path fill="#f5c842" stroke="black" stroke-width="1.5" d="M524.51,-1085C524.51,-1085 425.21,-1085 425.21,-1085 419.21,-1085 409.24,-1080.5 405.27,-1076 405.27,-1076 389.42,-1058 389.42,-1058 385.45,-1053.5 387.49,-1049 393.49,-1049 393.49,-1049 492.79,-1049 492.79,-1049 498.79,-1049 508.76,-1053.5 512.73,-1058 512.73,-1058 528.58,-1076 528.58,-1076 532.55,-1080.5 530.51,-1085 524.51,-1085"/>
<text text-anchor="middle" x="459" y="-1064.8" font-family="Helvetica,sans-Serif" font-size="9.00" fill="white">softmax max</text>
</g>
<!-- leg_attn_qk&#45;&gt;leg_softmax_max -->
<!-- leg_softmax_exp -->
<g id="node24" class="node">
<title>leg_softmax_exp</title>
<path fill="#f0b429" stroke="black" stroke-width="1.5" d="M521.79,-1006C521.79,-1006 426.81,-1006 426.81,-1006 420.81,-1006 410.93,-1001.43 407.04,-996.86 407.04,-996.86 391.98,-979.14 391.98,-979.14 388.09,-974.57 390.21,-970 396.21,-970 396.21,-970 491.19,-970 491.19,-970 497.19,-970 507.07,-974.57 510.96,-979.14 510.96,-979.14 526.02,-996.86 526.02,-996.86 529.91,-1001.43 527.79,-1006 521.79,-1006"/>
<text text-anchor="middle" x="459" y="-985.8" font-family="Helvetica,sans-Serif" font-size="9.00" fill="white">softmax exp</text>
</g>
<!-- leg_softmax_max&#45;&gt;leg_softmax_exp -->
<!-- leg_softmax_sum -->
<g id="node25" class="node">
<title>leg_softmax_sum</title>
<path fill="#e8963e" stroke="black" stroke-width="1.5" d="M524.51,-927C524.51,-927 425.21,-927 425.21,-927 419.21,-927 409.24,-922.5 405.27,-918 405.27,-918 389.42,-900 389.42,-900 385.45,-895.5 387.49,-891 393.49,-891 393.49,-891 492.79,-891 492.79,-891 498.79,-891 508.76,-895.5 512.73,-900 512.73,-900 528.58,-918 528.58,-918 532.55,-922.5 530.51,-927 524.51,-927"/>
<text text-anchor="middle" x="459" y="-906.8" font-family="Helvetica,sans-Serif" font-size="9.00" fill="white">softmax sum</text>
</g>
<!-- leg_softmax_exp&#45;&gt;leg_softmax_sum -->
<!-- leg_softmax_div -->
<g id="node26" class="node">
<title>leg_softmax_div</title>
<path fill="#d4832c" stroke="black" stroke-width="1.5" d="M518.57,-848C518.57,-848 428.72,-848 428.72,-848 422.72,-848 412.93,-843.35 409.14,-838.69 409.14,-838.69 395,-821.31 395,-821.31 391.21,-816.65 393.43,-812 399.43,-812 399.43,-812 489.28,-812 489.28,-812 495.28,-812 505.07,-816.65 508.86,-821.31 508.86,-821.31 523,-838.69 523,-838.69 526.79,-843.35 524.57,-848 518.57,-848"/>
<text text-anchor="middle" x="459" y="-827.8" font-family="Helvetica,sans-Serif" font-size="9.00" fill="white">softmax div</text>
</g>
<!-- leg_softmax_sum&#45;&gt;leg_softmax_div -->
<!-- leg_attn_v -->
<g id="node27" class="node">
<title>leg_attn_v</title>
<path fill="#d4722c" stroke="black" stroke-width="1.5" d="M447.89,-764.46C447.89,-764.46 426.11,-755.54 426.11,-755.54 420.55,-753.27 420.55,-748.73 426.11,-746.46 426.11,-746.46 447.89,-737.54 447.89,-737.54 453.45,-735.27 464.55,-735.27 470.11,-737.54 470.11,-737.54 491.89,-746.46 491.89,-746.46 497.45,-748.73 497.45,-753.27 491.89,-755.54 491.89,-755.54 470.11,-764.46 470.11,-764.46 464.55,-766.73 453.45,-766.73 447.89,-764.46"/>
<text text-anchor="middle" x="459" y="-748.8" font-family="Helvetica,sans-Serif" font-size="9.00" fill="white">attn v</text>
</g>
<!-- leg_softmax_div&#45;&gt;leg_attn_v -->
<!-- leg_residual_add -->
<g id="node28" class="node">
<title>leg_residual_add</title>
<ellipse fill="#e85454" stroke="black" stroke-width="1.5" cx="459" cy="-647" rx="43" ry="43"/>
<text text-anchor="middle" x="459" y="-644.8" font-family="Helvetica,sans-Serif" font-size="9.00" fill="white">residual add</text>
</g>
<!-- leg_attn_v&#45;&gt;leg_residual_add -->
<!-- leg_moe_combine -->
<g id="node29" class="node">
<title>leg_moe_combine</title>
<path fill="#9b59b6" stroke="black" stroke-width="1.5" d="M512.23,-547.97C512.23,-547.97 501.58,-552.93 501.58,-552.93 496.26,-555.41 485.06,-557.9 479.19,-557.9 479.19,-557.9 438.81,-557.9 438.81,-557.9 432.94,-557.9 421.74,-555.41 416.42,-552.93 416.42,-552.93 405.77,-547.97 405.77,-547.97 400.45,-545.48 400.45,-540.52 405.77,-538.03 405.77,-538.03 416.42,-533.07 416.42,-533.07 421.74,-530.59 432.94,-528.1 438.81,-528.1 438.81,-528.1 479.19,-528.1 479.19,-528.1 485.06,-528.1 496.26,-530.59 501.58,-533.07 501.58,-533.07 512.23,-538.03 512.23,-538.03 517.55,-540.52 517.55,-545.48 512.23,-547.97"/>
<text text-anchor="middle" x="459" y="-540.8" font-family="Helvetica,sans-Serif" font-size="9.00" fill="white">moe combine</text>
</g>
<!-- leg_residual_add&#45;&gt;leg_moe_combine -->
<!-- leg_skip_src -->
<g id="node30" class="node">
<title>leg_skip_src</title>
<ellipse fill="black" stroke="black" stroke-width="1.5" cx="459" cy="-471" rx="3.6" ry="3.6"/>
</g>
<!-- leg_moe_combine&#45;&gt;leg_skip_src -->
<!-- leg_skip_dst -->
<g id="node31" class="node">
<title>leg_skip_dst</title>
<path fill="lightgrey" stroke="transparent" stroke-width="1.5" d="M478.5,-417C478.5,-417 439.5,-417 439.5,-417 433.5,-417 427.5,-411 427.5,-405 427.5,-405 427.5,-393 427.5,-393 427.5,-387 433.5,-381 439.5,-381 439.5,-381 478.5,-381 478.5,-381 484.5,-381 490.5,-387 490.5,-393 490.5,-393 490.5,-405 490.5,-405 490.5,-411 484.5,-417 478.5,-417"/>
<text text-anchor="middle" x="459" y="-396.8" font-family="Helvetica,sans-Serif" font-size="9.00">skip conn.</text>
</g>
<!-- leg_skip_src&#45;&gt;leg_skip_dst -->
<g id="edge33" class="edge">
<title>leg_skip_src&#45;&gt;leg_skip_dst</title>
<path fill="none" stroke="#e85454" stroke-width="2" stroke-dasharray="5,2" d="M459,-467.34C459,-460.77 459,-443.15 459,-427.59"/>
<polygon fill="#e85454" stroke="#e85454" stroke-width="2" points="462.5,-427.3 459,-417.3 455.5,-427.3 462.5,-427.3"/>
</g>
</g>
</svg>
